<svg width="20" height="20" viewBox="0 0 20 20" fill="none" xmlns="http://www.w3.org/2000/svg">
<g clip-path="url(#clip0_869_8222)">
<path d="M0 18.3335H11.6667V20.0002H0V18.3335Z" fill="#5A5A5A"/>
<path d="M9.99935 16.6532C9.99935 16.4321 9.91155 16.2202 9.75527 16.0639C9.59899 15.9076 9.38703 15.8198 9.16602 15.8198H2.49935C2.27834 15.8198 2.06637 15.9076 1.91009 16.0639C1.75381 16.2202 1.66602 16.4321 1.66602 16.6532V17.5H9.99935V16.6532Z" fill="#5A5A5A"/>
<path d="M11.3395 9.83979C10.9512 10.2536 10.6256 10.7221 10.373 11.2302L17.2322 18.0894C17.3885 18.2456 17.6004 18.3334 17.8214 18.3334C18.0424 18.3334 18.2543 18.2456 18.4105 18.0894L19.5891 16.9108C19.6665 16.8335 19.7279 16.7416 19.7697 16.6405C19.8116 16.5394 19.8332 16.431 19.8332 16.3216C19.8332 16.2121 19.8116 16.1038 19.7697 16.0027C19.7279 15.9015 19.6665 15.8097 19.5891 15.7323L12.7299 8.875C12.2209 9.12536 11.7522 9.45056 11.3395 9.83979Z" fill="#5A5A5A"/>
<path d="M7.21471 5.715C6.58453 6.29983 5.85504 6.76751 5.06055 7.09604L9.36763 11.4031C9.69912 10.61 10.1673 9.88124 10.7508 9.25C11.381 8.6652 12.1105 8.19746 12.9049 7.86875L8.59763 3.5625C8.26603 4.35533 7.79797 5.08386 7.21471 5.715Z" fill="#5A5A5A"/>
<path d="M10.1581 0.412676L8.97979 1.59101C8.6544 1.9164 8.6544 2.44395 8.97979 2.76934L13.6931 7.48268C14.0185 7.80806 14.5461 7.80806 14.8715 7.48268L16.0498 6.30434C16.3752 5.97895 16.3752 5.4514 16.0498 5.12601L11.3365 0.412676C11.0111 0.087288 10.4835 0.0872881 10.1581 0.412676Z" fill="#5A5A5A"/>
<path d="M3.08781 7.4825L1.90948 8.66083C1.58409 8.98622 1.58409 9.51378 1.90948 9.83917L6.62281 14.5525C6.9482 14.8779 7.47576 14.8779 7.80115 14.5525L8.97948 13.3742C9.30487 13.0488 9.30487 12.5212 8.97948 12.1958L4.26615 7.4825C3.94076 7.15711 3.4132 7.15711 3.08781 7.4825Z" fill="#5A5A5A"/>
</g>
<defs>
<clipPath id="clip0_869_8222">
<rect width="20" height="20" fill="white"/>
</clipPath>
</defs>
</svg>
