<svg width="20" height="20" viewBox="0 0 20 20" fill="none" xmlns="http://www.w3.org/2000/svg">
<path d="M1.66675 10.0002C1.66675 6.85747 1.66675 5.28612 2.64306 4.30981C3.61937 3.3335 5.19072 3.3335 8.33342 3.3335H11.6667C14.8094 3.3335 16.3808 3.3335 17.3571 4.30981C18.3334 5.28612 18.3334 6.85747 18.3334 10.0002V11.6668C18.3334 14.8095 18.3334 16.3809 17.3571 17.3572C16.3808 18.3335 14.8094 18.3335 11.6667 18.3335H8.33341C5.19072 18.3335 3.61937 18.3335 2.64306 17.3572C1.66675 16.3809 1.66675 14.8095 1.66675 11.6668V10.0002Z" stroke="#5A5A5A" stroke-width="1.3"/>
<path d="M5.83325 3.3335V2.0835" stroke="#5A5A5A" stroke-width="1.3" stroke-linecap="round"/>
<path d="M14.1667 3.3335V2.0835" stroke="#5A5A5A" stroke-width="1.3" stroke-linecap="round"/>
<path d="M2.08325 7.5H17.9166" stroke="#5A5A5A" stroke-width="1.3" stroke-linecap="round"/>
</svg>
