<svg width="20" height="20" viewBox="0 0 20 20" fill="none" xmlns="http://www.w3.org/2000/svg">
<path d="M15.8333 2.5H4.16663C2.98811 2.5 2.39886 2.5 2.03274 2.8435C1.66663 3.187 1.66663 3.73985 1.66663 4.84555V5.4204C1.66663 6.28527 1.66663 6.7177 1.88296 7.07618C2.09929 7.43466 2.49452 7.65715 3.28497 8.10212L5.7125 9.46865C6.24284 9.7672 6.50802 9.91648 6.69789 10.0813C7.09328 10.4246 7.33669 10.8279 7.44699 11.3226C7.49996 11.5602 7.49996 11.8382 7.49996 12.3941L7.49996 14.6187C7.49996 15.3766 7.49996 15.7556 7.7099 16.0511C7.91983 16.3465 8.2927 16.4923 9.03842 16.7838C10.6039 17.3958 11.3867 17.7018 11.9433 17.3537C12.5 17.0055 12.5 16.2099 12.5 14.6187V12.3941C12.5 11.8382 12.5 11.5602 12.5529 11.3226C12.6632 10.8279 12.9066 10.4246 13.302 10.0813C13.4919 9.91648 13.7571 9.7672 14.2874 9.46865L16.7149 8.10212C17.5054 7.65715 17.9006 7.43466 18.117 7.07618C18.3333 6.7177 18.3333 6.28527 18.3333 5.4204V4.84555C18.3333 3.73985 18.3333 3.187 17.9672 2.8435C17.6011 2.5 17.0118 2.5 15.8333 2.5Z" stroke="#5A5A5A" stroke-width="1.3"/>
</svg>
