<svg width="36" height="24" viewBox="0 0 36 24" fill="none" xmlns="http://www.w3.org/2000/svg">
<path d="M17.9975 16.662L19.2574 17.915L22.9191 14.2734C23.5571 13.6389 23.9109 12.7965 23.9109 11.8954C23.9109 10.9944 23.5571 10.152 22.9191 9.51748L19.2467 5.86523L17.9868 7.12353L21.6538 10.7704C21.9541 11.069 22.1203 11.4689 22.1203 11.8901C22.1203 12.3113 21.9541 12.7112 21.6538 13.0098L17.9922 16.6514L17.9975 16.662Z" fill="#207CEC"/>
<path d="M11.9607 1.78036C12.395 1.78036 12.7863 1.94031 13.0919 2.24422L13.6924 2.84137L7.15178 9.51673C6.50844 10.1565 6.15996 10.999 6.15996 11.9C6.15996 12.8011 6.5138 13.6488 7.13569 14.2673L13.687 20.9533L13.0919 21.5505C12.7863 21.8544 12.395 22.0144 11.9607 22.0144C11.5265 22.0144 11.1351 21.8544 10.8295 21.5505L2.25168 13.025C1.9461 12.7211 1.78526 12.3319 1.78526 11.9C1.78526 11.4681 1.9461 11.0789 2.25168 10.775L10.8295 2.24422C11.1351 1.94031 11.5265 1.78036 11.9607 1.78036ZM11.9607 0.00488281C11.0601 0.00488281 10.2076 0.356778 9.56966 0.991257L0.991813 9.52206C0.353836 10.1565 0 10.999 0 11.9C0 12.8011 0.353836 13.6435 0.991813 14.278L9.56966 22.8088C10.2076 23.4433 11.0547 23.7952 11.9607 23.7952C12.8668 23.7952 13.7138 23.4433 14.3518 22.8088L16.18 20.964L8.40629 13.0304C8.1007 12.7264 7.9345 12.3266 7.9345 11.9C7.9345 11.4735 8.1007 11.0683 8.40629 10.7697L16.1907 2.82538H16.18L14.3411 0.996589C13.7031 0.36211 12.856 0.0102146 11.95 0.0102146L11.9607 0.00488281Z" fill="#207CEC"/>
<path d="M24.0339 1.7808C24.1412 1.7808 24.2484 1.79147 24.3556 1.8128C24.6612 1.87144 24.94 2.02073 25.1651 2.24467L33.743 10.7755C34.0432 11.074 34.2094 11.4579 34.2094 11.8845V11.9165C34.2094 12.343 34.0432 12.7269 33.743 13.0255L25.1651 21.5563C24.8595 21.8602 24.4682 22.0201 24.0339 22.0201C23.5997 22.0201 23.2083 21.8602 22.9135 21.5616L22.313 20.9538L22.3291 20.9325L28.8482 14.2784C29.4916 13.6386 29.8401 12.7962 29.8401 11.8951C29.8401 10.9941 29.4862 10.1463 28.8643 9.52784L22.3237 2.85782L22.3023 2.83649L22.9027 2.23934C23.2083 1.93543 23.5997 1.77547 24.0339 1.77547M24.0339 0C23.1333 0 22.2808 0.351896 21.6429 0.986374L19.804 2.81516V2.8205L13.0757 9.51184C12.4378 10.1463 12.0839 10.9887 12.0839 11.8898C12.0839 12.7909 12.4378 13.6333 13.0757 14.2678L20.828 21.9775L21.6482 22.8039C22.2862 23.4384 23.1333 23.7903 24.0393 23.7903C24.9453 23.7903 25.7924 23.4384 26.4304 22.8039L35.0082 14.2731C35.6462 13.6386 36 12.7962 36 11.8951C36 10.9994 35.6462 10.1517 35.0082 9.51718L26.4304 0.991706C25.9532 0.51718 25.3528 0.197275 24.7041 0.0693128C24.4843 0.0266588 24.2645 0.00533175 24.0393 0.00533175L24.0339 0ZM21.0531 19.6955L20.8923 19.5355L14.3356 13.0148C14.0354 12.7162 13.8692 12.3163 13.8692 11.8951C13.8692 11.4739 14.0354 11.074 14.3356 10.7755L21.0478 4.10012L27.5884 10.7648C27.894 11.0687 28.0602 11.4686 28.0602 11.8951C28.0602 12.3217 27.894 12.7269 27.5884 13.0255L21.0531 19.6955Z" fill="url(#paint0_linear_540_6042)"/>
<defs>
<linearGradient id="paint0_linear_540_6042" x1="12.0839" y1="11.9005" x2="35.9947" y2="11.9005" gradientUnits="userSpaceOnUse">
<stop stop-color="#207CEC"/>
<stop offset="0.15" stop-color="#2095E5"/>
<stop offset="0.4" stop-color="#21BADB"/>
<stop offset="0.63" stop-color="#21D5D4"/>
<stop offset="0.84" stop-color="#21E6D0"/>
<stop offset="1" stop-color="#22ECCF"/>
</linearGradient>
</defs>
</svg>
