<svg width="18" height="14" viewBox="0 0 18 14" fill="none" xmlns="http://www.w3.org/2000/svg">
<path fill-rule="evenodd" clip-rule="evenodd" d="M1.29199 1.7915H0.666992C0.321992 1.7915 0.0419922 2.0715 0.0419922 2.4165V13.2498C0.0419922 13.5948 0.321992 13.8748 0.666992 13.8748H7.14949C6.09783 13.319 4.62283 13.0415 3.45366 13.0415H2.75033C1.94533 13.0415 1.29199 12.3882 1.29199 11.5832V1.7915ZM16.7087 1.7915V11.5832C16.7087 12.3882 16.0553 13.0415 15.2503 13.0415H14.547C13.3778 13.0415 11.9028 13.319 10.8512 13.8748H17.3337C17.6787 13.8748 17.9587 13.5948 17.9587 13.2498V2.4165C17.9587 2.0715 17.6787 1.7915 17.3337 1.7915H16.7087Z" fill="#5A5A5A"/>
<path fill-rule="evenodd" clip-rule="evenodd" d="M8.375 13.6125V1.34L8.315 1.305C6.96917 0.536667 5.00333 0.125 3.45333 0.125H2.75C2.405 0.125 2.125 0.405 2.125 0.75V11.5833C2.125 11.9283 2.405 12.2083 2.75 12.2083H3.45333C4.80417 12.2083 6.52167 12.5533 7.695 13.2242L8.375 13.6125Z" fill="#5A5A5A"/>
<path fill-rule="evenodd" clip-rule="evenodd" d="M9.625 1.34V13.6125L10.305 13.2242C11.4783 12.5533 13.1958 12.2083 14.5467 12.2083H15.25C15.595 12.2083 15.875 11.9283 15.875 11.5833V0.75C15.875 0.405 15.595 0.125 15.25 0.125H14.5467C12.9967 0.125 11.0308 0.536667 9.685 1.305L9.625 1.34Z" fill="#5A5A5A"/>
</svg>
