<svg width="36" height="24" viewBox="0 0 36 24" fill="none" xmlns="http://www.w3.org/2000/svg">
<path d="M19.3892 0.00109439C17.9144 0.00109439 17.2759 1.19274 17.9636 2.6616L27.4911 23.0114L34.2978 23.0102C35.7726 23.0102 36.4111 21.8186 35.7234 20.3497L26.1959 0L19.3892 0.00109439Z" fill="#F26924"/>
<path d="M8.83014 7.22997L16.1929 23.0113L22.9997 23.0102C24.4745 23.0102 25.113 21.8186 24.4253 20.3497L17.0625 4.56836L10.2557 4.56946C8.78096 4.56946 8.14243 5.76108 8.83014 7.22997Z" fill="#FDB714"/>
<path d="M0.276664 13.1548L4.89718 23.0115L11.7039 23.0104C13.1787 23.0104 13.8172 21.8187 13.1295 20.3499L8.50904 10.4932L1.70229 10.4943C0.22751 10.4943 -0.411034 11.6859 0.276664 13.1548Z" fill="#00A176"/>
</svg>
