<svg width="32" height="32" viewBox="0 0 32 32" fill="none" xmlns="http://www.w3.org/2000/svg">
<mask id="mask0_540_5913" style="mask-type:luminance" maskUnits="userSpaceOnUse" x="0" y="0" width="32" height="32">
<path d="M31.7808 0.253906H0.219177V31.8156H31.7808V0.253906Z" fill="white"/>
</mask>
<g mask="url(#mask0_540_5913)">
<mask id="mask1_540_5913" style="mask-type:luminance" maskUnits="userSpaceOnUse" x="0" y="0" width="32" height="32">
<path d="M31.7808 0.253906H0.219177V31.8156H31.7808V0.253906Z" fill="white"/>
</mask>
<g mask="url(#mask1_540_5913)">
<path d="M23.3019 4.52222C22.8693 3.15546 21.601 2.22656 20.1674 2.22656H19.0839C17.5004 2.22656 16.1419 3.35535 15.8519 4.91205L14.2418 13.5538L14.7249 11.9586C15.1448 10.5721 16.4227 9.62381 17.8714 9.62381H22.9041L25.7896 10.6336L27.3244 9.62898C25.8908 9.62898 24.6225 8.69493 24.1899 7.32818L23.3019 4.52222Z" fill="url(#paint0_radial_540_5913)"/>
<path d="M9.0367 27.533C9.46471 28.907 10.7365 29.8429 12.1756 29.8429H14.3086C16.1061 29.8429 17.5704 28.3993 17.596 26.602L17.7089 18.6631L17.2762 20.1037C16.8587 21.4938 15.579 22.4457 14.1275 22.4457H9.09588L6.49384 21.2594L5.03262 22.4457C6.4717 22.4457 7.74355 23.3816 8.17156 24.7556L9.0367 27.533Z" fill="url(#paint1_radial_540_5913)"/>
<path d="M19.9452 2.22656H8.43836C5.15068 2.22656 3.17809 6.46633 1.86302 10.7061C0.305007 15.7291 -1.73369 22.447 4.16439 22.447H9.17523C10.637 22.447 11.9222 21.4855 12.3332 20.0827C13.1977 17.1316 14.7088 11.9968 15.8962 8.08666C16.5005 6.09653 17.0038 4.38738 17.7764 3.323C18.2095 2.72628 18.9313 2.22656 19.9452 2.22656Z" fill="url(#paint2_linear_540_5913)"/>
<path d="M19.9452 2.22656H8.43836C5.15068 2.22656 3.17809 6.46633 1.86302 10.7061C0.305007 15.7291 -1.73369 22.447 4.16439 22.447H9.17523C10.637 22.447 11.9222 21.4855 12.3332 20.0827C13.1977 17.1316 14.7088 11.9968 15.8962 8.08666C16.5005 6.09653 17.0038 4.38738 17.7764 3.323C18.2095 2.72628 18.9313 2.22656 19.9452 2.22656Z" fill="url(#paint3_linear_540_5913)"/>
<path d="M12.0524 29.8434H23.5593C26.8469 29.8434 28.8196 25.6043 30.1346 21.3652C31.6926 16.3429 33.7313 9.62598 27.8333 9.62598H22.8223C21.3606 9.62598 20.0754 10.5875 19.6644 11.9902C18.7998 14.9409 17.2888 20.0747 16.1014 23.9842C15.4972 25.9741 14.9938 27.683 14.2212 28.7472C13.7881 29.3438 13.0663 29.8434 12.0524 29.8434Z" fill="url(#paint4_radial_540_5913)"/>
<path d="M12.0524 29.8434H23.5593C26.8469 29.8434 28.8196 25.6043 30.1346 21.3652C31.6926 16.3429 33.7313 9.62598 27.8333 9.62598H22.8223C21.3606 9.62598 20.0754 10.5875 19.6644 11.9902C18.7998 14.9409 17.2888 20.0747 16.1014 23.9842C15.4972 25.9741 14.9938 27.683 14.2212 28.7472C13.7881 29.3438 13.0663 29.8434 12.0524 29.8434Z" fill="url(#paint5_linear_540_5913)"/>
<path d="M30.1864 22.4463H12.1698C11.2892 22.4463 10.5753 23.1601 10.5753 24.0407V30.2217C10.5753 31.1023 11.2892 31.8162 12.1698 31.8162H30.1864C31.067 31.8162 31.7808 31.1023 31.7808 30.2217V24.0407C31.7808 23.1601 31.067 22.4463 30.1864 22.4463Z" fill="black"/>
<path fill-rule="evenodd" clip-rule="evenodd" d="M11.8656 24.2363V29.9488H12.9223V25.8333L14.0809 28.1154H14.7855L15.9186 25.8315V29.9488H17.0093V24.2363H15.7913L14.4678 26.8869L13.1515 24.2363H11.8656ZM19.7617 30.021C19.1336 30.021 18.644 29.871 18.2932 29.5711C17.9452 29.2712 17.7712 28.8199 17.7712 28.2173H18.8152C18.8152 28.503 18.8973 28.7265 19.0614 28.8878C19.2283 29.0491 19.4604 29.1297 19.7574 29.1297C20.0234 29.1297 20.2271 29.0618 20.3685 28.926C20.5128 28.7902 20.585 28.5752 20.585 28.281C20.585 27.998 20.4973 27.7929 20.3219 27.6655C20.1493 27.5354 19.9244 27.4703 19.6471 27.4703H19.3033V26.6131H19.6768C19.9258 26.6131 20.1238 26.5452 20.271 26.4093C20.4181 26.2735 20.4916 26.0939 20.4916 25.8703C20.4916 25.644 20.4251 25.4771 20.2922 25.3695C20.162 25.262 19.9823 25.2083 19.7532 25.2083C19.5013 25.2083 19.3061 25.279 19.1675 25.4205C19.0288 25.5591 18.9595 25.7501 18.9595 25.9934H17.9198C17.9198 25.6115 17.999 25.2974 18.1574 25.0512C18.3187 24.8051 18.538 24.6212 18.8152 24.4995C19.0925 24.375 19.4038 24.3128 19.7489 24.3128C20.0687 24.3128 20.3643 24.3651 20.6359 24.4698C20.9075 24.5745 21.1254 24.7343 21.2895 24.9494C21.4565 25.1644 21.5399 25.4403 21.5399 25.777C21.5399 26.1193 21.4579 26.3909 21.2937 26.5918C21.1325 26.7927 20.9146 26.9341 20.6402 27.0162C20.9429 27.0785 21.1933 27.2199 21.3914 27.4406C21.5923 27.6585 21.6927 27.9655 21.6927 28.3616C21.6927 28.8992 21.5187 29.3108 21.1707 29.5966C20.8255 29.8795 20.3558 30.021 19.7617 30.021ZM23.1781 29.7409C23.4921 29.9304 23.8486 30.0252 24.2476 30.0252C24.6494 30.0252 24.9889 29.946 25.2662 29.7875C25.5463 29.6291 25.7584 29.4113 25.9027 29.1339C26.0471 28.8538 26.1192 28.5327 26.1192 28.1706C26.1192 27.7942 26.0485 27.4788 25.907 27.2242C25.7655 26.9667 25.5731 26.7729 25.3298 26.6427C25.0893 26.5097 24.8177 26.4432 24.515 26.4432C24.2603 26.4432 24.0368 26.4843 23.8444 26.5663C23.6548 26.6484 23.4865 26.7573 23.3394 26.8931C23.3209 26.9105 23.3025 26.9281 23.2844 26.946C23.3036 26.3979 23.3856 25.9827 23.5303 25.7005C23.7001 25.3723 23.9406 25.2082 24.2518 25.2082C24.4442 25.2082 24.5998 25.262 24.7187 25.3695C24.8403 25.4742 24.9224 25.634 24.9648 25.8491H26.0089C25.9353 25.3568 25.7486 24.979 25.4486 24.7159C25.1487 24.4499 24.7498 24.317 24.2518 24.317C23.8472 24.317 23.4879 24.4203 23.1738 24.6268C22.8598 24.8305 22.6136 25.146 22.4354 25.5732C22.2571 25.9976 22.168 26.5423 22.168 27.2072C22.168 27.8749 22.2586 28.4167 22.4396 28.8326C22.6207 29.2457 22.8669 29.5485 23.1781 29.7409ZM23.2877 27.7616C23.363 27.6883 23.4467 27.6209 23.5388 27.5594C23.768 27.4038 24.0269 27.326 24.3155 27.326C24.5334 27.326 24.7031 27.4024 24.8248 27.5552C24.9464 27.7051 25.0073 27.9145 25.0073 28.1833C25.0073 28.4577 24.9436 28.6855 24.8163 28.8666C24.6918 29.0477 24.5022 29.1382 24.2476 29.1382C24.0835 29.1382 23.9265 29.0859 23.7765 28.9812C23.6294 28.8737 23.5091 28.6997 23.4157 28.4591C23.3469 28.2741 23.3042 28.0416 23.2877 27.7616ZM27.5749 29.8385C27.872 29.963 28.2031 30.0252 28.568 30.0252C28.9302 30.0252 29.2556 29.9531 29.5442 29.8088C29.8356 29.6645 30.0662 29.4495 30.2359 29.1637C30.4057 28.8751 30.4906 28.5144 30.4906 28.0815C30.4906 27.6486 30.41 27.2992 30.2487 27.0332C30.0902 26.7672 29.8823 26.5734 29.6248 26.4518C29.3673 26.3273 29.0915 26.265 28.7972 26.265C28.5709 26.265 28.3742 26.3018 28.2073 26.3754C28.0432 26.4461 27.9187 26.5296 27.8338 26.6258L27.9357 25.3186H30.062V24.3891H27.0572L26.8153 27.4661H27.7871C27.8664 27.3671 27.9668 27.285 28.0885 27.2199C28.2101 27.1549 28.3587 27.1223 28.5341 27.1223C28.7831 27.1223 28.9854 27.1987 29.141 27.3515C29.2994 27.5015 29.3786 27.7448 29.3786 28.0815C29.3786 28.4465 29.3037 28.7138 29.1537 28.8836C29.0066 29.0533 28.8114 29.1382 28.568 29.1382C28.3106 29.1382 28.0998 29.0661 27.9357 28.9218C27.7716 28.7747 27.6895 28.5738 27.6895 28.3191H26.6073C26.6073 28.7011 26.6936 29.0194 26.8662 29.274C27.0416 29.5258 27.2779 29.714 27.5749 29.8385Z" fill="white"/>
</g>
</g>
<defs>
<radialGradient id="paint0_radial_540_5913" cx="0" cy="0" r="1" gradientUnits="userSpaceOnUse" gradientTransform="translate(26.0543 13.6278) rotate(-130.285) scale(12.1175 11.4663)">
<stop offset="0.0955758" stop-color="#00AEFF"/>
<stop offset="0.773185" stop-color="#2253CE"/>
<stop offset="1" stop-color="#0736C4"/>
</radialGradient>
<radialGradient id="paint1_radial_540_5913" cx="0" cy="0" r="1" gradientUnits="userSpaceOnUse" gradientTransform="translate(6.73349 22.3444) rotate(50.2556) scale(10.9651 10.7633)">
<stop stop-color="#FFB657"/>
<stop offset="0.633728" stop-color="#FF5F3D"/>
<stop offset="0.923392" stop-color="#C02B3C"/>
</radialGradient>
<linearGradient id="paint2_linear_540_5913" x1="7.74966" y1="4.67665" x2="9.31336" y2="23.2165" gradientUnits="userSpaceOnUse">
<stop offset="0.156162" stop-color="#0D91E1"/>
<stop offset="0.487484" stop-color="#52B471"/>
<stop offset="0.652394" stop-color="#98BD42"/>
<stop offset="0.937361" stop-color="#FFC800"/>
</linearGradient>
<linearGradient id="paint3_linear_540_5913" x1="9.18448" y1="2.22656" x2="10.0381" y2="22.4488" gradientUnits="userSpaceOnUse">
<stop stop-color="#3DCBFF"/>
<stop offset="0.246674" stop-color="#0588F7" stop-opacity="0"/>
</linearGradient>
<radialGradient id="paint4_radial_540_5913" cx="0" cy="0" r="1" gradientUnits="userSpaceOnUse" gradientTransform="translate(28.4243 7.64658) rotate(109.722) scale(26.938 32.9003)">
<stop offset="0.0661714" stop-color="#8C48FF"/>
<stop offset="0.5" stop-color="#F2598A"/>
<stop offset="0.895833" stop-color="#FFB152"/>
</radialGradient>
<linearGradient id="paint5_linear_540_5913" x1="29.3334" y1="8.39165" x2="29.3222" y2="13.8982" gradientUnits="userSpaceOnUse">
<stop offset="0.0581535" stop-color="#F8ADFA"/>
<stop offset="0.708063" stop-color="#A86EDD" stop-opacity="0"/>
</linearGradient>
</defs>
</svg>
