<svg width="24" height="24" viewBox="0 0 24 24" fill="none" xmlns="http://www.w3.org/2000/svg">
<g clip-path="url(#clip0_757_1637)">
<path d="M10.0969 19.4295L14.9518 17.002C19.1929 14.8815 21.3135 13.8212 21.3135 12.1421C21.3135 10.4631 19.1929 9.40281 14.9518 7.28225L10.097 4.85483C6.67396 3.14333 4.96247 2.28758 3.97025 2.55026C3.02635 2.80015 2.28914 3.53736 2.03925 4.48126C1.77657 5.47348 2.63232 7.18498 4.34381 10.608C4.55592 11.0322 4.98958 11.3144 5.46386 11.3166L13.2139 11.3527C13.6499 11.3547 14.0018 11.7098 13.9997 12.1458C13.9977 12.5818 13.6426 12.9336 13.2066 12.9316L5.58166 12.8961C5.05891 12.8937 4.5776 13.2087 4.34381 13.6763C2.63233 17.0993 1.77657 18.8108 2.03925 19.803C2.28914 20.7469 3.02634 21.4841 3.97025 21.734C4.96247 21.9967 6.67397 21.1409 10.0969 19.4295Z" fill="#1A1A1A"/>
</g>
<defs>
<clipPath id="clip0_757_1637">
<rect width="24" height="24" fill="white"/>
</clipPath>
</defs>
</svg>
