<svg width="38" height="24" viewBox="0 0 38 24" fill="none" xmlns="http://www.w3.org/2000/svg">
<g clip-path="url(#clip0_540_6025)">
<path d="M36.8141 3.74512C37.2639 3.74512 37.6224 4.11136 37.6224 4.56784C37.6224 5.02432 37.2639 5.39488 36.8103 5.39488C36.3567 5.39488 35.9943 5.03248 35.9943 4.56784C35.9943 4.1032 36.36 3.74512 36.8103 3.74512H36.8141ZM36.8103 3.87328C36.4483 3.87328 36.1517 4.1848 36.1517 4.56784C36.1517 4.95088 36.4479 5.26768 36.8141 5.26768C37.1799 5.27104 37.4727 4.96 37.4727 4.57216C37.4727 4.18432 37.1799 3.87328 36.8141 3.87328H36.8103ZM36.6567 5.04832H36.5103V4.1296C36.5871 4.11856 36.6605 4.10704 36.7704 4.10704C36.9091 4.10704 37.0008 4.1368 37.0555 4.17664C37.1103 4.21696 37.1395 4.27888 37.1395 4.36672C37.1395 4.4872 37.0589 4.56064 36.96 4.58992V4.59712C37.0402 4.612 37.0954 4.68544 37.1136 4.82032C37.1357 4.96336 37.1573 5.01808 37.1727 5.04784H37.0186C36.9965 5.01808 36.9744 4.9336 36.9567 4.81264C36.9346 4.69552 36.876 4.65184 36.7589 4.65184H36.6562V5.04784H36.6567V5.04832ZM36.6567 4.54H36.7632C36.8842 4.54 36.9864 4.49536 36.9864 4.38208C36.9864 4.30192 36.9283 4.22128 36.7632 4.22128C36.7157 4.22128 36.6831 4.22416 36.6567 4.22848V4.54Z" fill="#AA0000"/>
<path d="M20.2873 21.6933C20.2873 21.7413 20.2724 21.7777 20.2436 21.8013C20.2148 21.8253 20.1749 21.843 20.1236 21.855C20.0727 21.867 19.9988 21.8728 19.9004 21.8728C19.802 21.8728 19.7309 21.867 19.6748 21.855C19.6186 21.843 19.5778 21.8253 19.5524 21.8013C19.5269 21.7777 19.5145 21.7422 19.5145 21.6942V21.1581C19.3018 21.4086 19.0647 21.6025 18.8026 21.7413C18.541 21.8795 18.2645 21.9486 17.9722 21.9486C17.7159 21.9486 17.4841 21.9126 17.2767 21.8387C17.0693 21.7653 16.8927 21.6597 16.7463 21.5205C16.6004 21.3808 16.4871 21.2104 16.4055 21.0073C16.3244 20.8043 16.2841 20.5749 16.2841 20.3157C16.2841 20.0142 16.3397 19.7521 16.4516 19.5294C16.5634 19.3067 16.7237 19.1224 16.933 18.975C17.1423 18.8277 17.3986 18.7177 17.7015 18.6448C18.0044 18.5713 18.3452 18.5349 18.7239 18.5349H19.3949V18.1177C19.3949 17.9118 19.3748 17.7294 19.3349 17.571C19.2951 17.4117 19.2313 17.2806 19.1429 17.175C19.0546 17.0699 18.9399 16.9902 18.7993 16.9369C18.6586 16.8832 18.4853 16.8568 18.2799 16.8568C18.0596 16.8568 17.8618 16.8856 17.6871 16.9427C17.5119 16.9998 17.3583 17.0627 17.2273 17.1313C17.0953 17.2005 16.9853 17.2638 16.897 17.32C16.8087 17.3771 16.7425 17.4059 16.6993 17.4059C16.6709 17.4059 16.6455 17.3973 16.6234 17.3819C16.6018 17.3656 16.5831 17.3416 16.5668 17.3099C16.5505 17.2773 16.5389 17.2365 16.5317 17.187C16.5245 17.1371 16.5207 17.0819 16.5207 17.0224C16.5207 16.923 16.5274 16.8443 16.5399 16.7862C16.5524 16.7286 16.5831 16.6734 16.6321 16.6221C16.6805 16.5697 16.765 16.5093 16.8841 16.4411C17.0036 16.3729 17.1404 16.3096 17.2959 16.2529C17.4514 16.1958 17.6209 16.1488 17.8052 16.1118C17.9895 16.0744 18.1753 16.0557 18.3634 16.0557C18.7133 16.0557 19.0119 16.0993 19.2572 16.1867C19.5029 16.2741 19.7017 16.4022 19.8538 16.5712C20.0055 16.7401 20.1154 16.9504 20.1841 17.1995C20.2522 17.4505 20.2873 17.7419 20.2873 18.076V21.6933ZM19.3954 19.2429H18.6327C18.3874 19.2429 18.1748 19.2654 17.9948 19.3105C17.8143 19.3571 17.6645 19.4248 17.5455 19.5136C17.4265 19.6038 17.3391 19.7109 17.2829 19.8357C17.2273 19.9605 17.1994 20.1049 17.1994 20.2677C17.1994 20.5451 17.2796 20.7673 17.4399 20.932C17.6002 21.0961 17.8244 21.1792 18.1133 21.1792C18.3476 21.1792 18.565 21.1134 18.7652 20.9824C18.9653 20.8513 19.1751 20.6507 19.3954 20.3805V19.2429Z" fill="#191919"/>
<path d="M22.8293 21.6881C22.8293 21.7207 22.8221 21.7471 22.8077 21.7682C22.7938 21.7908 22.7698 21.809 22.7377 21.8253C22.7055 21.8417 22.6604 21.8527 22.6023 21.8613C22.5447 21.8685 22.4708 21.8724 22.381 21.8724C22.2913 21.8724 22.2226 21.8681 22.1645 21.8613C22.1069 21.8527 22.0609 21.8417 22.0263 21.8253C21.9922 21.809 21.9687 21.7908 21.9562 21.7682C21.9437 21.7471 21.937 21.7202 21.937 21.6881V13.7306C21.937 13.6989 21.9433 13.6716 21.9562 13.6476C21.9687 13.6236 21.9922 13.6039 22.0263 13.5885C22.0604 13.5717 22.1065 13.5602 22.1645 13.5521C22.2221 13.5449 22.2941 13.541 22.381 13.541C22.4679 13.541 22.5447 13.5453 22.6023 13.5521C22.6599 13.5607 22.705 13.5717 22.7377 13.5885C22.7698 13.6039 22.7938 13.6236 22.8077 13.6476C22.8221 13.6716 22.8293 13.6989 22.8293 13.7306V21.6881Z" fill="#191919"/>
<path d="M28.1516 21.6933C28.1516 21.7413 28.1372 21.7777 28.108 21.8013C28.0787 21.8253 28.0388 21.843 27.988 21.855C27.9371 21.867 27.8631 21.8728 27.7647 21.8728C27.6663 21.8728 27.5953 21.867 27.5391 21.855C27.483 21.843 27.4422 21.8253 27.4167 21.8013C27.3913 21.7777 27.3788 21.7422 27.3788 21.6942V21.1581C27.1662 21.4086 26.9291 21.6025 26.667 21.7413C26.4054 21.8795 26.1289 21.9486 25.8366 21.9486C25.5803 21.9486 25.3484 21.9126 25.1411 21.8387C24.9337 21.7653 24.7566 21.6597 24.6107 21.5205C24.4643 21.3808 24.351 21.2104 24.2699 21.0073C24.1883 20.8043 24.1479 20.5749 24.1479 20.3157C24.1479 20.0142 24.2036 19.7521 24.3155 19.5294C24.4273 19.3067 24.5876 19.1224 24.7969 18.975C25.0062 18.8277 25.2625 18.7177 25.5654 18.6448C25.8683 18.5713 26.2091 18.5349 26.5883 18.5349H27.2588V18.1177C27.2588 17.9118 27.2387 17.7294 27.1993 17.571C27.1595 17.4117 27.0956 17.2806 27.0068 17.175C26.9185 17.0699 26.8038 16.9902 26.6631 16.9369C26.522 16.8832 26.3488 16.8568 26.1433 16.8568C25.9235 16.8568 25.7257 16.8856 25.551 16.9427C25.3758 16.9998 25.2227 17.0627 25.0911 17.1313C24.9591 17.2005 24.8492 17.2638 24.7609 17.32C24.6726 17.3771 24.6068 17.4059 24.5632 17.4059C24.5344 17.4059 24.5089 17.3973 24.4873 17.3819C24.4657 17.3656 24.4465 17.3416 24.4302 17.3099C24.4139 17.2773 24.4024 17.2365 24.3952 17.187C24.388 17.1371 24.3846 17.0819 24.3846 17.0224C24.3846 16.923 24.3908 16.8443 24.4033 16.7862C24.4158 16.7286 24.4465 16.6734 24.4955 16.6221C24.544 16.5697 24.6284 16.5093 24.7475 16.4411C24.8665 16.3729 25.0038 16.3096 25.1593 16.2529C25.3144 16.1958 25.4843 16.1488 25.6681 16.1118C25.8524 16.0744 26.0382 16.0557 26.2264 16.0557C26.5763 16.0557 26.8744 16.0993 27.1206 16.1867C27.3664 16.2741 27.5646 16.4022 27.7163 16.5712C27.8684 16.7401 27.9783 16.9504 28.047 17.1995C28.1156 17.4505 28.1502 17.7419 28.1502 18.076V21.6933H28.1516ZM27.2598 19.2429H26.4971C26.2518 19.2429 26.0391 19.2654 25.8587 19.3105C25.6787 19.3571 25.5289 19.4248 25.4099 19.5136C25.2908 19.6038 25.2035 19.7109 25.1473 19.8357C25.0916 19.9605 25.0638 20.1049 25.0638 20.2677C25.0638 20.5451 25.1439 20.7673 25.3043 20.932C25.4646 21.0961 25.6888 21.1792 25.9777 21.1792C26.212 21.1792 26.4294 21.1134 26.6296 20.9824C26.8297 20.8513 27.0395 20.6507 27.2598 20.3805V19.2429Z" fill="#191919"/>
<path d="M32.6526 16.6758C32.6526 16.7632 32.6506 16.8371 32.6468 16.8971C32.6434 16.9561 32.6362 17.0027 32.6252 17.0368C32.6146 17.0704 32.6007 17.0968 32.5844 17.114C32.5681 17.1323 32.5455 17.1409 32.5167 17.1409C32.4879 17.1409 32.4524 17.1323 32.4106 17.114C32.3694 17.0963 32.3218 17.079 32.2695 17.0603C32.2172 17.0425 32.1582 17.0257 32.0929 17.0094C32.0276 16.994 31.957 16.9854 31.8812 16.9854C31.7905 16.9854 31.7022 17.0051 31.6153 17.0454C31.5284 17.0857 31.4372 17.151 31.3412 17.2417C31.2452 17.3334 31.1449 17.4544 31.0402 17.6051C30.9351 17.7558 30.8199 17.9411 30.6927 18.159V21.6875C30.6927 21.7201 30.6855 21.7465 30.6711 21.7676C30.6567 21.7902 30.6332 21.8084 30.6006 21.8248C30.5684 21.8411 30.5233 21.8521 30.4657 21.8608C30.4081 21.868 30.3337 21.8718 30.2439 21.8718C30.1542 21.8718 30.085 21.8675 30.0274 21.8608C29.9698 21.8521 29.9238 21.8411 29.8892 21.8248C29.8556 21.8084 29.8316 21.7902 29.8191 21.7676C29.8066 21.7465 29.7999 21.7196 29.7999 21.6875V16.3244C29.7999 16.2923 29.8057 16.2654 29.8162 16.2443C29.8273 16.2217 29.8484 16.202 29.881 16.1843C29.9132 16.1665 29.9545 16.154 30.0054 16.1483C30.0558 16.1425 30.1225 16.1396 30.2055 16.1396C30.2886 16.1396 30.3505 16.1425 30.4028 16.1483C30.4551 16.154 30.4959 16.1665 30.5247 16.1843C30.5535 16.202 30.5742 16.2217 30.5866 16.2443C30.5991 16.2654 30.6058 16.2923 30.6058 16.3244V17.1049C30.7398 16.8899 30.8655 16.7152 30.9826 16.5798C31.1002 16.4454 31.2116 16.3384 31.3167 16.2606C31.4214 16.1833 31.5255 16.1296 31.6287 16.0998C31.7314 16.07 31.8356 16.0547 31.9402 16.0547C31.9873 16.0547 32.0406 16.058 32.1006 16.0638C32.1601 16.07 32.2225 16.0806 32.2878 16.0969C32.353 16.1123 32.4116 16.1305 32.4639 16.1507C32.5162 16.1704 32.5537 16.19 32.5753 16.2097C32.5969 16.2304 32.6118 16.2491 32.619 16.2668C32.6262 16.2846 32.6324 16.3072 32.6377 16.335C32.6434 16.3633 32.6468 16.4041 32.6487 16.4574C32.6502 16.5112 32.6511 16.5827 32.6511 16.6744L32.6526 16.6758Z" fill="#191919"/>
<path d="M35.9463 21.8349L35.2954 23.8043C35.2738 23.8672 35.2186 23.9157 35.1303 23.9493C35.0415 23.9829 34.9071 24.0001 34.7266 24.0001C34.6325 24.0001 34.5567 23.9944 34.4986 23.9848C34.441 23.9752 34.3963 23.9579 34.3656 23.9349C34.3349 23.9104 34.3176 23.8792 34.3143 23.8398C34.3109 23.8005 34.32 23.7525 34.3416 23.6968L35.0136 21.8353C34.9815 21.819 34.9503 21.7936 34.9215 21.7571C34.8927 21.7221 34.873 21.6837 34.8619 21.6443L33.1219 16.5208C33.0931 16.4377 33.0787 16.3729 33.0787 16.3249C33.0787 16.2769 33.0931 16.239 33.1219 16.2117C33.1507 16.1843 33.1983 16.1651 33.2631 16.1545C33.3279 16.1445 33.4147 16.1406 33.5232 16.1406C33.6317 16.1406 33.7167 16.1435 33.7781 16.1493C33.84 16.155 33.888 16.1661 33.9245 16.1824C33.961 16.1987 33.9874 16.2213 34.0032 16.2505C34.0195 16.2803 34.0363 16.3211 34.0546 16.3729L35.4475 20.6737H35.4639L36.8079 16.3485C36.8299 16.2731 36.8559 16.2246 36.8866 16.2025C36.9173 16.1814 36.9629 16.1651 37.0248 16.1545C37.0863 16.1445 37.1751 16.1406 37.2903 16.1406C37.3915 16.1406 37.4746 16.1449 37.5399 16.1545C37.6051 16.1651 37.6527 16.1843 37.6834 16.2117C37.7146 16.239 37.7295 16.2769 37.7295 16.3249C37.7295 16.3729 37.7184 16.432 37.6968 16.504L35.9463 21.8353V21.8349Z" fill="#191919"/>
<path d="M24.8625 6.12692C24.8625 6.15524 24.8587 6.18884 24.85 6.2282C24.8419 6.26852 24.827 6.31844 24.8063 6.37748L23.1484 11.4727C23.1359 11.5164 23.1163 11.5514 23.0889 11.5797C23.0615 11.608 23.0236 11.6296 22.9761 11.645C22.9281 11.6613 22.8623 11.6724 22.7788 11.6781C22.6958 11.6839 22.5916 11.6868 22.4659 11.6868C22.3401 11.6868 22.2283 11.6824 22.1409 11.6757C22.0531 11.6671 21.9835 11.6551 21.9311 11.6397C21.8788 11.6234 21.8404 11.6018 21.8155 11.5744C21.7905 11.5461 21.7713 11.5125 21.7588 11.4732L20.5761 7.57844L20.5607 7.52468L20.5483 7.57844L19.4529 11.4732C19.4404 11.5168 19.4207 11.5519 19.3939 11.5802C19.3665 11.6085 19.3257 11.6296 19.2715 11.6455C19.2172 11.6618 19.1476 11.6728 19.0617 11.6786C18.9763 11.6844 18.8707 11.6872 18.7459 11.6872C18.6211 11.6872 18.5111 11.6829 18.43 11.6762C18.3484 11.6676 18.2817 11.6556 18.2294 11.6402C18.1771 11.6239 18.1387 11.6028 18.1137 11.5749C18.0892 11.5466 18.07 11.513 18.0575 11.4736L16.4116 6.37844C16.391 6.3194 16.3761 6.26948 16.3679 6.22916C16.3593 6.1898 16.3555 6.15572 16.3555 6.12788C16.3555 6.09284 16.3641 6.06356 16.3804 6.04196C16.3972 6.02036 16.4255 6.0026 16.4649 5.9882C16.5047 5.97428 16.558 5.96564 16.6243 5.96132C16.691 5.957 16.7721 5.95508 16.8686 5.95508C16.9852 5.95508 17.0793 5.95844 17.1499 5.9642C17.2209 5.96996 17.2751 5.97956 17.3126 5.99396C17.3505 6.00788 17.3769 6.02804 17.3942 6.05396C17.411 6.07988 17.4254 6.1106 17.4379 6.14612L18.7958 10.5679L18.8083 10.6216L18.8207 10.5679L20.0659 6.14612C20.0745 6.11012 20.0879 6.07988 20.1062 6.05396C20.1254 6.02804 20.1532 6.00836 20.1907 5.99396C20.2281 5.98004 20.2795 5.96996 20.3438 5.9642C20.4086 5.95844 20.494 5.95508 20.6001 5.95508C20.6999 5.95508 20.7825 5.95844 20.8468 5.9642C20.9116 5.96996 20.963 5.97956 20.9999 5.99396C21.0379 6.00788 21.0647 6.02708 21.0815 6.05012C21.0983 6.07412 21.1108 6.10244 21.1195 6.13412L22.4649 10.5679L22.4774 10.6216L22.4831 10.5679L23.8223 6.14612C23.8305 6.11012 23.8444 6.07988 23.8627 6.05396C23.8819 6.02804 23.9107 6.00836 23.9505 5.99396C23.9903 5.98004 24.0441 5.96996 24.1127 5.9642C24.1819 5.95844 24.2707 5.95508 24.3791 5.95508C24.479 5.95508 24.5596 5.957 24.6201 5.96132C24.6806 5.96564 24.7281 5.97524 24.7636 5.99108C24.7991 6.00644 24.8241 6.02468 24.8385 6.04484C24.8529 6.06452 24.8606 6.09284 24.8606 6.12788L24.8625 6.12692Z" fill="#AA0000"/>
<path d="M27.2985 4.32876C27.2985 4.55916 27.2524 4.71612 27.1612 4.79916C27.0695 4.88364 26.901 4.92444 26.6558 4.92444C26.4105 4.92444 26.2487 4.88364 26.1594 4.80252C26.0702 4.72092 26.0255 4.56636 26.0255 4.3398C26.0255 4.11324 26.0711 3.95244 26.1623 3.86844C26.254 3.78444 26.4225 3.74316 26.6678 3.74316C26.913 3.74316 27.0748 3.78492 27.1641 3.86556C27.2534 3.94668 27.2985 4.10172 27.2985 4.32828V4.32876ZM27.177 11.5028C27.177 11.5355 27.1684 11.5619 27.1521 11.583C27.1353 11.6056 27.1084 11.6238 27.071 11.6401C27.0335 11.6555 26.9817 11.6675 26.915 11.6761C26.8482 11.6833 26.7633 11.6872 26.6591 11.6872C26.555 11.6872 26.4758 11.6828 26.4095 11.6761C26.3433 11.6675 26.29 11.6555 26.2506 11.6401C26.2113 11.6238 26.1839 11.6056 26.1695 11.583C26.1546 11.5619 26.1474 11.535 26.1474 11.5028V6.1398C26.1474 6.11148 26.1546 6.08604 26.1695 6.06252C26.1839 6.03852 26.2113 6.01884 26.2506 6.00252C26.29 5.9862 26.3433 5.97516 26.4095 5.96652C26.4762 5.95884 26.5598 5.95452 26.6591 5.95452C26.7585 5.95452 26.8482 5.95884 26.915 5.96652C26.9817 5.97516 27.0335 5.9862 27.071 6.00252C27.1084 6.01884 27.1353 6.03852 27.1521 6.06252C27.1689 6.08652 27.177 6.11196 27.177 6.1398V11.5028Z" fill="#AA0000"/>
<path d="M32.6189 10.0413C32.6189 10.3159 32.5651 10.5597 32.4595 10.7748C32.3529 10.9898 32.2017 11.1698 32.0059 11.3167C31.8096 11.464 31.5758 11.5754 31.3046 11.6508C31.0334 11.7261 30.7349 11.7636 30.4094 11.7636C30.2093 11.7636 30.0182 11.7496 29.8368 11.7189C29.6553 11.6882 29.4926 11.6512 29.3491 11.6056C29.2051 11.56 29.0827 11.5125 28.9829 11.4621C28.8825 11.4127 28.8101 11.3676 28.764 11.3282C28.7179 11.2888 28.6848 11.2332 28.6641 11.1621C28.643 11.0911 28.6329 10.9946 28.6329 10.8717C28.6329 10.7964 28.6373 10.733 28.6454 10.6816C28.6541 10.6308 28.6646 10.5885 28.6766 10.5578C28.6891 10.5256 28.7069 10.5026 28.7304 10.4887C28.7529 10.4752 28.7789 10.468 28.8081 10.468C28.8537 10.468 28.9219 10.4949 29.0112 10.5482C29.1009 10.602 29.2118 10.66 29.3429 10.7239C29.4739 10.7877 29.6294 10.8448 29.8089 10.8986C29.9885 10.9524 30.1949 10.9788 30.4286 10.9788C30.6038 10.9788 30.7617 10.9605 30.9038 10.925C31.0459 10.889 31.1688 10.8362 31.2729 10.7671C31.3771 10.6975 31.4573 10.6087 31.5139 10.5007C31.5701 10.3936 31.5984 10.2669 31.5984 10.1186C31.5984 9.97028 31.5576 9.84116 31.476 9.73748C31.3949 9.6338 31.2873 9.54308 31.1534 9.4634C31.02 9.38468 30.8697 9.31316 30.7032 9.2522C30.5361 9.19028 30.3643 9.12596 30.1867 9.05828C30.0096 8.99156 29.8363 8.9138 29.6673 8.82932C29.4984 8.7434 29.3472 8.63924 29.2137 8.51636C29.0803 8.39252 28.9728 8.24564 28.8912 8.07524C28.8096 7.90388 28.7693 7.69892 28.7693 7.46084C28.7693 7.25108 28.812 7.04948 28.8974 6.85652C28.9829 6.66356 29.1115 6.49508 29.2819 6.35012C29.4528 6.20564 29.6664 6.08852 29.9232 6.00116C30.1795 5.9138 30.479 5.87012 30.8213 5.87012C30.9715 5.87012 31.1213 5.88212 31.2715 5.90516C31.4217 5.92916 31.5571 5.95892 31.6785 5.99396C31.7995 6.02996 31.9027 6.06884 31.9881 6.10964C32.0736 6.15188 32.1384 6.18788 32.1821 6.21956C32.2262 6.25028 32.2555 6.2786 32.2704 6.3026C32.2848 6.3266 32.2953 6.35348 32.3011 6.38276C32.3069 6.413 32.3136 6.45044 32.3203 6.49412C32.3261 6.5378 32.3299 6.59156 32.3299 6.65492C32.3299 6.72308 32.3265 6.78164 32.3203 6.83252C32.3141 6.88196 32.3035 6.92276 32.2891 6.95444C32.2747 6.98612 32.2565 7.00964 32.2358 7.02356C32.2152 7.037 32.1921 7.0442 32.1672 7.0442C32.1297 7.0442 32.0755 7.02308 32.0045 6.9794C31.9339 6.93572 31.8422 6.88868 31.7299 6.83828C31.6171 6.78884 31.4851 6.74228 31.3329 6.6986C31.1808 6.65492 31.0065 6.63236 30.8107 6.63236C30.636 6.63236 30.4819 6.65204 30.348 6.689C30.2145 6.72692 30.1051 6.78068 30.0201 6.85124C29.9347 6.92036 29.8699 7.00244 29.8262 7.09796C29.7825 7.19396 29.7609 7.29668 29.7609 7.40804C29.7609 7.56308 29.8027 7.69268 29.8857 7.79828C29.9693 7.90388 30.0777 7.99604 30.2112 8.07572C30.3441 8.15444 30.4963 8.22644 30.6677 8.2898C30.839 8.35316 31.0128 8.4194 31.1899 8.4866C31.367 8.55428 31.5422 8.62964 31.715 8.71268C31.8883 8.79572 32.0414 8.897 32.1749 9.017C32.3078 9.13604 32.4153 9.27908 32.4974 9.44612C32.5785 9.61316 32.6193 9.81188 32.6193 10.0413H32.6189Z" fill="#AA0000"/>
<path d="M37.6319 10.0413C37.6319 10.3159 37.5781 10.5597 37.4725 10.7748C37.366 10.9898 37.2148 11.1698 37.0185 11.3167C36.8226 11.464 36.5889 11.5754 36.3172 11.6508C36.0465 11.7261 35.7479 11.7636 35.4225 11.7636C35.2218 11.7636 35.0313 11.7496 34.8493 11.7189C34.6684 11.6887 34.5052 11.6512 34.3612 11.6056C34.2172 11.56 34.0948 11.5125 33.9949 11.4621C33.8951 11.4127 33.8221 11.3676 33.7761 11.3282C33.7305 11.2888 33.6969 11.2332 33.6762 11.1621C33.6556 11.0911 33.645 10.9946 33.645 10.8717C33.645 10.7964 33.6489 10.733 33.6575 10.6816C33.6661 10.6308 33.6762 10.5885 33.6887 10.5578C33.7012 10.5256 33.7189 10.5026 33.7425 10.4887C33.7655 10.4752 33.7914 10.468 33.8207 10.468C33.8663 10.468 33.934 10.4949 34.0237 10.5482C34.1135 10.602 34.2244 10.66 34.3554 10.7239C34.4869 10.7872 34.642 10.8448 34.8215 10.8986C35.001 10.9524 35.2074 10.9788 35.4412 10.9788C35.6159 10.9788 35.7748 10.9605 35.9169 10.925C36.0585 10.889 36.1813 10.8362 36.2855 10.7671C36.3901 10.6975 36.4703 10.6087 36.5265 10.5007C36.5826 10.3936 36.6109 10.2669 36.6109 10.1186C36.6109 9.97028 36.5706 9.84116 36.4885 9.73748C36.4074 9.6338 36.2999 9.54308 36.1665 9.4634C36.033 9.38468 35.8823 9.31316 35.7157 9.2522C35.5487 9.19028 35.3764 9.12596 35.1993 9.05828C35.0221 8.99156 34.8489 8.9138 34.6799 8.82932C34.5109 8.7434 34.3597 8.63924 34.2263 8.51636C34.0924 8.39252 33.9849 8.24564 33.9037 8.07524C33.8221 7.90388 33.7818 7.69892 33.7818 7.46084C33.7818 7.25108 33.8245 7.04948 33.91 6.85652C33.9954 6.66356 34.1241 6.49508 34.2945 6.35012C34.4658 6.20564 34.6794 6.08852 34.9362 6.00116C35.1925 5.9138 35.4921 5.87012 35.8343 5.87012C35.9845 5.87012 36.1343 5.88212 36.285 5.90516C36.4353 5.92916 36.5706 5.95892 36.6916 5.99396C36.8125 6.02996 36.9157 6.06884 37.0012 6.10964C37.0866 6.15188 37.1514 6.18788 37.1951 6.21956C37.2393 6.25028 37.2681 6.2786 37.2829 6.3026C37.2973 6.3266 37.3079 6.35348 37.3141 6.38276C37.3204 6.413 37.3266 6.45044 37.3333 6.49412C37.3396 6.5378 37.3425 6.59156 37.3425 6.65492C37.3425 6.72308 37.3396 6.78164 37.3333 6.83252C37.3271 6.88196 37.3165 6.92276 37.3021 6.95444C37.2868 6.98612 37.27 7.00964 37.2484 7.02356C37.2277 7.037 37.2047 7.0442 37.1797 7.0442C37.1418 7.0442 37.0881 7.02308 37.0175 6.9794C36.9465 6.93572 36.8548 6.88868 36.7425 6.83828C36.6301 6.78884 36.4977 6.74228 36.3455 6.6986C36.1933 6.65492 36.0191 6.63236 35.8233 6.63236C35.6485 6.63236 35.494 6.65204 35.3605 6.689C35.2276 6.72692 35.1177 6.78068 35.0327 6.85124C34.9473 6.92036 34.8825 7.00244 34.8388 7.09796C34.7946 7.19396 34.773 7.29668 34.773 7.40804C34.773 7.56308 34.8148 7.69268 34.8983 7.79828C34.9818 7.90388 35.0903 7.99604 35.2237 8.07572C35.3572 8.15444 35.5093 8.22644 35.6802 8.2898C35.8511 8.35316 36.0253 8.4194 36.2029 8.4866C36.3805 8.55428 36.5553 8.62964 36.7281 8.71268C36.9013 8.79572 37.0545 8.897 37.1879 9.017C37.3209 9.13604 37.4284 9.27908 37.5105 9.44612C37.5916 9.61316 37.6324 9.81188 37.6324 10.0413H37.6319Z" fill="#AA0000"/>
<path d="M15.0946 16.5984C15.0946 15.6686 14.951 14.8622 14.6654 14.1773C14.3794 13.4928 14.004 12.8966 13.5389 12.3907C13.0738 11.8848 12.5434 11.4499 11.9477 11.087C11.3515 10.7232 10.7434 10.3992 10.1242 10.1131C9.50448 9.82704 8.8968 9.55632 8.30016 9.3C7.70448 9.0432 7.1712 8.77008 6.70032 8.47824C6.22992 8.1864 5.85408 7.85232 5.57424 7.47696C5.29392 7.10208 5.15376 6.65904 5.15376 6.14592C5.15376 5.8008 5.21616 5.47248 5.34144 5.1624C5.46624 4.85328 5.6568 4.58736 5.91312 4.36704C6.16896 4.14624 6.48768 3.97296 6.86976 3.84768C7.25088 3.72384 7.69728 3.66048 8.2104 3.66048C8.86608 3.66048 9.46752 3.74208 10.0162 3.90432C10.5643 4.06608 11.0467 4.24608 11.4643 4.44384C11.8814 4.64256 12.2328 4.82544 12.5194 4.99392C12.8054 5.16192 13.0138 5.24592 13.1448 5.24592C13.2758 5.24592 13.3805 5.20992 13.4578 5.13792C13.535 5.06688 13.5946 4.95408 13.6363 4.79904C13.6781 4.64496 13.7078 4.44912 13.7256 4.21008C13.7443 3.97248 13.753 3.68064 13.753 3.33552C13.753 3.02592 13.7472 2.76768 13.7352 2.55936C13.7232 2.35104 13.7026 2.1792 13.6728 2.04096C13.643 1.90416 13.607 1.79424 13.5653 1.7112C13.5235 1.62768 13.4434 1.5264 13.3243 1.40592C13.2053 1.28544 12.9614 1.13616 12.5928 0.95568C12.2232 0.7752 11.8008 0.61296 11.3246 0.468C10.8485 0.324 10.3368 0.21024 9.78912 0.12624C9.24096 0.04224 8.69328 0 8.14656 0C7.08672 0 6.084 0.13728 5.1384 0.41088C4.19184 0.684 3.37104 1.09824 2.67408 1.65216C1.97712 2.2056 1.42416 2.90304 1.01328 3.74208C0.6024 4.58208 0.39696 5.556 0.39696 6.66336C0.39696 7.62816 0.53952 8.45616 0.82512 9.1464C1.1112 9.8376 1.48272 10.4357 1.94112 10.9416C2.39952 11.448 2.92032 11.8829 3.50352 12.2462C4.08672 12.6091 4.68768 12.9341 5.3064 13.2192C5.92512 13.5053 6.52656 13.7765 7.10976 14.0323C7.69296 14.2886 8.2128 14.5627 8.67168 14.8546C9.1296 15.1464 9.5016 15.4795 9.7872 15.8544C10.0733 16.2298 10.2158 16.6795 10.2158 17.2037C10.2158 17.6578 10.1328 18.0691 9.96576 18.4397C9.7992 18.8088 9.55824 19.1189 9.2424 19.3694C8.92704 19.6205 8.54304 19.8149 8.0904 19.9517C7.63776 20.0885 7.12608 20.1576 6.55488 20.1576C5.6856 20.1576 4.92048 20.0606 4.25952 19.8638C3.59856 19.667 3.03024 19.4501 2.55408 19.212C2.07744 18.9749 1.68816 18.7579 1.38432 18.5611C1.08048 18.3653 0.84528 18.2664 0.67872 18.2664C0.55968 18.2664 0.45552 18.3005 0.36624 18.3653C0.27648 18.431 0.20496 18.5414 0.15168 18.695C0.0984 18.8501 0.05952 19.0526 0.036 19.3022C0.012 19.5533 0 19.8619 0 20.231C0 20.7778 0.03264 21.1973 0.0984 21.4891C0.16368 21.781 0.2736 22.0032 0.42864 22.1578C0.58368 22.3118 0.83664 22.4904 1.188 22.6925C1.53936 22.8941 1.97664 23.088 2.5008 23.2718C3.02496 23.4547 3.62928 23.6126 4.31472 23.7437C4.9992 23.8733 5.7408 23.9395 6.53856 23.9395C7.71744 23.9395 8.8248 23.7845 9.86112 23.4744C10.897 23.1643 11.8027 22.7035 12.5765 22.0906C13.3502 21.4762 13.9637 20.7115 14.4163 19.7942C14.869 18.8779 15.095 17.8114 15.095 16.5965V16.5984H15.0946ZM4.4304 6.828H3.41136V7.84464H2.39184V6.828H1.37568V5.81136H2.39184V4.7952H3.41136V5.81136H4.4304V6.828Z" fill="#AA0000"/>
</g>
<defs>
<clipPath id="clip0_540_6025">
<rect width="37.729" height="24" fill="white"/>
</clipPath>
</defs>
</svg>
