<svg width="22" height="22" viewBox="0 0 22 22" fill="none" xmlns="http://www.w3.org/2000/svg">
<g clip-path="url(#clip0_850_1180)">
<g filter="url(#filter0_f_850_1180)">
<path d="M7.10456 16.9382L7.36646 17.0934C8.46644 17.7462 9.72766 18.0915 11.0138 18.0921H11.0165C14.9664 18.0921 18.1809 14.8783 18.1825 10.9282C18.1832 9.01408 17.4385 7.21406 16.0856 5.86003C15.422 5.19226 14.6325 4.66274 13.7629 4.30214C12.8933 3.94153 11.9608 3.75699 11.0194 3.7592C7.06647 3.7592 3.85183 6.97267 3.85043 10.9225C3.84848 12.2713 4.22829 13.593 4.94596 14.735L5.11646 15.0059L4.39239 17.6493L7.10456 16.9382ZM2.32227 19.6972L3.54552 15.2309C2.79111 13.9239 2.39422 12.4411 2.39468 10.9219C2.39668 6.16951 6.26413 2.30322 11.0167 2.30322C13.3229 2.30439 15.4876 3.20189 17.1156 4.83106C18.7436 6.46023 19.6393 8.62575 19.6385 10.9288C19.6364 15.6809 15.7684 19.5479 11.0165 19.5479H11.0128C9.56994 19.5473 8.15216 19.1853 6.89281 18.4986L2.32227 19.6972Z" fill="#B3B3B3"/>
</g>
<path d="M2.23389 19.6083L3.45714 15.142C2.70143 13.8318 2.30448 12.3456 2.3063 10.833C2.3083 6.08064 6.17575 2.21436 10.9283 2.21436C13.2345 2.21553 15.3992 3.11302 17.0272 4.74219C18.6552 6.37137 19.551 8.53688 19.5501 10.84C19.548 15.592 15.68 19.459 10.9282 19.459H10.9244C9.48156 19.4584 8.06378 19.0964 6.80443 18.4098L2.23389 19.6083Z" fill="white"/>
<path d="M10.9306 3.67043C6.97777 3.67043 3.76313 6.8839 3.76173 10.8337C3.75978 12.1825 4.13959 13.5043 4.85725 14.6462L5.02775 14.9173L4.30369 17.5606L7.01597 16.8495L7.27787 17.0046C8.37785 17.6574 9.63908 18.0027 10.9253 18.0034H10.928C14.8778 18.0034 18.0924 14.7895 18.0939 10.8395C18.0969 9.89799 17.9131 8.96526 17.5532 8.0953C17.1932 7.22533 16.6643 6.43541 15.997 5.77126C15.3334 5.10347 14.5439 4.57395 13.6743 4.21334C12.8046 3.85273 11.8721 3.6682 10.9306 3.67043Z" fill="url(#paint0_linear_850_1180)"/>
<path fill-rule="evenodd" clip-rule="evenodd" d="M8.77309 7.22975C8.61161 6.87105 8.4417 6.86379 8.28831 6.85758L7.87536 6.85254C7.7317 6.85254 7.49827 6.90644 7.30094 7.12206C7.1036 7.33767 6.54688 7.85878 6.54688 8.91868C6.54688 9.97859 7.31887 11.0028 7.42644 11.1467C7.53401 11.2905 8.91675 13.5349 11.1065 14.3984C12.9262 15.1161 13.2965 14.9733 13.6917 14.9375C14.0868 14.9016 14.9662 14.4164 15.1456 13.9133C15.3251 13.4102 15.3252 12.9793 15.2714 12.8891C15.2176 12.799 15.0739 12.7455 14.8583 12.6377C14.6427 12.5299 13.5837 12.0088 13.3863 11.9368C13.1888 11.8649 13.0453 11.8291 12.9015 12.0447C12.7577 12.2603 12.3454 12.7454 12.2196 12.8891C12.0939 13.0329 11.9684 13.051 11.7528 12.9433C11.5372 12.8356 10.8434 12.608 10.0204 11.8741C9.37997 11.3031 8.94769 10.5979 8.82184 10.3824C8.69598 10.1669 8.80848 10.0502 8.91652 9.94285C9.01319 9.84629 9.1319 9.69126 9.23982 9.56552C9.34774 9.43979 9.38325 9.34991 9.45497 9.20636C9.52668 9.06281 9.49094 8.93673 9.43704 8.82904C9.38313 8.72135 8.96456 7.65582 8.77309 7.22975Z" fill="white"/>
</g>
<defs>
<filter id="filter0_f_850_1180" x="-1.71316" y="-1.73221" width="25.387" height="25.4649" filterUnits="userSpaceOnUse" color-interpolation-filters="sRGB">
<feFlood flood-opacity="0" result="BackgroundImageFix"/>
<feBlend mode="normal" in="SourceGraphic" in2="BackgroundImageFix" result="shape"/>
<feGaussianBlur stdDeviation="2.01771" result="effect1_foregroundBlur_850_1180"/>
</filter>
<linearGradient id="paint0_linear_850_1180" x1="10.7819" y1="4.53054" x2="10.8546" y2="16.7789" gradientUnits="userSpaceOnUse">
<stop stop-color="#57D163"/>
<stop offset="1" stop-color="#23B33A"/>
</linearGradient>
<clipPath id="clip0_850_1180">
<rect width="20.5321" height="20.5714" fill="white" transform="translate(0.714355 0.714355)"/>
</clipPath>
</defs>
</svg>
