<svg width="36" height="26" viewBox="0 0 36 26" fill="none" xmlns="http://www.w3.org/2000/svg">
<path d="M4.20301 21.8681V21.8874C4.35151 21.8874 4.50646 21.8874 4.65495 21.8874C5.08106 21.9003 5.36514 21.6622 5.36514 21.2439C5.36514 20.89 5.13917 20.6518 4.75825 20.6325C4.57102 20.6261 4.38379 20.6197 4.19656 20.6325V20.6518C4.23529 20.7033 4.25466 20.7934 4.25466 20.8964V21.6236C4.25466 21.7266 4.23529 21.8166 4.19656 21.8746L4.20301 21.8681ZM4.50646 20.832C4.59039 20.832 4.66786 20.832 4.75179 20.8385C4.97776 20.8513 5.1198 21.0122 5.1198 21.2503C5.1198 21.5271 4.94548 21.6944 4.68077 21.6815C4.62267 21.6815 4.56456 21.6815 4.50646 21.6815V20.832ZM6.16571 20.832V20.8127C6.04304 20.787 5.92683 20.7677 5.80416 20.7484V20.7677C5.8429 20.8256 5.86227 20.9221 5.86227 21.0251V21.7523C5.86227 21.8553 5.8429 21.9389 5.80416 21.9904V22.0097C5.92683 22.029 6.04304 22.0483 6.16571 22.0741V22.0548C6.12697 21.9904 6.1076 21.9003 6.1076 21.7973V21.0701C6.1076 20.9672 6.12697 20.8835 6.16571 20.832ZM7.30201 21.2568C7.41177 21.2889 7.51506 21.3597 7.599 21.4627H7.61836V21.1989C7.54735 21.1281 7.46341 21.083 7.35366 21.0508C6.934 20.9286 6.60473 21.1795 6.60473 21.6043C6.60473 21.9647 6.79842 22.2156 7.15351 22.3186C7.32783 22.3701 7.51506 22.3637 7.62482 22.2993V22.0612H7.60545C7.4957 22.132 7.33429 22.1577 7.19871 22.1191C6.99211 22.0612 6.86298 21.8746 6.86298 21.6365C6.86298 21.334 7.04376 21.1795 7.30846 21.2568H7.30201ZM8.62554 21.63C8.76758 21.6686 8.84505 21.7072 8.91607 21.7652H8.93544V21.5078C8.5868 21.4177 8.23171 21.3211 7.88307 21.2246V21.482L7.90244 21.4949C7.97346 21.4691 8.05093 21.4756 8.19297 21.5142L8.28981 21.5399V22.325C8.28981 22.428 8.27044 22.5117 8.23171 22.5567V22.576C8.35438 22.6082 8.47059 22.6404 8.59326 22.6725V22.6532C8.55452 22.5889 8.53515 22.4924 8.53515 22.3894V21.6043L8.63199 21.63H8.62554ZM9.63271 21.7008V21.6815C9.51004 21.6558 9.39383 21.6236 9.27116 21.5978V21.6172C9.3099 21.6815 9.32927 21.778 9.32927 21.8746V22.4602C9.32927 22.7433 9.48422 22.9428 9.76184 23.0072C10.1298 23.0908 10.3752 22.9042 10.3752 22.576V22.0998C10.3752 21.9968 10.3945 21.9132 10.4333 21.8617V21.8424C10.3171 21.8231 10.2073 21.8038 10.0911 21.778V21.7973C10.1298 21.8617 10.1492 21.9518 10.1492 22.0548V22.5503C10.1492 22.7498 10.0395 22.827 9.81349 22.7819C9.65208 22.7433 9.5746 22.6404 9.5746 22.4666V21.926C9.5746 21.8231 9.59397 21.7394 9.63271 21.6944V21.7008ZM10.8917 23.1552V23.1745C11.0079 23.1874 11.1176 23.2002 11.2339 23.2131V23.1938C11.1951 23.1359 11.1758 23.0458 11.1758 22.9428V22.3443C11.2855 22.5117 11.4017 22.679 11.5115 22.8463C11.5115 22.8463 11.5244 22.8463 11.5308 22.8463C11.6406 22.6983 11.7568 22.5438 11.8666 22.3894V22.9879C11.8666 23.0908 11.8472 23.1809 11.8085 23.2324V23.2517C11.9311 23.2517 12.0473 23.2517 12.17 23.2517V23.2324C12.1313 23.1809 12.1119 23.0908 12.1119 22.9879V22.2607C12.1119 22.1577 12.1313 22.0676 12.17 22.0097V21.9904C12.0732 21.9904 11.9763 21.9904 11.873 21.9904C11.7633 22.1513 11.6535 22.3057 11.5373 22.4602C11.4275 22.2929 11.3178 22.1255 11.2016 21.9582C11.0983 21.9454 10.9885 21.9389 10.8852 21.9196V21.9389C10.924 21.9968 10.9433 22.0934 10.9433 22.1899V22.9171C10.9433 23.0201 10.924 23.1037 10.8852 23.1552H10.8917ZM24.1915 22.8013C24.5079 22.7884 24.6822 22.6211 24.6822 22.3637C24.6822 22.0934 24.5079 21.9775 24.1915 21.9904C24.0172 21.9904 23.8429 21.9904 23.6686 21.9904V22.0097C23.7073 22.0676 23.7267 22.1577 23.7267 22.2607V22.9879C23.7267 23.0908 23.7073 23.1809 23.6686 23.2324V23.2517C23.7912 23.2517 23.9075 23.2582 24.0301 23.2582V23.2389C23.9914 23.1874 23.972 23.0908 23.972 22.9943V22.8206C24.043 22.8206 24.1141 22.8206 24.1851 22.8206L24.1915 22.8013ZM23.9785 22.1963C24.0495 22.1963 24.1205 22.1963 24.1851 22.1963C24.34 22.1963 24.4304 22.2671 24.4304 22.4023C24.4304 22.5245 24.3529 22.6018 24.2044 22.6018C24.127 22.6018 24.056 22.6018 23.9785 22.6018V22.1963ZM25.6894 23.078C25.825 23.0522 25.9605 23.0265 26.0961 22.9943V22.975C26.038 22.9364 25.9864 22.8463 25.9218 22.7369C25.7669 22.4409 25.6119 22.1448 25.4505 21.8488C25.4311 21.8488 25.4053 21.8553 25.3859 21.8617C25.2374 22.2092 25.0954 22.5567 24.9469 22.9042C24.8888 23.0394 24.8372 23.1423 24.7855 23.2002V23.2196C24.9082 23.2067 25.0308 23.1938 25.1535 23.1745V23.1552C25.1212 23.1037 25.1148 23.0008 25.16 22.8978C25.3278 22.872 25.5022 22.8463 25.67 22.8141C25.7152 22.9042 25.7152 23.0072 25.6829 23.0651V23.0844L25.6894 23.078ZM25.2504 22.679L25.4118 22.2864L25.5861 22.6275C25.4763 22.6468 25.3666 22.6661 25.2568 22.679H25.2504ZM26.8386 21.7394C26.9742 21.7008 27.142 21.7266 27.2453 21.8038H27.2647V21.5592C27.1549 21.4949 26.9742 21.4884 26.7999 21.5399C26.4512 21.6365 26.2511 21.9003 26.2511 22.2736C26.2511 22.6919 26.5739 22.93 27 22.8077C27.1098 22.7755 27.1937 22.7305 27.2647 22.6597V22.4023H27.2453C27.1614 22.5052 27.0581 22.576 26.9484 22.6082C26.6836 22.6854 26.5029 22.5181 26.5029 22.2092C26.5029 21.9775 26.632 21.8038 26.8386 21.7459V21.7394ZM28.2719 21.3726C28.4139 21.334 28.4914 21.334 28.5624 21.3597H28.5818V21.0895C28.2331 21.1795 27.878 21.2761 27.5294 21.3726V21.63H27.5488C27.6198 21.5657 27.6973 21.5271 27.8393 21.4884L27.9362 21.4627V22.2478C27.9362 22.3508 27.9168 22.4473 27.878 22.5117V22.531C28.0007 22.4988 28.1169 22.4666 28.2396 22.4344V22.4151C28.2009 22.3701 28.1815 22.2864 28.1815 22.1835V21.3983L28.2783 21.3726H28.2719ZM29.576 22.1448C29.8601 22.0869 30.028 21.8874 30.028 21.5978V21.038C30.028 20.935 30.0473 20.8449 30.0861 20.7806V20.7612C29.9699 20.7806 29.8601 20.7999 29.7439 20.8256V20.8449C29.7826 20.89 29.802 20.98 29.802 21.083V21.6365C29.802 21.8102 29.731 21.9003 29.5696 21.9325C29.3501 21.9775 29.2274 21.9003 29.2274 21.6944V21.2053C29.2274 21.1023 29.2468 21.0058 29.2855 20.9479V20.9286C29.1628 20.9543 29.0466 20.9865 28.924 21.0122V21.0315C28.9627 21.0766 28.9821 21.1667 28.9821 21.2632V21.7587C28.9821 22.0805 29.2209 22.2285 29.5825 22.1513L29.576 22.1448ZM30.538 21.926V21.9454C30.6542 21.9325 30.764 21.9196 30.8802 21.9132V21.8939C30.8415 21.8424 30.8221 21.7523 30.8221 21.6558V21.0573C30.9319 21.2053 31.0481 21.3533 31.1578 21.5078H31.1772C31.2869 21.3469 31.4032 21.186 31.5129 21.0315V21.63C31.5129 21.733 31.4935 21.8231 31.4548 21.8746V21.8939C31.5775 21.8939 31.6937 21.8939 31.8164 21.9003V21.881C31.7776 21.8231 31.7583 21.733 31.7583 21.63V20.9028C31.7583 20.7999 31.7776 20.7098 31.8164 20.6583V20.639C31.7195 20.639 31.6227 20.6325 31.5194 20.6325C31.4096 20.7934 31.2999 20.9543 31.1836 21.1152C31.0739 20.9607 30.9641 20.8063 30.8479 20.6583C30.7446 20.6647 30.6349 20.6776 30.5316 20.6905V20.7098C30.5703 20.7612 30.5897 20.8513 30.5897 20.9479V21.6751C30.5897 21.778 30.5703 21.8681 30.5316 21.926H30.538ZM15.7274 23.3804C15.6176 23.2002 15.5079 23.0201 15.3917 22.8399C15.2755 22.8141 15.1657 22.7948 15.056 22.7691V22.7884C15.0947 22.8527 15.1141 22.9493 15.1141 23.0458V23.773C15.1141 23.876 15.0947 23.9596 15.056 24.0047V24.024C15.1722 24.0497 15.2819 24.0755 15.3981 24.0948V24.0755C15.3594 24.0111 15.34 23.921 15.34 23.818V23.2196C15.4498 23.3997 15.566 23.5799 15.6758 23.7601H15.6951C15.8049 23.625 15.9211 23.4898 16.0308 23.3483V23.9467C16.0308 24.0497 16.0115 24.1334 15.9727 24.1849V24.2042C16.0954 24.2235 16.2116 24.2428 16.3343 24.2556V24.2363C16.2956 24.1784 16.2762 24.0819 16.2762 23.9854V23.2582C16.2762 23.1552 16.2956 23.0715 16.3343 23.0201V23.0008C16.2439 22.9879 16.1535 22.975 16.0631 22.9621C15.9534 23.1037 15.8372 23.2453 15.7274 23.3869V23.3804ZM17.2898 24.1398C17.2317 24.1398 17.1671 24.1334 17.109 24.1269V23.7794C17.1607 23.7794 17.2188 23.7859 17.2704 23.7923C17.3931 23.7987 17.4641 23.8116 17.5287 23.8309C17.5287 23.8309 17.5416 23.8309 17.5481 23.8309V23.5799C17.5481 23.5799 17.5352 23.5799 17.5287 23.5799C17.4641 23.5928 17.3931 23.5992 17.2704 23.5928C17.2188 23.5928 17.1607 23.5864 17.109 23.5799V23.271C17.1671 23.271 17.2317 23.2775 17.2898 23.2839C17.4319 23.2903 17.5287 23.3096 17.5997 23.3483C17.5997 23.3483 17.6126 23.3483 17.6191 23.3483V23.1037C17.3479 23.0973 17.0768 23.078 16.8056 23.0522V23.0715C16.8443 23.1295 16.8637 23.2196 16.8637 23.3225V24.0497C16.8637 24.1527 16.8443 24.2363 16.8056 24.2878V24.3071C17.0897 24.3329 17.3802 24.3522 17.6643 24.3586V24.0948H17.6449C17.5545 24.1398 17.4383 24.1527 17.2898 24.1462V24.1398ZM18.1033 23.9274C18.1033 24.217 18.3034 24.3972 18.6327 24.3779C18.9555 24.365 19.1686 24.1462 19.1686 23.8502V23.3161C19.1686 23.2131 19.1879 23.123 19.2267 23.0651V23.0458C19.1105 23.0587 18.9943 23.0651 18.878 23.0715V23.0908C18.9168 23.1423 18.9362 23.2324 18.9362 23.3354V23.876C18.9362 24.0497 18.8393 24.1398 18.6456 24.1527C18.4519 24.1591 18.3551 24.0755 18.3551 23.8953V23.3611C18.3551 23.2582 18.3745 23.1681 18.4132 23.1102V23.0908C18.2905 23.0908 18.1743 23.0908 18.0517 23.0908V23.1102C18.0904 23.1616 18.1098 23.2582 18.1098 23.3547V23.9146L18.1033 23.9274ZM20.0273 24.1849C19.9885 24.1334 19.9692 24.0497 19.9692 23.9467V23.3483C20.0789 23.4898 20.1951 23.625 20.3049 23.7666H20.3242C20.434 23.5864 20.5502 23.4062 20.66 23.226V23.8245C20.66 23.9274 20.6406 24.024 20.6019 24.0819V24.1012C20.7245 24.0755 20.8407 24.0497 20.957 24.024V24.0047C20.9182 23.9596 20.8989 23.8695 20.8989 23.773V23.0458C20.8989 22.9428 20.9182 22.8463 20.957 22.7884V22.7691C20.8537 22.7948 20.7504 22.8141 20.6471 22.8334C20.5373 23.0136 20.4275 23.1938 20.3113 23.374C20.2016 23.2324 20.0854 23.0973 19.9756 22.9493C19.8723 22.9621 19.7755 22.9814 19.6722 22.9943V23.0136C19.7109 23.0651 19.7303 23.1488 19.7303 23.2517V23.9789C19.7303 24.0819 19.7109 24.172 19.6722 24.2299V24.2492C19.7884 24.2363 19.8981 24.217 20.0143 24.1977V24.1784L20.0273 24.1849ZM31.8809 20.1435C32.165 20.1563 32.3587 20.1821 32.6428 20.2335V22.4988C29.4017 21.8939 26.1671 24.2492 22.9261 23.6443V21.379C24.9211 21.7523 26.8967 21.0058 28.8852 20.5167C28.8852 20.4717 28.8852 20.3494 28.8852 20.285C27.0452 20.7355 25.2052 21.4112 23.3651 21.2117V20.9994C23.3651 20.7612 23.0681 20.5682 22.3063 20.7806C21.7382 20.935 21.2217 21.2375 21.2217 21.6751V21.9647C19.1105 22.4988 16.896 22.4988 14.7848 21.9647V21.6751C14.7848 21.2375 14.2618 20.935 13.7001 20.7806C12.9383 20.5682 12.6413 20.7548 12.6413 20.9994V21.2117C10.8013 21.4112 8.96126 20.7355 7.12123 20.285C7.12123 20.3494 7.12769 20.4717 7.12123 20.5167C9.11621 21.0058 11.0918 21.7523 13.0803 21.379V23.6443C9.83931 24.2492 6.60473 21.8939 3.3637 22.4988V20.2335C3.64778 20.1821 3.84146 20.1563 4.12554 20.1435C4.06098 20.0598 4.00933 19.9826 3.97704 19.9182C3.66069 19.9375 3.44118 19.9761 3.12482 20.0534V22.7819C6.5208 21.9968 9.91033 24.616 13.2999 23.8309V23.4898C13.5129 23.5027 13.726 23.5606 13.9455 23.6893V24.4551C16.5732 25.3046 19.401 25.3046 22.0222 24.4551V23.6893C22.2482 23.5606 22.4548 23.5027 22.6679 23.4898V23.8309C26.0638 24.616 29.4534 21.9968 32.8429 22.7819V20.0534C32.5265 19.9826 32.307 19.944 31.9907 19.9182C31.9584 19.9761 31.9132 20.0598 31.8422 20.1435H31.8809ZM21.8221 24.3007C19.3364 25.0601 16.6765 25.0601 14.1908 24.3007V22.0354C16.6765 22.7948 19.3364 22.7948 21.8221 22.0354V24.3007ZM31.2999 2.45269C31.1707 2.31111 31.0287 2.1824 30.8802 2.06013L30.5832 2.36903C30.4928 2.2918 30.3895 2.21458 30.2798 2.14379L30.4993 1.77698C30.2991 1.64183 29.9763 1.44877 29.7568 1.33937L29.5373 1.70619C29.4211 1.64827 29.3113 1.59679 29.1951 1.55174L29.3307 1.13988C29.0918 1.04335 28.84 0.959686 28.5818 0.908203L28.4333 2.15023C28.9756 2.19527 29.8989 2.67792 30.0344 2.74228C30.5768 2.72941 30.7769 2.7101 31.3063 2.45912L31.2999 2.45269ZM24.34 13.4121C24.2755 13.3156 24.0753 13.2769 23.9914 13.3349C23.6363 13.573 24.2367 14.0878 24.6951 13.9012C24.4175 13.7017 24.3852 13.4829 24.34 13.4121ZM23.6363 15.7288C23.7138 15.8125 23.8881 15.6065 23.9204 15.4778C23.9462 15.3749 23.8364 15.3169 23.8364 15.3169C23.688 15.2204 23.5459 15.1818 23.4232 15.1818C23.1004 15.1818 22.9003 15.4263 22.9003 15.4263C23.1133 15.3942 23.4039 15.4843 23.6363 15.7224V15.7288ZM23.6815 16.8486C23.7202 16.8614 23.7331 16.8486 23.7331 16.8293C23.7461 16.7005 23.7138 16.4496 23.5847 16.4431C23.2812 16.4238 23.023 16.6684 22.9067 16.9193C23.094 16.8421 23.4684 16.7778 23.6815 16.8486ZM24.7468 14.7957C24.8049 14.7185 24.7145 14.6284 24.7145 14.6284C24.5466 14.4417 24.3723 14.3838 24.2238 14.3838C23.9849 14.3838 23.8171 14.5318 23.8171 14.5318C23.8171 14.5318 24.2174 14.6284 24.3788 14.9694C24.3917 14.9887 24.424 14.9887 24.4498 14.9823C24.6112 14.9373 24.6822 14.8729 24.7468 14.8021V14.7957ZM29.0466 20.4395C29.2016 20.2335 29.5308 19.8796 29.7181 19.8281C29.8924 19.7766 29.9505 19.1202 29.6923 19.1975C29.0079 19.4098 29.0531 20.4395 29.0531 20.4395H29.0466ZM29.7245 20.388C29.8407 20.2979 29.9828 20.2722 30.1829 20.2207C30.6542 20.092 30.6026 19.5514 30.1248 19.6994C29.873 19.7766 29.7439 20.1241 29.7245 20.388ZM29.3242 19.2554C29.4598 19.1975 29.434 18.6505 29.2274 18.747C28.698 18.998 28.8013 19.8603 28.8013 19.8603C28.995 19.5128 29.2532 19.2876 29.3178 19.2554H29.3242ZM26.109 12.3181C26.4383 12.5948 26.2898 12.9166 26.3802 12.672C26.3867 12.6463 26.5416 12.0414 26.3221 11.8805C26.0445 11.6681 25.8831 12.0864 26.109 12.3181ZM24.566 13.3542C24.8501 13.6502 25.2116 13.6051 25.4053 13.4764C25.4053 13.4764 25.0567 13.3863 24.8694 13.0968C24.7855 12.968 24.6693 12.9487 24.5918 13.0002C24.4756 13.071 24.5208 13.3156 24.5595 13.3542H24.566ZM27.1291 3.77193C26.3479 3.94569 26.2769 3.43086 26.2769 3.43086C26.2769 3.43086 25.9928 4.07439 26.5933 4.20954C26.9935 4.29963 27.3874 3.88777 28.104 4.17092C28.104 4.17092 27.9168 3.59818 27.1356 3.77193H27.1291ZM24.4369 13.367V13.3477C24.2819 12.8973 24.7532 12.6913 24.9727 13.0581C24.9727 13.0581 25.1148 12.9037 25.0954 12.7685C25.0825 12.6656 24.9986 12.5819 24.9986 12.5819C24.9986 12.3181 24.8759 12.2988 24.9792 12.1636C24.9792 12.1636 25.1471 12.1057 25.1664 12.0993C25.231 12.08 25.4957 12.0285 25.6506 12.1572C25.7798 12.2602 25.8572 12.3116 25.9347 12.2473C25.8121 11.9577 26.0057 11.6424 26.2704 11.7325C26.2769 11.6681 26.2575 11.5587 26.0251 11.5137C26.0251 11.5137 25.6184 11.4686 25.5603 11.4686C25.5603 11.4686 26.477 10.6835 26.6255 10.5484C26.6255 10.5484 26.4964 11.1855 26.8838 11.5587C26.8838 11.5587 27.3034 11.0439 27.4132 10.7672C27.5165 10.4904 27.4842 10.439 27.4842 10.439C27.5552 10.5097 28.3752 10.7414 28.6011 9.83403C28.7303 10.0786 28.5301 10.8122 27.6392 10.7478C27.6392 10.7478 27.5036 11.0889 27.4261 11.1726C28.0201 11.578 28.7755 12.273 28.8336 12.4597C28.8336 12.4597 28.7755 13.1225 27.6069 13.3284C27.3551 13.3735 26.845 13.5086 26.561 13.8111C26.1349 14.2744 26.0768 15.3363 25.6765 15.5036C25.6894 15.5036 25.9412 15.5744 26.3027 15.2976L26.4835 15.9476C26.4835 15.9476 25.825 15.8961 25.0631 16.2822C25.0631 16.2822 24.9469 15.9927 25.0502 15.7481C25.16 15.4907 25.2697 14.7828 24.863 14.7892C24.8307 14.9373 24.5143 15.1496 24.3529 15.0917C24.3336 15.1174 24.2626 15.2462 24.4498 15.51C24.4498 15.51 24.2174 15.3363 24.0237 15.4199C24.0495 15.5937 23.8106 15.9219 23.6234 15.8639C23.6105 15.8639 23.604 15.8639 23.604 15.8639C23.604 15.8639 23.4426 16.0699 23.6686 16.3659C23.7138 16.3916 23.7654 16.4367 23.7913 16.5139C23.83 16.6233 23.8623 16.8228 23.8235 16.9C23.8235 16.9451 23.9527 17.0674 24.1915 16.9901C24.1915 16.9901 24.1528 17.1575 23.9462 17.1961C23.9462 17.1961 24.1851 17.904 24.9663 17.4599C24.9663 17.4599 24.9082 17.7173 24.6693 17.8332C24.6693 17.8332 25.2697 18.2965 25.8443 17.7559C25.8443 17.7559 25.7669 17.994 25.5796 18.1614C25.5796 18.1614 26.5997 18.2129 26.8128 17.6144C26.8128 17.6144 26.8773 17.7752 26.8128 17.9233C26.8128 17.9233 27.0258 17.8332 27.1356 17.55C27.2453 17.2669 27.4003 17.1381 27.6069 17.1124C27.8393 17.0867 27.9684 16.752 27.9297 16.559C27.8845 16.3209 27.8006 15.1625 27.7941 14.9051C27.7941 14.6477 28.5882 14.6992 29.3307 14.4997C29.3307 14.4997 29.5696 14.1071 29.6277 13.7338C29.6858 13.3606 29.4017 12.9552 29.4017 12.9552C30.0473 13.4571 29.8214 13.9977 29.5631 14.6219C29.4663 14.8536 29.3372 15.1947 29.4275 15.3749C29.5179 15.5551 29.873 16.1342 29.6858 17.1188C29.6858 17.1188 29.9828 17.1961 30.2475 16.9387C30.3443 17.1317 30.5897 17.6144 30.8156 17.9104C30.8673 18.4317 30.5445 19.0301 30.3766 18.9465C30.1571 18.8371 29.7245 18.4831 29.434 18.7341C29.5115 18.8435 29.5244 19.0366 29.4986 19.1717C29.5502 19.146 29.6535 19.0945 29.7245 19.0945C29.9763 19.0945 30.0022 19.4356 29.9376 19.6801C30.0344 19.6093 30.1636 19.5771 30.2669 19.5771C30.609 19.5771 30.7704 19.9826 30.4089 20.2464C30.4928 20.3172 30.622 20.4073 30.7317 20.4202C31.0222 20.4652 31.358 19.8603 31.3967 19.693C31.3967 19.693 31.4225 19.8603 31.4096 20.3043C31.4096 20.3043 32.1198 20.0727 31.9197 18.94C31.9197 18.94 32.2102 18.9851 32.1973 19.6029C32.1973 19.6029 32.4362 19.3648 32.4555 18.8757C32.4684 18.4831 32.3651 18.4059 32.4232 18.1935C32.4232 18.1935 32.6428 18.5153 32.6105 18.9014C32.6105 18.9014 32.8364 18.6183 32.7654 18.2836C32.6944 17.949 32.5524 17.8396 32.4232 17.7109C32.1844 17.4728 32.1585 17.0223 32.2877 16.752C32.2877 16.752 32.1069 16.7971 31.9067 16.6941C31.7518 16.6104 31.4419 16.1342 31.4677 15.909C31.4871 15.6966 31.6808 15.3169 31.642 15.0531C32.0423 15.9412 32.5524 16.4946 33.3207 16.4946C34.089 16.4946 34.5732 15.6516 34.5732 14.9501C34.5732 13.9269 33.8888 12.9809 33.8888 12.2988C33.8888 11.9834 34.1212 11.5072 34.4053 11.5072C34.6894 11.5072 34.3085 12.1443 34.3472 12.5047C34.373 12.7299 34.4763 12.923 34.5796 13.0646C34.6055 12.9166 34.6829 12.7685 34.7733 12.6978C34.7539 13.2834 35.1349 13.6244 35.0832 14.268C35.4319 13.9462 35.6578 13.6888 35.5481 13.0774C35.6449 13.1096 35.774 13.1418 35.8838 13.1161C35.7095 12.9166 35.7353 12.228 35.6126 11.9384C35.7417 11.9255 35.929 11.8547 36 11.6745C35.4125 11.5523 35.49 10.9667 34.6829 10.9667C33.7855 10.9667 33.3207 11.5458 33.3207 12.3889C33.3207 13.2319 33.9727 13.9269 33.9727 14.8343C33.9727 15.5486 33.6822 15.8446 33.3529 15.8446C32.9075 15.8446 32.4813 15.407 32.1392 14.1972C31.9907 13.6244 31.7905 12.8651 31.4548 12.3438C31.3709 12.3309 31.0352 12.3245 30.6801 12.0156C30.6801 12.0156 30.6155 12.3245 30.3443 12.524C30.3443 12.524 29.4146 12.2602 29.6148 11.3142C29.6148 11.3142 29.66 12.0607 30.325 12.273C30.325 12.273 30.5251 11.9641 30.5897 11.6424C30.5897 11.6424 30.9577 12.1314 31.5194 12.1829C31.5194 12.1829 31.6937 11.9706 31.7001 11.5137C31.7001 11.5137 32.1004 11.7775 32.6428 11.6745C32.6428 11.6745 32.8364 11.3399 32.675 10.6706C33.127 10.8058 33.6822 10.6256 33.8888 10.381C33.8113 10.2652 33.4046 9.81472 33.1463 9.66671C33.1463 9.66671 34.6442 10.1301 35.1284 9.02318C35.1284 9.02318 34.4182 8.95882 33.7855 8.58557C33.7855 8.58557 35.2188 8.4633 35.8128 6.8609C35.8128 6.8609 35.1026 7.0604 34.3149 6.92525C34.3149 6.92525 35.9161 6.60349 35.8644 5.17484C35.8644 5.17484 35.6191 5.48374 34.7927 5.57383C34.7927 5.57383 36.1485 4.08726 35.49 2.89673C35.49 2.89673 35.4383 3.59174 34.6184 4.24171C34.6184 4.24171 35.4835 2.30467 34.4505 1.03047C34.4763 1.80272 34.0244 2.58783 33.6499 3.13483C33.6499 3.13483 33.7726 1.78985 33.1076 1.44234C33.1076 1.44234 33.1915 3.06404 31.8422 5.20702C31.2482 6.15301 30.906 6.64853 31.3644 7.53018C31.6033 7.98708 31.0416 8.92665 30.1506 8.93308C28.627 8.94595 30.3766 6.20449 30.3766 6.20449C30.3766 6.20449 30.4735 6.46834 30.6736 6.61636C30.6736 6.61636 30.906 6.23667 30.835 5.60601C30.7963 5.30998 30.7704 5.26493 30.7059 5.07831C30.7059 5.07831 30.8996 5.11692 31.0416 5.01395C31.0416 5.01395 30.9577 4.38973 30.764 4.08083C30.6349 3.86846 30.5509 3.80411 30.5122 3.7848C30.6607 3.82985 31.3644 3.99717 31.6743 3.61748C31.7712 3.50165 31.7841 3.30859 31.7712 3.30859C31.7712 3.30859 31.6356 3.41799 31.2611 3.41799C31.2611 3.41799 32.2618 3.19275 32.023 2.04726C31.9455 2.16953 31.7324 2.43982 31.3063 2.63288C30.7769 2.87098 30.622 2.89029 30.0022 2.9096C29.7374 2.76802 28.8852 2.33041 28.3558 2.31111C28.3171 2.31111 27.9684 2.31111 27.878 2.59426C27.878 2.59426 27.2583 2.42051 26.9742 2.89029C26.7676 3.23136 26.9225 3.59818 26.9225 3.59818C26.9613 3.35363 27.4455 3.15414 27.6844 3.45017C28.0588 3.99073 28.259 3.79124 28.5882 4.04865C28.7432 4.17092 28.8529 4.31894 28.8723 4.37686C28.5366 4.25458 27.891 4.58279 27.6133 4.48626C27.5811 4.47339 27.4648 4.44764 27.3164 4.3125C27.3164 4.3125 27.2389 4.76941 27.6585 4.98821C27.736 5.02682 28.0265 5.09118 28.2912 4.98821C28.3816 4.95604 28.4785 4.93673 28.5108 4.91742C28.9304 5.09761 29.3824 5.16197 29.6212 4.80802C29.7697 4.58922 29.7052 4.34468 29.6793 4.29963C29.6793 4.29963 29.8795 4.49913 29.7568 4.90455C29.6793 5.1491 29.3436 5.35503 28.8723 5.24563C28.6915 5.20702 28.4978 5.12336 28.4978 5.12336C28.1234 5.64462 27.4326 5.56096 26.7934 5.65749C26.7934 5.65749 26.4964 5.38077 26.1736 5.24563C25.2504 4.85951 25.076 4.11944 24.2174 3.91995C23.8945 3.84272 23.8881 3.83629 23.7783 3.75906C23.5847 3.62392 23.378 3.48878 23.1585 3.62392C23.1069 3.6561 23.1069 3.6561 23.0488 3.72045C23.2554 3.73332 23.4362 3.93925 23.3716 4.2031C23.3651 4.24171 23.3522 4.28676 23.3522 4.28676C23.6492 4.25458 23.9268 4.6407 23.5847 4.94317C23.6169 4.98178 23.675 5.04613 23.7783 5.07187C23.9914 5.12979 24.1528 4.83376 24.424 4.89168C24.4627 4.89812 24.5208 4.93673 24.5337 4.97534C24.5466 5.00752 24.6822 5.32929 24.5208 5.54809C24.4304 5.66392 24.4369 5.73471 24.4433 5.77333C24.8049 5.68323 24.9792 5.83768 25.005 6.08222C25.076 6.05648 25.1148 5.94064 25.1212 5.86986C25.1277 5.79907 25.1406 5.50948 25.1406 5.43225C25.2181 5.52878 25.5215 5.8956 25.7862 6.21093C25.7152 6.30746 25.6506 6.4233 25.599 6.552C25.7281 6.48765 25.8572 6.44904 25.9735 6.4233C25.9993 6.44904 26.0187 6.47478 26.038 6.50052C24.6758 7.36286 24.9211 8.61131 24.9211 8.61131C24.9211 8.61131 24.9921 8.19945 25.4763 8.05787C25.4763 8.05787 24.9469 8.72072 25.2956 9.66028C25.2956 9.66028 25.599 9.24198 26.2963 9.29346C26.2963 9.29346 25.741 9.8469 25.457 10.4196C25.1729 10.9924 24.6693 11.3592 24.5725 11.4557C24.4821 11.5523 24.0947 11.9191 24.0108 12.1572C23.8494 12.6398 23.8881 12.627 23.7202 12.8136C23.6492 12.8908 23.4491 13.1161 23.5911 13.3992C23.5911 13.3992 23.6428 13.5086 23.7654 13.5858C23.7396 13.3799 23.9333 13.1675 24.2109 13.2512C24.2561 13.2641 24.3465 13.2898 24.4304 13.3992L24.4369 13.367ZM29.0983 3.1284C28.6657 3.71401 28.259 3.07048 28.259 3.07048C28.4462 3.10266 28.4527 3.04474 28.6011 2.99969C28.5366 3.09622 28.6076 3.21849 28.7238 3.21849C28.8465 3.21849 28.911 3.07048 28.8271 2.98038C28.924 2.99969 28.9692 3.0383 29.1047 3.1284H29.0983ZM22.7195 4.63427C22.9003 4.34468 23.1198 4.29963 23.1844 4.24815C23.2425 4.20954 23.2489 4.17092 23.2618 4.0937C23.3006 3.91351 23.1844 3.80411 23.0617 3.80411C22.8293 3.80411 22.5323 4.26102 22.7131 4.63427H22.7195ZM24.6435 5.82481C24.4304 5.83768 24.3013 6.01143 24.1399 6.18519C25.0244 6.30746 24.934 5.8055 24.6435 5.82481ZM23.4943 4.76298C23.5459 4.74367 23.6105 4.69862 23.6105 4.57635C23.6105 4.35755 23.3587 4.38329 23.3587 4.38329C23.0488 4.38329 22.797 4.97534 23.1004 5.40651C23.1004 5.11692 23.2166 4.86594 23.4943 4.76941V4.76298ZM5.97848 2.74228C6.11406 2.67149 7.0373 2.18884 7.57963 2.15023L7.43113 0.908203C7.17934 0.959686 6.92755 1.04335 6.68221 1.13988L6.81779 1.55174C6.70158 1.59679 6.58537 1.64827 6.47561 1.70619L6.2561 1.33937C6.04304 1.44877 5.72023 1.64183 5.51363 1.77698L5.73314 2.14379C5.62339 2.21458 5.52654 2.2918 5.4297 2.36903L5.13271 2.06013C4.98422 2.1824 4.84218 2.31111 4.71306 2.45269C5.24247 2.7101 5.44261 2.72297 5.98494 2.73584L5.97848 2.74228ZM11.3113 13.9076C11.7697 14.0942 12.3702 13.5794 12.0151 13.3413C11.9311 13.2834 11.7245 13.322 11.6664 13.4185C11.6212 13.4893 11.589 13.7145 11.3113 13.9076ZM13.1062 15.4328C13.1062 15.4328 12.906 15.1882 12.5832 15.1882C12.4605 15.1882 12.325 15.2269 12.17 15.3234C12.17 15.3234 12.0603 15.3813 12.0861 15.4843C12.1248 15.613 12.2927 15.8189 12.3702 15.7352C12.5961 15.4971 12.8867 15.407 13.1062 15.4392V15.4328ZM13.0933 16.9258C12.977 16.6748 12.7188 16.4303 12.4154 16.4496C12.2862 16.456 12.2539 16.707 12.2669 16.8357C12.2669 16.855 12.2798 16.8679 12.3185 16.855C12.5251 16.7842 12.8996 16.855 13.0933 16.9258ZM11.5502 14.9823C11.5502 14.9823 11.6083 14.9952 11.6212 14.9694C11.7891 14.6284 12.1829 14.5318 12.1829 14.5318C12.1829 14.5318 12.0086 14.3838 11.7762 14.3838C11.6277 14.3838 11.4534 14.4417 11.2855 14.6284C11.2855 14.6284 11.1951 14.7249 11.2532 14.7957C11.3113 14.8665 11.3888 14.9308 11.5502 14.9759V14.9823ZM6.3142 19.1975C6.05595 19.1202 6.11406 19.7831 6.28838 19.8281C6.47561 19.8796 6.79842 20.24 6.95983 20.4395C6.95983 20.4395 7.00502 19.4034 6.32066 19.1975H6.3142ZM5.88164 19.6994C5.40387 19.5514 5.35222 20.092 5.82353 20.2207C6.02367 20.2657 6.16571 20.2915 6.28192 20.388C6.26255 20.1241 6.13343 19.7766 5.88164 19.6994ZM7.19871 19.8603C7.19871 19.8603 7.30846 18.998 6.7726 18.747C6.57245 18.6505 6.54663 19.1975 6.67575 19.2554C6.74677 19.2876 6.99857 19.5064 7.19225 19.8603H7.19871ZM9.67791 11.8805C9.45839 12.0414 9.61334 12.6527 9.6198 12.672C9.71019 12.9166 9.56815 12.5948 9.89096 12.3181C10.1105 12.0864 9.94907 11.6681 9.67791 11.8805ZM11.4082 13.0002C11.3372 12.9552 11.2145 12.968 11.1306 13.0968C10.9433 13.3799 10.5947 13.4764 10.5947 13.4764C10.7884 13.5987 11.1499 13.6502 11.434 13.3542C11.4727 13.3156 11.5179 13.0774 11.4017 13.0002H11.4082ZM7.9089 4.16449C8.62554 3.88133 9.01937 4.28676 9.41966 4.2031C10.0201 4.07439 9.73601 3.42442 9.73601 3.42442C9.73601 3.42442 9.66499 3.94569 8.88379 3.7655C8.10258 3.58531 7.91535 4.16449 7.91535 4.16449H7.9089ZM7.1858 2.98038C7.10187 3.07048 7.17288 3.21849 7.2891 3.21849C7.39885 3.21849 7.46987 3.09622 7.41176 2.99969C7.56026 3.04474 7.56671 3.10909 7.75395 3.06404C7.75395 3.06404 7.3472 3.71401 6.91463 3.1284C7.05022 3.0383 7.09541 2.99326 7.19225 2.98038H7.1858ZM12.9383 3.80411C12.8156 3.80411 12.6994 3.91351 12.7382 4.0937C12.7575 4.17092 12.764 4.20954 12.8156 4.24815C12.8867 4.29963 13.1062 4.34468 13.2805 4.63427C13.4613 4.25458 13.1643 3.80411 12.9319 3.80411H12.9383ZM11.8666 6.19162C11.7052 6.01787 11.576 5.84411 11.363 5.83124C11.0725 5.81194 10.9821 6.32033 11.8666 6.19162ZM12.9125 5.40651C13.2159 4.98178 12.9641 4.38329 12.6542 4.38329C12.6542 4.38329 12.4024 4.35755 12.4024 4.57635C12.4024 4.69862 12.467 4.74367 12.5187 4.76298C12.7963 4.85951 12.9125 5.11049 12.9125 5.40008V5.40651ZM23.4555 17.0094C23.0811 16.9451 22.6162 17.2154 22.6162 17.2154C22.8099 16.3916 23.3264 16.3016 23.4103 16.2694C23.4103 16.2694 23.3587 16.0956 23.3716 16.0055C23.3845 15.9154 23.4297 15.7996 23.4297 15.7996C23.0552 15.4585 22.5452 15.6001 22.5452 15.6001C22.5452 15.6001 22.9648 15.0145 23.378 15.0145C23.7912 15.0145 23.9268 15.1754 24.0172 15.2204C24.043 15.2333 24.0753 15.2075 24.1011 15.2075C24.1205 15.1239 24.1399 15.0467 24.1593 14.963C23.9204 14.6541 23.5007 14.6026 23.5007 14.6026C23.5007 14.6026 23.8623 14.2036 24.2303 14.1972C24.2561 14.1972 24.2884 14.1972 24.3207 14.1972C24.3207 14.1715 24.3336 14.1393 24.3336 14.1135C24.1076 14.0749 23.8945 13.9398 23.7848 13.7789L23.675 13.7145C23.5201 13.618 23.4491 13.4829 23.4297 13.4507C23.3458 13.2834 23.3393 13.1032 23.4039 12.9294C23.4555 12.8007 23.5395 12.7042 23.5847 12.6591C23.6492 12.5819 23.7073 12.479 23.7461 12.3502C23.7654 12.2795 23.7977 12.1894 23.8364 12.0671C23.9075 11.8483 24.1463 11.5909 24.3852 11.3463C24.4046 11.327 24.4369 11.2949 24.4369 11.2949C24.4562 11.2755 24.4756 11.2562 24.5079 11.2305V6.39112C24.4692 6.39112 24.4304 6.39112 24.3852 6.39112C24.2238 6.39112 23.8171 6.30746 23.8171 6.30746C23.8171 6.30746 24.0301 6.01787 24.0495 5.99213C24.1141 5.92134 24.1786 5.85055 24.2561 5.7862C24.2367 5.70254 24.2367 5.56739 24.3659 5.40008C24.4433 5.29067 24.3981 5.11692 24.3659 5.03326C24.3594 5.03326 24.3529 5.03326 24.3465 5.03326C24.2948 5.03326 24.2303 5.07187 24.1593 5.11048C24.0689 5.16197 23.9591 5.22632 23.83 5.22632C23.7912 5.22632 23.759 5.22632 23.7202 5.21345C23.6105 5.18127 23.5072 5.11692 23.4297 5.02039L23.4168 5.00752C23.3845 5.03326 23.3522 5.06544 23.3329 5.11048C23.165 5.34859 23.2489 5.7862 23.2489 5.7862C23.1456 5.73471 22.726 5.35503 22.7518 4.91099L22.6808 5.03326C22.6808 5.03326 22.4161 4.61496 22.4613 4.33181H13.5129C13.5581 4.60853 13.2934 5.03326 13.2934 5.03326L13.2224 4.91099C13.2547 5.35503 12.8286 5.73471 12.7253 5.7862C12.7253 5.7862 12.8156 5.34859 12.6413 5.11048C12.6155 5.07187 12.5897 5.0397 12.5574 5.00752L12.5445 5.02039C12.467 5.11692 12.3702 5.18771 12.2539 5.21345C12.2217 5.22632 12.1829 5.22632 12.1442 5.22632C12.0151 5.22632 11.9053 5.16197 11.8149 5.11048C11.7504 5.07187 11.6858 5.03326 11.6277 5.03326C11.6212 5.03326 11.6148 5.03326 11.6083 5.03326C11.5825 5.11048 11.5308 5.29067 11.6083 5.40008C11.7374 5.56739 11.7374 5.70254 11.7181 5.7862C11.7956 5.85055 11.8601 5.92777 11.9247 5.99213C11.944 6.01787 12.1571 6.30746 12.1571 6.30746C12.1571 6.30746 11.7504 6.39755 11.589 6.39112C11.5438 6.39112 11.505 6.39112 11.4663 6.39112V11.2305C11.4663 11.2305 11.5244 11.282 11.5373 11.2949C11.5373 11.2949 11.5696 11.327 11.589 11.3463C11.8343 11.5909 12.0667 11.8483 12.1377 12.0671C12.1765 12.1894 12.2023 12.2795 12.2281 12.3502C12.2669 12.4854 12.325 12.5884 12.3895 12.6591C12.4283 12.7042 12.5122 12.8007 12.5703 12.9294C12.6413 13.1032 12.6349 13.2834 12.5445 13.4507C12.5316 13.4829 12.4605 13.6116 12.2991 13.7145L12.1894 13.7789C12.0732 13.9462 11.8666 14.0749 11.6406 14.1135C11.6406 14.1393 11.6471 14.1715 11.6535 14.1972C11.6858 14.1972 11.7116 14.1972 11.7439 14.1972C12.1119 14.2036 12.4735 14.6026 12.4735 14.6026C12.4735 14.6026 12.0473 14.6541 11.8149 14.963C11.8343 15.0402 11.8537 15.1239 11.873 15.2075C11.9053 15.2075 11.9311 15.2397 11.957 15.2204C12.0473 15.1689 12.17 15.0145 12.5961 15.0145C13.0222 15.0145 13.429 15.6001 13.429 15.6001C13.429 15.6001 12.9189 15.4521 12.5445 15.7996C12.5445 15.7996 12.5897 15.9154 12.6026 16.0055C12.6155 16.0956 12.5638 16.2694 12.5638 16.2694C12.6542 16.3016 13.1707 16.3916 13.358 17.2154C13.358 17.2154 12.8996 16.9451 12.5187 17.0094C13.4032 18.8693 15.0237 20.6132 17.9742 21.2761C20.9182 20.6132 22.5387 18.8693 23.4297 17.0094H23.4555ZM11.7891 13.219C12.0667 13.1418 12.2604 13.3477 12.2346 13.5537C12.3637 13.4764 12.4089 13.367 12.4089 13.367C12.5509 13.0839 12.3508 12.8651 12.2798 12.7814C12.1055 12.5948 12.1506 12.6077 11.9892 12.125C11.9118 11.8869 11.5244 11.5201 11.4275 11.4236C11.3372 11.327 10.8271 10.9602 10.543 10.3875C10.259 9.81472 9.70373 9.26128 9.70373 9.26128C10.401 9.20337 10.7044 9.6281 10.7044 9.6281C11.0531 8.68854 10.5237 8.0257 10.5237 8.0257C11.0079 8.16727 11.0789 8.57914 11.0789 8.57914C11.0789 8.57914 11.3242 7.33068 9.96198 6.46834C9.98135 6.4426 10.0072 6.41686 10.0265 6.39112C10.1363 6.41686 10.2654 6.45547 10.401 6.51983C10.3494 6.38468 10.2848 6.27528 10.2138 6.17875C10.4785 5.86342 10.7819 5.49661 10.8594 5.40008C10.8594 5.4773 10.8723 5.76689 10.8788 5.83768C10.8852 5.90847 10.9175 6.0243 10.995 6.05005C11.0143 5.81194 11.1951 5.65105 11.5567 5.74115C11.5631 5.70254 11.5696 5.63175 11.4792 5.51591C11.3113 5.29711 11.4534 4.97534 11.4663 4.94317C11.4792 4.90455 11.5373 4.86594 11.576 4.85951C11.8407 4.79515 12.0086 5.09761 12.2217 5.0397C12.3185 5.01395 12.3831 4.9496 12.4154 4.91099C12.0732 4.60853 12.3572 4.22241 12.6478 4.25458C12.6478 4.25458 12.6349 4.2031 12.6284 4.17092C12.5638 3.90707 12.7446 3.70758 12.9512 3.68827C12.8996 3.62392 12.8931 3.62392 12.8415 3.59174C12.622 3.4566 12.4154 3.59174 12.2217 3.72689C12.1119 3.80411 12.1055 3.81054 11.7826 3.88777C10.924 4.08726 10.7496 4.82733 9.8264 5.21345C9.50359 5.34859 9.2066 5.62531 9.2066 5.62531C8.56743 5.52235 7.87661 5.60601 7.50215 5.09118C7.50215 5.09118 7.30847 5.17484 7.12769 5.21345C6.65638 5.32285 6.32066 5.11692 6.24319 4.87238C6.12052 4.46695 6.32066 4.26745 6.32066 4.26745C6.29484 4.3125 6.23027 4.55704 6.37877 4.77585C6.61765 5.13623 7.06958 5.07187 7.48924 4.88525C7.52152 4.89812 7.62482 4.92386 7.70875 4.95604C7.97346 5.05257 8.25753 4.99465 8.34146 4.95604C8.76112 4.73723 8.68364 4.28032 8.68364 4.28032C8.54161 4.41547 8.41894 4.44121 8.38666 4.45408C8.11549 4.55061 7.46341 4.22241 7.12769 4.34468C7.15351 4.28676 7.26327 4.13231 7.41176 4.01648C7.74103 3.7655 7.94118 3.95856 8.31564 3.41799C8.55452 3.12196 9.04519 3.32146 9.07748 3.566C9.07748 3.566 9.23888 3.20562 9.02582 2.85811C8.74175 2.39477 8.12195 2.56209 8.12195 2.56209C8.03156 2.27893 7.68293 2.27893 7.64419 2.27893C7.11478 2.29824 6.26255 2.73584 5.99785 2.87742C5.37805 2.86455 5.2231 2.83881 4.69369 2.6007C4.26758 2.40764 4.05452 2.13735 3.97704 2.01508C3.73816 3.16057 4.73888 3.38581 4.73888 3.38581C4.36442 3.38581 4.22884 3.27641 4.22884 3.27641C4.22238 3.27641 4.22884 3.46304 4.32568 3.58531C4.64204 3.97143 5.33931 3.79767 5.4878 3.75263C5.44907 3.77193 5.35868 3.83629 5.23601 4.04865C5.04878 4.35755 4.95839 4.98178 4.95839 4.98178C5.09397 5.08474 5.29412 5.04613 5.29412 5.04613C5.22956 5.23276 5.19727 5.27137 5.16499 5.57383C5.08752 6.21093 5.3264 6.58418 5.3264 6.58418C5.52654 6.4426 5.62339 6.17232 5.62339 6.17232C5.62339 6.17232 7.37303 8.92021 5.84935 8.9009C4.95194 8.88803 4.3967 7.95491 4.63558 7.498C5.09397 6.61636 4.75179 6.12083 4.15782 5.17484C2.81492 3.01256 2.89885 1.39729 2.89885 1.39729C2.23386 1.7448 2.35653 3.08979 2.35653 3.08979C1.98207 2.54922 1.53013 1.75767 1.55595 0.985427C0.516499 2.26606 1.38809 4.19667 1.38809 4.19667C0.568149 3.5467 0.516499 2.85168 0.516499 2.85168C-0.142037 4.04222 1.20732 5.52878 1.20732 5.52878C0.380918 5.43869 0.135581 5.12979 0.135581 5.12979C0.0839311 6.55844 1.68508 6.88021 1.68508 6.88021C0.890961 7.01535 0.187231 6.81585 0.187231 6.81585C0.781205 8.41825 2.21449 8.54053 2.21449 8.54053C1.57532 8.91378 0.871592 8.97813 0.871592 8.97813C1.35581 10.085 2.85366 9.62166 2.85366 9.62166C2.59541 9.76968 2.18867 10.2266 2.11119 10.336C2.31779 10.5741 2.87303 10.7607 3.32496 10.6256C3.16356 11.2949 3.35725 11.6295 3.35725 11.6295C3.89311 11.7325 4.29986 11.4686 4.29986 11.4686C4.29986 11.9255 4.48063 12.1379 4.48063 12.1379C5.04878 12.0864 5.41033 11.5973 5.41033 11.5973C5.47489 11.9191 5.67504 12.228 5.67504 12.228C6.34003 12.0156 6.38522 11.2691 6.38522 11.2691C6.58537 12.2151 5.65567 12.479 5.65567 12.479C5.39096 12.2795 5.31994 11.9706 5.31994 11.9706C4.96485 12.2795 4.62912 12.2859 4.54519 12.2988C4.20947 12.82 4.00933 13.5858 3.86083 14.1521C3.5122 15.3556 3.09254 15.7996 2.64706 15.7996C2.31133 15.7996 2.02726 15.5036 2.02726 14.7892C2.02726 13.8819 2.67934 13.1868 2.67934 12.3438C2.67934 11.5008 2.22095 10.9216 1.31707 10.9216C0.510043 10.9216 0.587518 11.5072 0 11.6295C0.0710187 11.8097 0.251793 11.8805 0.387374 11.8933C0.264706 12.1829 0.284075 12.8715 0.116212 13.071C0.219512 13.0968 0.355093 13.071 0.451937 13.0324C0.342181 13.6438 0.574605 13.9012 0.916786 14.2229C0.865136 13.5794 1.2396 13.2448 1.22669 12.6527C1.31707 12.7235 1.401 12.8715 1.42037 13.0195C1.53013 12.8779 1.63343 12.6849 1.6528 12.4597C1.69154 12.0993 1.31062 11.4622 1.59469 11.4622C1.87877 11.4622 2.11119 11.9384 2.11119 12.2537C2.11119 12.9359 1.42683 13.8819 1.42683 14.9051C1.42683 15.613 1.87877 16.4496 2.67934 16.4496C3.47991 16.4496 3.95768 15.8961 4.35796 15.008C4.31923 15.2719 4.51291 15.6516 4.53228 15.8639C4.55811 16.0892 4.24821 16.5718 4.09326 16.6491C3.89311 16.7585 3.71234 16.707 3.71234 16.707C3.84792 16.9773 3.82209 17.4277 3.57676 17.6658C3.44763 17.7946 3.3056 17.904 3.23458 18.2386C3.16356 18.5732 3.38953 18.8564 3.38953 18.8564C3.35725 18.4703 3.57676 18.1485 3.57676 18.1485C3.63486 18.3609 3.53156 18.4445 3.54448 18.8306C3.56384 19.3197 3.80273 19.5578 3.80273 19.5578C3.78981 18.9465 4.08034 18.895 4.08034 18.895C3.8802 20.0276 4.59039 20.2593 4.59039 20.2593C4.57748 19.8217 4.6033 19.6479 4.6033 19.6479C4.64204 19.8153 4.97776 20.4202 5.26829 20.3751C5.37159 20.3623 5.50717 20.2722 5.5911 20.2014C5.22956 19.944 5.39096 19.5321 5.73314 19.5321C5.83644 19.5321 5.96557 19.5643 6.06241 19.6351C5.99785 19.3905 6.03013 19.0494 6.27547 19.0494C6.34649 19.0494 6.44978 19.1009 6.50143 19.1267C6.47561 18.9915 6.48207 18.8049 6.566 18.6891C6.27547 18.4381 5.8429 18.792 5.62339 18.9014C5.45552 18.9851 5.13271 18.3866 5.18436 17.8653C5.41679 17.5758 5.66212 17.0931 5.75251 16.8936C6.01722 17.151 6.3142 17.0738 6.3142 17.0738C6.13343 16.0892 6.48207 15.51 6.57245 15.3298C6.66284 15.1496 6.53372 14.815 6.43687 14.5769C6.17862 13.9527 5.95265 13.4121 6.59828 12.9101C6.59828 12.9101 6.3142 13.3156 6.37231 13.6888C6.43042 14.0621 6.6693 14.4546 6.6693 14.4546C7.40531 14.6541 8.20588 14.6026 8.20588 14.86C8.20588 15.1174 8.11549 16.2758 8.0703 16.5139C8.03156 16.707 8.16714 17.0352 8.39311 17.0674C8.60617 17.0931 8.76112 17.2218 8.86442 17.505C8.97417 17.7881 9.18723 17.8782 9.18723 17.8782C9.11621 17.7302 9.18723 17.5693 9.18723 17.5693C9.40029 18.1678 10.4204 18.1163 10.4204 18.1163C10.2331 17.9554 10.1557 17.7109 10.1557 17.7109C10.7303 18.2515 11.3307 17.7881 11.3307 17.7881C11.0918 17.6658 11.0337 17.4149 11.0337 17.4149C11.8085 17.8589 12.0538 17.151 12.0538 17.151C11.8472 17.1124 11.8085 16.9451 11.8085 16.9451C12.0473 17.0223 12.17 16.9 12.1765 16.855C12.1377 16.7778 12.17 16.5783 12.2088 16.4689C12.2346 16.3916 12.2862 16.3466 12.3314 16.3209C12.5574 16.0313 12.4024 15.8253 12.396 15.8189C12.3895 15.8125 12.3831 15.8125 12.3766 15.8189C12.1894 15.8768 11.9505 15.5551 11.9763 15.3749C11.7826 15.2976 11.5502 15.465 11.5502 15.465C11.7374 15.2011 11.6664 15.0724 11.6471 15.0467C11.4857 15.1046 11.1693 14.8922 11.137 14.7442C10.7303 14.7442 10.8336 15.4457 10.9498 15.7031C11.0595 15.9476 10.9369 16.2372 10.9369 16.2372C10.1686 15.8446 9.5165 15.9026 9.5165 15.9026L9.69727 15.2526C10.0588 15.5293 10.3171 15.4585 10.3235 15.4585C9.92324 15.2912 9.87159 14.2294 9.43902 13.766C9.15495 13.4636 8.64491 13.3284 8.39311 13.2834C7.23099 13.0774 7.16643 12.4146 7.16643 12.4146C7.23099 12.228 7.97991 11.533 8.57389 11.1275C8.49641 11.0374 8.36083 10.7028 8.36083 10.7028C7.46987 10.7672 7.26973 10.0335 7.39885 9.78898C7.62482 10.6964 8.44476 10.4647 8.51578 10.3939C8.51578 10.3939 8.4835 10.439 8.5868 10.7221C8.69656 10.9988 9.11621 11.5137 9.11621 11.5137C9.50359 11.134 9.37446 10.5033 9.37446 10.5033C9.52295 10.6384 10.4397 11.4236 10.4397 11.4236C10.3816 11.4236 9.97489 11.4686 9.97489 11.4686C9.74247 11.5137 9.71664 11.6231 9.72956 11.6874C9.99426 11.6038 10.1944 11.9126 10.0653 12.2022C10.1428 12.2666 10.2267 12.2151 10.3494 12.1121C10.5043 11.9834 10.769 12.0349 10.8336 12.0542C10.8529 12.0542 11.0208 12.1186 11.0208 12.1186C11.1241 12.2537 10.995 12.273 11.0014 12.5369C11.0014 12.5369 10.9175 12.6205 10.9046 12.7235C10.8852 12.8586 11.0208 13.0131 11.0273 13.0131C11.2468 12.6527 11.7245 12.8522 11.5631 13.3027V13.322C11.6471 13.2126 11.7374 13.1868 11.7826 13.174L11.7891 13.219ZM16.9864 11.7518C16.9864 11.6488 17.0832 11.4107 17.3802 11.4879C17.2898 11.829 17.1284 11.6359 16.9864 11.7518ZM14.9268 11.3849C15.2367 11.3849 15.2755 11.6488 15.2496 11.7453C15.1528 11.6295 14.9397 11.8032 14.9268 11.3849ZM16.3472 11.7904C16.3085 11.7003 16.3472 11.681 16.3472 11.681C16.3472 11.681 16.4505 11.7453 16.5151 11.726C16.6765 11.6745 16.8443 11.726 16.8443 11.726C16.8443 11.7518 16.8314 11.7646 16.8314 11.7646C16.7281 11.7646 16.6442 11.8097 16.6184 11.8547C16.5732 11.9641 16.5538 11.9384 16.5151 11.9448C16.4828 11.9448 16.4699 11.9641 16.4699 12.0349C16.4699 12.125 16.444 12.1701 16.3924 12.1701C16.3924 12.1701 16.3795 11.874 16.3407 11.7904H16.3472ZM18.3293 10.3746H17.6901V9.89838C17.6901 9.73106 17.7999 9.538 18.0129 9.538C18.226 9.538 18.3357 9.73106 18.3357 9.89838V10.3746H18.3293ZM17.0251 7.53661L17.1284 7.99352C17.264 7.97421 17.3996 7.95491 17.5352 7.94847V7.48513C17.7999 7.47226 18.2066 7.47226 18.4713 7.48513V7.94847C18.6133 7.95491 18.7489 7.97421 18.878 7.99352L18.9813 7.53661C19.259 7.57522 19.543 7.64601 19.8077 7.73611L19.4849 8.73359L19.175 9.06822C18.3874 8.79794 17.5997 8.79794 16.8121 9.06822L16.5022 8.73359L16.1793 7.73611C16.444 7.64601 16.7217 7.57522 17.0057 7.53661H17.0251ZM14.8881 11.2434C14.9656 11.2241 15.127 11.282 15.2948 11.4043C15.3336 11.3528 15.34 11.3077 15.3465 11.2627C15.3594 11.1211 15.1334 11.0117 15.1334 11.0117C15.2561 10.9216 15.4562 10.8959 15.6306 11.0632C15.7016 10.8894 15.4175 10.6899 15.3529 10.6899C15.3529 10.6899 15.6047 10.4969 15.8372 10.6578C15.9082 10.7092 15.9792 10.8186 15.9792 10.8186C15.9469 10.632 16.0567 10.439 16.2504 10.3746C16.2504 10.3746 16.2052 10.5612 16.3214 10.7157C16.4118 10.8315 16.4699 10.8894 16.4699 10.8894C16.4699 10.8894 16.5215 10.6384 16.6829 10.6256C16.8314 10.6127 16.9089 10.6706 16.9089 10.6706C16.9089 10.6706 16.7346 10.8766 16.8702 11.1661C16.8702 11.1661 16.9864 10.9087 17.3221 10.9731C17.2769 11.0567 17.193 11.179 17.1671 11.3656C17.3156 11.3399 17.4641 11.3528 17.5287 11.4107C17.5287 11.4557 17.4835 11.6681 17.4319 11.726C17.2769 11.8933 17.0897 11.7968 17.0638 11.9255C17.0638 11.9255 17.0638 12.0735 17.0057 12.1636C16.9476 12.2537 16.6894 12.1894 16.6894 12.1894C16.6765 12.228 16.6894 12.2602 16.7088 12.2923C16.7991 12.3181 16.8572 12.3502 16.8831 12.4017C16.8831 12.4146 16.8895 12.4275 16.8895 12.4597C16.8895 12.5819 16.7088 12.6849 16.6313 12.6849C16.4505 12.6849 16.2956 12.6141 16.2956 12.5047C16.2956 12.3953 16.5344 12.4597 16.5086 12.3374C16.4957 12.2795 16.4311 12.2795 16.4311 12.2795C16.373 12.4082 15.9792 12.3824 15.9792 12.2923C15.9792 12.2602 15.9921 11.8097 16.0567 11.6424C16.0567 11.6424 15.9792 11.6745 15.934 11.7003C15.8759 11.7325 15.5337 11.6359 15.4885 11.726C15.4885 11.726 15.7403 11.7646 15.7726 11.9255C15.7726 11.9577 15.8501 11.9448 15.863 11.9513C15.8694 11.9513 15.934 12.0414 15.8759 12.2859C15.8242 12.4983 16.0825 12.376 16.0825 12.4918C16.0825 12.6077 15.8372 12.6785 15.7468 12.6785C15.5466 12.6785 15.3465 12.3696 15.6693 12.2859C15.6951 12.2602 15.7016 12.2215 15.6887 12.1829C15.6887 12.1829 15.424 12.2473 15.3723 12.1572C15.3207 12.0671 15.3271 11.9899 15.3013 11.9384C15.2755 11.8869 15.1076 11.8676 15.0301 11.8032C14.7525 11.5587 14.8752 11.282 14.901 11.2369L14.8881 11.2434ZM16.1729 13.1611C16.3214 13.1611 16.5086 12.9037 16.4892 12.7492C16.4892 12.7492 16.5473 12.7879 16.6119 12.7814C16.3795 13.4121 15.9663 13.4185 15.7339 12.7814C15.7984 12.7814 15.8565 12.7492 15.8565 12.7492C15.8372 12.8973 16.0244 13.1611 16.1729 13.1611ZM16.1729 12.7364C16.5022 12.7364 16.2956 13.0195 16.1729 13.0195C16.0438 13.0195 15.8501 12.7364 16.1729 12.7364ZM14.8364 11.9834C14.9204 11.9448 15.056 11.9834 15.1141 12.0349C15.1722 12.0864 15.1593 12.2473 15.2948 12.3245C15.2948 12.3245 15.2884 12.6141 15.495 12.7492C15.6951 12.9487 15.8436 13.3992 16.1729 13.3992C16.5022 13.3992 16.6506 12.9938 16.825 12.7621C17.0832 12.6527 17.0445 12.3245 17.0445 12.3245C17.1607 12.2473 17.1671 12.1057 17.1801 12.0414C17.1801 12.0414 17.3092 11.9899 17.3415 11.977C17.3737 11.9641 17.3996 11.9899 17.4189 12.0156C17.4512 12.0478 17.5287 12.1186 17.6191 12.1701C17.5674 12.2537 17.4383 12.2602 17.3027 12.228C17.3286 12.421 17.4448 12.8393 17.5868 12.9745C17.5416 13.0131 17.4254 13.0131 17.2963 12.9616C17.5416 13.1161 17.4964 13.7403 17.264 14.0299C17.2704 13.8239 17.2253 13.5022 16.9864 13.3992C17.2963 13.8175 16.9541 14.4868 16.5022 14.5704C16.5732 14.4546 16.7669 14.0621 16.4505 13.6631C16.8831 14.4224 15.8824 14.5125 16.1406 15.0981C16.005 15.0531 15.9146 14.9952 15.9146 14.9952C15.7145 14.3903 16.0373 13.766 16.0373 13.766C16.0373 13.766 15.5531 14.2937 15.7661 14.8922C15.4369 14.5962 15.4885 14.1135 15.708 13.8368C15.4627 13.914 15.3788 14.2229 15.3852 14.5125C14.8494 13.8626 15.2755 13.4314 15.4627 13.2576C15.269 13.2769 15.0689 13.5408 14.9591 13.7532C14.7202 13.3477 14.8235 13.0067 15.0753 12.8136C14.9075 12.8779 14.7525 12.8715 14.7009 12.82C15.0043 12.4532 15.0043 12.2795 15.0172 12.1894C14.8816 12.2022 14.8042 12.1121 14.759 12.0156C14.7848 12.0027 14.7912 11.9963 14.8235 11.9834H14.8364ZM14.5395 12.1765C14.5395 12.2537 14.4943 12.3567 14.4039 12.3567C14.3716 12.3567 14.378 12.3567 14.3651 12.3309C14.3393 12.2473 14.1456 12.1636 14.0681 12.1572C14.236 12.0542 14.4362 12.0864 14.533 12.1765H14.5395ZM14.2812 12.4661C14.236 12.5176 14.1779 12.524 14.1069 12.5176C14.0488 12.4082 13.9003 12.3438 13.7453 12.3889C13.9584 12.1121 14.4039 12.3374 14.2747 12.4661H14.2812ZM13.6227 12.7492C13.6743 12.524 13.9003 12.5176 14.0681 12.6141C14.1069 12.6591 14.1004 12.7171 14.0681 12.7557C14.0488 12.775 13.9584 12.7879 13.8938 12.7557C13.8164 12.6913 13.7001 12.6785 13.6291 12.7557L13.6227 12.7492ZM14.3716 13.9205C14.4232 13.9462 14.4813 13.9398 14.533 13.9205C14.3329 13.7918 14.2425 13.3606 14.1973 13.174C14.1521 12.9938 14.0359 13.0646 13.9326 12.8715C14.1327 12.8973 14.2296 12.7621 14.1908 12.627C14.2747 12.6141 14.3716 12.5626 14.4039 12.4661C14.533 12.4661 14.6234 12.3631 14.6428 12.2344C14.6815 12.3116 14.7396 12.4468 14.7267 12.4725C14.6492 12.6012 14.5459 12.7428 14.4749 12.8265C14.4749 12.8265 14.5524 12.9616 14.7073 12.9616C14.5717 13.2255 14.6234 13.7274 14.9397 13.9977C14.9656 14.1972 15.0753 14.4804 15.3659 14.6863C15.3917 14.7056 15.424 14.712 15.3981 14.7635C15.269 14.9887 15.0947 14.6477 14.8558 14.519C14.7396 14.461 14.675 14.416 14.5717 14.2744C14.6492 14.3002 14.6944 14.2873 14.7783 14.2551C14.6492 14.2551 14.4491 14.0685 14.3716 13.9076V13.9205ZM14.83 16.2436C14.83 16.2436 14.8235 16.3402 14.83 16.3852C14.7977 16.4946 14.7783 16.5976 14.83 16.6941C14.7331 16.6748 14.5524 16.4882 14.6169 16.2887C14.6879 16.0828 14.8364 16.2179 14.83 16.2436ZM15.1593 16.456C15.1334 16.5461 15.1205 16.6555 15.1593 16.752C14.9268 16.6877 14.83 16.1535 15.0624 16.1407C15.1076 16.1407 15.1593 16.1793 15.1851 16.2179C15.1593 16.2887 15.1528 16.3852 15.1593 16.4496V16.456ZM15.3852 16.6684C15.2174 16.559 15.2109 16.1857 15.3852 16.1857C15.5337 16.1857 15.5789 16.3273 15.5337 16.3981C15.3852 16.5461 15.3852 16.6491 15.3917 16.6684H15.3852ZM17.2575 16.2822C17.2575 16.2822 17.1478 16.0699 17.1607 15.9927C17.1801 15.9026 17.3608 15.7417 17.406 15.8961C17.2704 15.9669 17.2059 16.1085 17.2575 16.2822ZM17.4964 16.3466C17.4964 16.3466 17.4835 16.4238 17.4835 16.4496C17.4641 16.4367 17.4383 16.4174 17.4254 16.3916C17.2188 16.0699 17.477 15.9605 17.5287 15.9605C17.5545 15.9605 17.5803 15.9862 17.5933 16.0248C17.5222 16.0828 17.4706 16.2115 17.5029 16.3466H17.4964ZM17.4577 15.7803C17.49 15.6387 17.6836 15.7481 17.8257 15.9412C17.8644 16.0441 17.8386 15.9412 17.6901 15.9798C17.6578 15.9026 17.5868 15.8511 17.5093 15.8639C17.4964 15.8318 17.4835 15.806 17.4641 15.7867L17.4577 15.7803ZM17.8838 16.2887C17.8838 16.2887 17.7224 16.4624 17.7418 16.5654C17.7095 16.5525 17.5029 16.3209 17.632 16.1278C17.6836 16.0506 17.7999 16.0699 17.8386 16.1021C17.8644 16.1278 17.9225 16.205 17.8838 16.2822V16.2887ZM19.5624 15.7481C19.33 15.8704 19.104 16.0248 18.8845 16.1793C18.7812 16.2501 18.6844 16.4753 18.4713 16.4624C18.2582 16.4496 18.1227 16.4174 17.9032 16.4753L17.9677 16.3402C18.0194 16.2308 17.9806 16.1021 17.8967 16.0313C18.2453 16.057 18.4261 15.9026 18.7554 15.658C18.878 15.5615 18.9362 15.4843 18.9426 15.4392C18.9749 15.2976 18.8006 15.2783 18.6714 14.7249C18.9168 14.6798 19.0976 14.6541 19.4268 14.6992C19.556 14.8086 19.5108 14.7635 19.627 14.8729C19.6334 14.9115 19.6399 14.9501 19.6528 14.9952C19.6915 15.1882 19.8852 15.2976 19.8917 15.4006C19.9175 15.6838 19.7561 15.6194 19.7044 15.6387C19.6593 15.6516 19.6011 15.7159 19.5495 15.7417L19.5624 15.7481ZM19.8529 15.9026C19.8529 15.9026 19.9304 15.8639 19.9692 15.9154C20.0466 16.0055 20.0079 15.9412 19.924 16.0184C19.8529 16.0828 19.8142 16.1664 19.7948 16.2436C19.7819 16.2243 19.6851 16.1085 19.8594 15.9026H19.8529ZM19.9046 16.5847C19.9046 16.5847 19.8013 16.2565 19.9885 16.0892C20.0595 16.0248 20.1435 16.1085 20.1628 16.205C20.0983 16.2436 20.0337 16.3209 20.0079 16.411C19.9627 16.456 19.9692 16.4496 19.8981 16.5783L19.9046 16.5847ZM20.1822 16.6877L20.1628 16.7392C20.1628 16.7392 20.0079 16.4882 20.1887 16.3144C20.3049 16.205 20.4146 16.308 20.4211 16.3595C20.434 16.5461 20.2403 16.5654 20.1887 16.6812L20.1822 16.6877ZM21.7704 15.7545C21.7253 15.658 21.6155 15.5293 21.5187 15.5422C21.7575 15.8253 21.6478 16.2565 21.4541 16.3788C21.4541 16.2694 21.4412 16.1407 21.396 16.0441C21.4347 16.2565 21.2862 16.6362 20.957 16.6362C20.2661 16.6362 20.3694 16.6362 20.4082 16.6104C20.5179 16.5204 20.5179 16.3981 20.5179 16.353C20.5179 16.2629 20.4146 16.16 20.292 16.16C20.2403 16.16 20.2726 16.1793 20.2403 16.1085C20.2145 16.0506 20.1758 16.0055 20.1306 15.9798C20.1241 15.9347 20.0918 15.8897 20.0466 15.8382C20.0337 15.7224 20.2597 15.7674 20.5179 16.0248C20.576 16.0828 20.7891 16.0506 20.8859 16.0506C20.9828 16.0506 20.9828 15.9412 21.0215 15.7417C21.0473 15.5937 21.028 15.5164 20.944 15.2333C20.8601 14.9501 20.1758 15.2011 19.9046 14.918C19.8207 14.8279 19.6205 14.6284 19.4978 14.5447C18.9878 14.4675 18.7812 14.5447 18.3422 14.6219C17.6449 14.8021 17.122 14.9244 17.122 14.918C17.122 14.918 17.122 15.1432 16.967 15.2655C16.967 15.1239 16.8766 15.0531 16.8766 15.0531C16.9024 15.4457 16.7217 15.7803 16.528 15.8897C16.5667 15.8318 16.6377 15.7417 16.5667 15.6451C16.5603 15.7095 15.9146 16.3016 15.792 16.353C15.7532 16.559 15.5789 16.5332 15.5402 16.5268C15.566 16.4946 15.5854 16.4753 15.6112 16.4496C15.7661 16.1857 15.424 15.9669 15.2432 16.1149C15.127 15.9862 14.972 15.9927 14.8752 16.1149C14.7719 16.012 14.6298 16.0184 14.5459 16.16C14.5459 15.9798 14.604 15.8704 14.8623 15.8961C15.0624 15.7481 15.3013 15.7932 15.4304 15.8382C15.6176 15.7224 15.8372 15.2848 15.934 15.1754C15.934 15.1754 16.1987 15.2783 16.3472 15.2526C16.2504 14.963 16.2439 14.8407 16.3407 14.712C16.6442 14.7635 16.9541 14.5447 17.0768 14.3709C17.5158 14.1328 17.6643 13.6502 17.5868 13.2383C17.7224 13.2319 17.9225 13.3606 18.2905 13.3992C18.6585 13.4378 19.6657 13.322 20.0854 13.515C20.4986 13.6952 21.3185 13.7081 21.3185 13.0774C21.3185 12.8329 21.0861 12.6527 20.8343 12.6527C20.7439 12.6527 20.1822 12.7042 20.208 13.0067C20.0789 12.9809 20.0273 12.8522 20.0273 12.7557C19.6786 12.8329 19.3494 12.9359 18.8587 12.9359C18.4326 12.9359 18.0646 12.7364 18.0646 12.3502C18.0646 11.9641 18.3486 11.7582 18.807 11.7582C19.1686 11.7582 19.4268 11.8998 19.6851 11.8998C20.1564 11.8998 19.9433 11.4107 19.8207 11.3656C20.208 11.1661 20.4405 11.6617 20.3436 11.8032C20.944 11.3785 21.6155 12.0156 21.5768 12.3438C21.4218 12.2022 21.1829 12.1508 21.0603 12.1508C20.7826 12.1508 20.6535 12.4725 20.0014 12.1508C20.0402 12.3116 20.2726 12.3889 20.2726 12.3889C19.6011 12.5497 19.6399 12.1121 18.8522 12.125C18.5681 12.125 18.4907 12.2151 18.4907 12.3567C18.4907 12.6012 18.9555 12.6849 19.472 12.4725C19.7561 12.6012 20.2661 12.6463 20.589 12.4275C20.589 12.4275 20.7697 12.4532 20.9311 12.3116C21.5187 12.3631 21.7575 12.7235 21.7123 13.1482C21.6671 13.5601 21.3637 13.9269 20.7697 13.9269C20.5308 13.9269 20.3565 13.9076 20.1564 13.8497C20.5115 13.9848 20.5438 14.5704 21.099 14.5704C21.6542 14.5704 21.6994 14.9115 21.7253 15.1239C21.6736 15.0467 21.4864 14.9823 21.3831 14.9887C21.6542 15.1432 21.7704 15.4521 21.7575 15.7481L21.7704 15.7545ZM19.2977 12.3696C19.1169 12.4339 19.0072 12.4339 18.8845 12.4339C18.7747 12.4339 18.6714 12.3953 18.6714 12.3567C18.6714 12.2795 19.0976 12.2988 19.2977 12.3696ZM16.8831 9.24198C17.6255 9.00387 18.368 9.00387 19.1105 9.24198L19.4914 11.7132C19.2912 11.6681 19.0782 11.5973 18.807 11.5973C18.2453 11.5973 17.8902 11.8933 17.8902 12.3631C17.8902 12.8329 18.2776 13.1225 18.8522 13.1225C19.1879 13.1225 19.4527 13.0774 19.6915 13.026L19.7303 13.2705C19.2331 13.2126 18.5681 13.2705 18.297 13.2448C18.0194 13.2126 17.8644 13.1354 17.7095 13.0968L17.8451 12.9873C17.7095 12.8522 17.6255 12.8072 17.5222 12.4082C17.7224 12.376 17.7676 12.2602 17.8644 12.1057C17.6901 12.0027 17.703 12.0027 17.6514 11.977C17.5674 11.932 17.5933 11.9126 17.5222 11.8547C17.6514 11.726 17.6836 11.5201 17.703 11.3206C17.6255 11.2562 17.561 11.1919 17.3931 11.1726C17.4254 11.1082 17.3737 11.2048 17.5803 10.8315C17.3737 10.7929 17.2059 10.7414 17.0122 10.8058C17.0316 10.7672 17.0251 10.7736 17.1542 10.6191C17.0057 10.5162 16.9283 10.439 16.7217 10.4325L16.9089 9.22267L16.8831 9.24198Z" fill="#001EFF"/>
</svg>
