<svg width="20" height="20" viewBox="0 0 20 20" fill="none" xmlns="http://www.w3.org/2000/svg">
<path d="M1.66675 9.99984C1.66675 6.07147 1.66675 4.10728 2.88714 2.88689C4.10752 1.6665 6.07171 1.6665 10.0001 1.6665C13.9285 1.6665 15.8926 1.6665 17.113 2.88689C18.3334 4.10728 18.3334 6.07147 18.3334 9.99984C18.3334 13.9282 18.3334 15.8924 17.113 17.1128C15.8926 18.3332 13.9285 18.3332 10.0001 18.3332C6.07171 18.3332 4.10752 18.3332 2.88714 17.1128C1.66675 15.8924 1.66675 13.9282 1.66675 9.99984Z" stroke="#3B4D9B" stroke-width="1.3"/>
<path d="M12.5 10L10 10M10 10L7.5 10M10 10L10 7.5M10 10L10 12.5" stroke="#3B4D9B" stroke-width="1.3" stroke-linecap="round"/>
</svg>
