<svg width="22" height="22" viewBox="0 0 22 22" fill="none" xmlns="http://www.w3.org/2000/svg">
<path d="M2.43164 10.9997C2.43164 6.95904 2.43164 4.93874 3.6869 3.68348C4.94215 2.42822 6.96246 2.42822 11.0031 2.42822C15.0437 2.42822 17.064 2.42822 18.3192 3.68348C19.5745 4.93874 19.5745 6.95904 19.5745 10.9997C19.5745 15.0403 19.5745 17.0606 18.3192 18.3158C17.064 19.5711 15.0437 19.5711 11.0031 19.5711C6.96246 19.5711 4.94215 19.5711 3.6869 18.3158C2.43164 17.0606 2.43164 15.0403 2.43164 10.9997Z" stroke="#D32F2F" stroke-width="1.14286"/>
<path d="M13.1451 8.85744L8.85938 13.1431M8.85936 8.85742L13.1451 13.1431" stroke="#D32F2F" stroke-width="1.14286" stroke-linecap="round"/>
</svg>
