<svg width="18" height="18" viewBox="0 0 18 18" fill="none" xmlns="http://www.w3.org/2000/svg">
<g clip-path="url(#clip0_457_10217)">
<path d="M9.81499 16.0408L10.3743 16.3719L9.81499 16.0408ZM10.2216 15.3539L9.6622 15.0228V15.0228L10.2216 15.3539ZM7.7784 15.3539L7.21905 15.685L7.21905 15.685L7.7784 15.3539ZM8.18498 16.0408L8.74434 15.7097L8.18498 16.0408ZM1.78545 11.9351L2.38597 11.6863H2.38597L1.78545 11.9351ZM5.84218 14.2436L5.83099 14.8935H5.83099L5.84218 14.2436ZM3.81494 13.9645L3.56619 14.5651L3.56619 14.5651L3.81494 13.9645ZM16.2145 11.9351L16.8151 12.1838V12.1838L16.2145 11.9351ZM12.1578 14.2436L12.1466 13.5937L12.1578 14.2436ZM14.1851 13.9645L14.4338 14.5651H14.4338L14.1851 13.9645ZM14.7094 2.0526L14.3697 2.60682V2.60682L14.7094 2.0526ZM15.9474 3.29063L16.5016 2.95101V2.95101L15.9474 3.29063ZM3.29063 2.0526L2.95101 1.49838L2.95101 1.49838L3.29063 2.0526ZM2.0526 3.29063L1.49838 2.95101H1.49838L2.0526 3.29063ZM7.05209 14.4074L7.37889 13.8455L7.37889 13.8455L7.05209 14.4074ZM9.81499 16.0408L10.3743 16.3719L10.7809 15.685L10.2216 15.3539L9.6622 15.0228L9.25563 15.7097L9.81499 16.0408ZM7.7784 15.3539L7.21905 15.685L7.62562 16.3719L8.18498 16.0408L8.74434 15.7097L8.33776 15.0228L7.7784 15.3539ZM9.81499 16.0408L9.25563 15.7097C9.14494 15.8967 8.85503 15.8967 8.74434 15.7097L8.18498 16.0408L7.62562 16.3719C8.23968 17.4093 9.76029 17.4093 10.3743 16.3719L9.81499 16.0408ZM7.875 1.5V2.15H10.125V1.5V0.85H7.875V1.5ZM16.5 7.875H15.85V8.625H16.5H17.15V7.875H16.5ZM1.5 8.625H2.15V7.875H1.5H0.85V8.625H1.5ZM1.5 8.625H0.85C0.85 9.48975 0.849648 10.1709 0.887189 10.7211C0.925129 11.2771 1.00393 11.7468 1.18493 12.1838L1.78545 11.9351L2.38597 11.6863C2.28152 11.4341 2.2176 11.1225 2.18417 10.6326C2.15035 10.1369 2.15 9.50753 2.15 8.625H1.5ZM5.84218 14.2436L5.85338 13.5937C4.91179 13.5775 4.43353 13.5172 4.06368 13.364L3.81494 13.9645L3.56619 14.5651C4.1868 14.8221 4.88953 14.8773 5.83099 14.8935L5.84218 14.2436ZM1.78545 11.9351L1.18493 12.1838C1.6315 13.2619 2.48807 14.1185 3.56619 14.5651L3.81494 13.9645L4.06368 13.364C3.30409 13.0494 2.7006 12.4459 2.38597 11.6863L1.78545 11.9351ZM16.5 8.625H15.85C15.85 9.50753 15.8496 10.1369 15.8158 10.6326C15.7824 11.1225 15.7185 11.4342 15.614 11.6863L16.2145 11.9351L16.8151 12.1838C16.9961 11.7468 17.0749 11.2771 17.1128 10.7211C17.1504 10.1709 17.15 9.48975 17.15 8.625H16.5ZM12.1578 14.2436L12.169 14.8935C13.1104 14.8773 13.8132 14.8221 14.4338 14.5651L14.1851 13.9645L13.9363 13.364C13.5665 13.5172 13.0882 13.5775 12.1466 13.5937L12.1578 14.2436ZM16.2145 11.9351L15.614 11.6863C15.2994 12.4459 14.6959 13.0494 13.9363 13.364L14.1851 13.9645L14.4338 14.5651C15.5119 14.1185 16.3685 13.2619 16.8151 12.1838L16.2145 11.9351ZM10.125 1.5V2.15C11.3651 2.15 12.2496 2.15069 12.9382 2.21616C13.6171 2.28071 14.0382 2.40362 14.3697 2.60682L14.7094 2.0526L15.049 1.49838C14.4788 1.14898 13.8353 0.995592 13.0612 0.921993C12.2968 0.849314 11.34 0.85 10.125 0.85V1.5ZM16.5 7.875H17.15C17.15 6.66005 17.1507 5.70319 17.078 4.9388C17.0044 4.16473 16.851 3.52118 16.5016 2.95101L15.9474 3.29063L15.3932 3.63025C15.5964 3.96184 15.7193 4.38294 15.7838 5.06185C15.8493 5.75043 15.85 6.63488 15.85 7.875H16.5ZM14.7094 2.0526L14.3697 2.60682C14.7869 2.86243 15.1376 3.21313 15.3932 3.63025L15.9474 3.29063L16.5016 2.95101C16.1388 2.35896 15.641 1.86119 15.049 1.49838L14.7094 2.0526ZM7.875 1.5V0.85C6.66005 0.85 5.70319 0.849314 4.9388 0.921993C4.16473 0.995592 3.52118 1.14898 2.95101 1.49838L3.29063 2.0526L3.63025 2.60682C3.96184 2.40362 4.38294 2.28071 5.06185 2.21616C5.75043 2.15069 6.63488 2.15 7.875 2.15V1.5ZM1.5 7.875H2.15C2.15 6.63488 2.15069 5.75043 2.21616 5.06185C2.28071 4.38294 2.40362 3.96184 2.60682 3.63025L2.0526 3.29063L1.49838 2.95101C1.14898 3.52118 0.995592 4.16473 0.921993 4.9388C0.849314 5.70319 0.85 6.66005 0.85 7.875H1.5ZM3.29063 2.0526L2.95101 1.49838C2.35896 1.86119 1.86119 2.35896 1.49838 2.95101L2.0526 3.29063L2.60682 3.63025C2.86243 3.21313 3.21313 2.86243 3.63025 2.60682L3.29063 2.0526ZM7.7784 15.3539L8.33776 15.0228C8.18633 14.7669 8.05026 14.5357 7.91726 14.3532C7.77625 14.1598 7.61078 13.9804 7.37889 13.8455L7.05209 14.4074L6.7253 14.9693C6.74668 14.9817 6.78668 15.0092 6.86668 15.1189C6.95467 15.2396 7.05512 15.408 7.21905 15.685L7.7784 15.3539ZM5.84218 14.2436L5.83099 14.8935C6.16193 14.8992 6.36576 14.9034 6.51978 14.9204C6.66175 14.9361 6.70605 14.9581 6.7253 14.9693L7.05209 14.4074L7.37889 13.8455C7.14486 13.7094 6.90309 13.6549 6.66286 13.6283C6.43468 13.603 6.16019 13.599 5.85338 13.5937L5.84218 14.2436ZM10.2216 15.3539L10.7809 15.685C10.9448 15.408 11.0453 15.2396 11.1333 15.1189C11.2133 15.0092 11.2533 14.9817 11.2747 14.9693L10.9479 14.4074L10.6211 13.8455C10.3892 13.9804 10.2237 14.1598 10.0827 14.3532C9.94971 14.5357 9.81364 14.7669 9.6622 15.0228L10.2216 15.3539ZM12.1578 14.2436L12.1466 13.5937C11.8398 13.599 11.5653 13.603 11.3371 13.6283C11.0969 13.6549 10.8551 13.7094 10.6211 13.8455L10.9479 14.4074L11.2747 14.9693C11.2939 14.9581 11.3382 14.9361 11.4802 14.9204C11.6342 14.9034 11.838 14.8992 12.169 14.8935L12.1578 14.2436Z" fill="#5A5A5A"/>
</g>
<defs>
<clipPath id="clip0_457_10217">
<rect width="18" height="18" fill="white"/>
</clipPath>
</defs>
</svg>
