<svg width="22" height="22" viewBox="0 0 22 22" fill="none" xmlns="http://www.w3.org/2000/svg">
<path d="M19.5725 9.71394V10.9997C19.5725 15.0403 19.5725 17.0606 18.3173 18.3158C17.062 19.5711 15.0417 19.5711 11.0011 19.5711C6.96051 19.5711 4.9402 19.5711 3.68494 18.3158C2.42969 17.0606 2.42969 15.0403 2.42969 10.9997C2.42969 6.95904 2.42969 4.93874 3.68494 3.68348C4.9402 2.42822 6.96051 2.42822 11.0011 2.42822H12.2868" stroke="#5A5A5A" stroke-width="1.14286" stroke-linecap="round"/>
<path d="M14.9883 3.67542L15.5444 3.11929C16.4659 2.19787 17.9598 2.19787 18.8812 3.11929C19.8026 4.04071 19.8026 5.53463 18.8812 6.45606L18.3251 7.01218M14.9883 3.67542C14.9883 3.67542 15.0578 4.85719 16.1006 5.89993C17.1433 6.94267 18.3251 7.01218 18.3251 7.01218M14.9883 3.67542L9.87556 8.78816C9.52926 9.13446 9.35611 9.30761 9.2072 9.49852C9.03155 9.72373 8.88095 9.96741 8.75807 10.2252C8.65391 10.4438 8.57647 10.6761 8.4216 11.1407L7.92577 12.6282M18.3251 7.01218L13.2123 12.1249C12.866 12.4712 12.6929 12.6444 12.502 12.7933C12.2768 12.9689 12.0331 13.1195 11.7753 13.2424C11.5567 13.3466 11.3244 13.424 10.8598 13.5789L9.37227 14.0747M9.37227 14.0747L8.40977 14.3956C8.18113 14.4718 7.92906 14.4123 7.75864 14.2418C7.58823 14.0714 7.52872 13.8194 7.60493 13.5907L7.92577 12.6282M9.37227 14.0747L7.92577 12.6282" stroke="#5A5A5A" stroke-width="1.14286"/>
</svg>
