<svg width="40" height="15" viewBox="0 0 40 15" fill="none" xmlns="http://www.w3.org/2000/svg">
<path d="M0 7.27689V0.0680083H4.88964V1.42817H1.62988V2.85635H4.48217V4.21652H1.62988V5.98473H5.09338V7.3449H0V7.27689ZM10.6621 7.27689C10.4584 6.86884 10.2547 6.46079 9.98302 6.05274C9.71138 5.64469 9.43973 5.30465 9.16808 5.03262C9.10017 5.16863 8.96435 5.30465 8.82852 5.50867C8.6927 5.7127 8.55688 5.91672 8.35314 6.12075C8.21732 6.32477 8.08149 6.5288 7.94567 6.80083C7.80985 7.00486 7.74194 7.20888 7.67402 7.3449H5.7725C6.04414 6.80083 6.45161 6.18876 6.85908 5.57668C7.26655 4.96461 7.74194 4.35253 8.21732 3.67245L5.90832 0.0680083H7.87776L9.23599 2.17627L10.6621 0.0680083H12.4958L10.1868 3.53643C10.798 4.28452 11.2733 5.03262 11.6808 5.64469C12.0883 6.25676 12.3599 6.80083 12.6316 7.27689H10.6621ZM17.8608 0.0680083H19.4907V7.27689H17.8608V4.21652H15.1443V7.27689H13.5144V0.0680083H15.1443V2.85635H17.8608V0.0680083ZM21.1205 0.0680083H22.7504V7.27689H21.1205V0.0680083ZM26.8251 7.41291C26.4177 7.41291 26.0102 7.41291 25.6706 7.3449C25.2632 7.3449 24.8557 7.27689 24.4482 7.20888V0.204025C24.7878 0.136017 25.1273 0.0680083 25.5348 0.0680083C25.9423 0.0680083 26.2818 0 26.6214 0C27.0968 0 27.5042 0.0680083 27.9117 0.0680083C28.3192 0.136017 28.6587 0.272033 28.9304 0.40805C29.202 0.544067 29.4058 0.748092 29.6095 1.02012C29.7453 1.29216 29.8132 1.6322 29.8132 1.97224C29.8132 2.51631 29.5416 2.99237 28.9983 3.33241C29.4737 3.53643 29.7453 3.74046 29.9491 4.01249C30.0849 4.28452 30.2207 4.62457 30.2207 5.03262C30.2207 5.78071 29.9491 6.32477 29.4058 6.73282C28.7267 7.20888 27.9117 7.41291 26.8251 7.41291ZM26.0102 2.92436H26.8251C27.3005 2.92436 27.708 2.85635 27.9117 2.72033C28.1154 2.58432 28.2513 2.38029 28.2513 2.10826C28.2513 1.83622 28.1154 1.6322 27.9117 1.49618C27.6401 1.36017 27.3005 1.29216 26.8251 1.29216H25.9423V2.92436H26.0102ZM26.0102 4.14851V6.05274H26.893C27.3684 6.05274 27.7759 5.98473 28.0475 5.84872C28.3192 5.7127 28.5229 5.44067 28.5229 5.10062C28.5229 4.76058 28.3871 4.55656 28.1834 4.42054C27.9117 4.28452 27.5722 4.21652 27.0968 4.21652H26.0102V4.14851ZM31.3752 0.0680083H33.0051V7.27689H31.3752V0.0680083ZM40 0.0680083V1.42817H37.8268V7.27689H36.1969V1.49618H34.0238V0.136017H40V0.0680083Z" fill="#73151E"/>
<path d="M2.78774 13.7805C2.73198 13.6679 2.67623 13.4428 2.56472 13.2739C2.45321 13.0488 2.39745 12.8236 2.28595 12.5985C2.17444 12.3734 2.06292 12.0919 1.95142 11.8668C1.83991 11.5853 1.7284 11.3602 1.61689 11.135C1.50538 10.9099 1.39387 10.6848 1.33811 10.5159C1.2266 10.347 1.17085 10.1782 1.11509 10.1219C1.05507 10.8533 0.999315 11.585 0.947831 12.3171C0.892076 13.1051 0.892076 13.8931 0.836321 14.6811H0C0 14.1745 0.055756 13.6679 0.055756 13.1051C0.111511 12.5985 0.111509 12.0356 0.167264 11.5291C0.223018 11.0225 0.223019 10.5159 0.278774 10.0656C0.278774 9.50274 0.334529 9.05244 0.390284 8.60215H1.11509C1.28236 8.88358 1.44962 9.16502 1.61689 9.50274C1.78415 9.84046 1.95141 10.1782 2.17443 10.5722C2.3417 10.9662 2.50896 11.3039 2.67623 11.6979C2.84349 12.0919 3.01076 12.4296 3.12227 12.7111C3.23378 12.4296 3.40104 12.0356 3.5683 11.6979C3.73557 11.3039 3.90283 10.9662 4.07009 10.5722C4.3671 9.8967 4.70218 9.23895 5.07368 8.60215H5.79849C5.96575 10.5159 6.13302 12.4859 6.24453 14.5685H5.40821C5.40821 13.7805 5.35246 12.9925 5.35246 12.2045C5.30097 11.4724 5.24521 10.7407 5.18519 10.0093C5.12943 10.1219 5.07368 10.2345 4.96217 10.4033C4.85066 10.5722 4.79491 10.7973 4.6834 11.0225C4.57189 11.3039 4.46038 11.5291 4.29311 11.8105C4.1816 12.0919 4.0701 12.3171 3.95859 12.5422C3.84708 12.7674 3.73557 12.9925 3.67981 13.2177C3.5683 13.4428 3.51255 13.6117 3.45679 13.7242H2.78774V13.7805ZM11.4855 14.5685C11.374 14.2871 11.3182 14.062 11.2067 13.7805C11.0952 13.5554 11.0394 13.2739 10.9279 12.9925H8.2517L7.69415 14.5122H6.85783C7.08085 13.8931 7.30387 13.2739 7.47113 12.7674C7.69415 12.2608 7.86142 11.6979 8.02868 11.2476C8.19594 10.741 8.41896 10.2907 8.58623 9.84046C8.75349 9.39016 8.97651 8.93987 9.19953 8.54586H9.98009C10.2031 9.05244 10.4261 9.50274 10.5934 9.95303C10.7607 10.4033 10.9837 10.8536 11.1509 11.3602C11.3182 11.8668 11.5412 12.3734 11.7085 12.8799C11.9315 13.4428 12.0988 14.0057 12.3218 14.6248H11.4855V14.5685ZM10.7049 12.3734C10.5376 11.8668 10.3146 11.4165 10.1474 10.9099C9.9801 10.4596 9.75708 10.0093 9.58981 9.55902C9.36679 10.0093 9.19953 10.4596 9.03227 10.9099C8.865 11.3602 8.69774 11.8668 8.47472 12.3734H10.7049ZM17.2282 14.5685C17.1167 14.3434 16.9494 14.1182 16.7822 13.8368L16.2804 12.9925C16.1131 12.7111 15.8901 12.4296 15.7228 12.1482C15.4998 11.8668 15.3326 11.5853 15.1095 11.3039C14.8865 11.0225 14.7192 10.7973 14.552 10.5159C14.3847 10.2907 14.2175 10.0656 14.0502 9.89674V14.5685H13.2139V8.60215H13.8829C14.1617 8.88358 14.4405 9.2213 14.7192 9.61531C14.998 10.0093 15.3326 10.4033 15.6113 10.7973L16.4476 11.9793C16.7264 12.3734 16.9494 12.7111 17.1167 13.0488V8.60215H17.953V14.5685H17.2282ZM23.3612 14.5685C23.2497 14.2871 23.194 14.062 23.0825 13.7805C22.9709 13.5554 22.9152 13.2739 22.8037 12.9925H20.1275L19.5699 14.5122H18.7336C18.9566 13.8931 19.1796 13.2739 19.3469 12.7674C19.5699 12.2608 19.7372 11.6979 19.9044 11.2476C20.0717 10.741 20.2947 10.2907 20.462 9.84046C20.6292 9.39016 20.8523 8.93987 21.0753 8.54586H21.8559C22.0789 8.99616 22.2461 9.39016 22.4692 9.84046C22.6364 10.2907 22.8594 10.741 23.0267 11.2476C23.194 11.7542 23.417 12.2608 23.64 12.7674C23.863 13.3302 24.0303 13.8931 24.2533 14.5122H23.3612V14.5685ZM22.5807 12.3734C22.4134 11.8668 22.1904 11.4165 22.0231 10.9099C21.8559 10.4596 21.6328 10.0093 21.4656 9.55902C21.2426 10.0093 21.0753 10.4596 20.908 10.9099C20.7408 11.3602 20.5735 11.8668 20.3505 12.3734H22.5807ZM28.4907 11.6416H29.327V14.3997C29.2712 14.3997 29.1597 14.456 29.0482 14.456C28.9367 14.5122 28.7694 14.5122 28.6022 14.5685C28.4349 14.5685 28.2676 14.6248 28.0446 14.6248C27.8216 14.6248 27.6543 14.6811 27.4313 14.6811C27.041 14.6811 26.6508 14.6248 26.3162 14.456C25.9817 14.3434 25.7029 14.1182 25.4242 13.8368C25.2011 13.5554 24.9781 13.2739 24.8666 12.8799C24.7551 12.4859 24.6436 12.0356 24.6436 11.5291C24.6436 11.0225 24.6993 10.5722 24.8666 10.1782C25.0339 9.78417 25.2011 9.44645 25.4799 9.2213C25.7587 8.93987 26.0375 8.77101 26.372 8.60215C26.9604 8.38558 27.5945 8.32739 28.2119 8.43329C28.4349 8.48958 28.6022 8.48958 28.7694 8.54586C28.9367 8.60215 29.0482 8.65844 29.104 8.65844C29.2155 8.71472 29.2712 8.71472 29.2712 8.77101L29.0482 9.61531C28.8809 9.50274 28.6579 9.39016 28.3792 9.33388C28.1004 9.27759 27.8216 9.2213 27.5428 9.2213C27.2641 9.2213 26.9853 9.27759 26.7065 9.39016C26.4835 9.50274 26.2605 9.6716 26.0932 9.84046C25.9259 10.0656 25.7587 10.2907 25.7029 10.5722C25.5914 10.8536 25.5357 11.1913 25.5357 11.5853C25.5357 11.9231 25.5914 12.2608 25.6472 12.5422C25.7029 12.8236 25.8702 13.1051 26.0375 13.2739C26.2047 13.4991 26.4277 13.6679 26.6508 13.7805C26.8738 13.8931 27.2083 13.9494 27.5428 13.9494C27.7659 13.9494 27.9889 13.9494 28.1561 13.8931C28.3234 13.8931 28.4349 13.8368 28.4907 13.8368V11.6416ZM30.6093 14.5685V8.60215H34.2334V9.33388H31.4457V11.0788H33.8989V11.7542H31.4457V13.8368H34.4564V14.5685H30.6093ZM38.3593 12.0919C38.4708 12.2045 38.5823 12.3734 38.6938 12.5422C38.8053 12.7111 38.9726 12.9362 39.1398 13.1614C39.3071 13.3865 39.4186 13.6117 39.5859 13.8931C39.7531 14.1182 39.8646 14.3997 39.9761 14.6248H39.0841C38.9725 14.3997 38.861 14.1745 38.6938 13.9494C38.5823 13.7242 38.415 13.4991 38.3035 13.3302C38.192 13.1051 38.0247 12.9362 37.9132 12.7674C37.8017 12.5985 37.6344 12.4296 37.5787 12.3171H36.4078V14.6248H35.5715V8.71472C35.7945 8.65844 36.0733 8.60215 36.3521 8.60215C36.6309 8.60215 36.9096 8.54586 37.1327 8.54586C37.969 8.54586 38.5823 8.71472 39.0283 8.99616C39.4743 9.33388 39.6974 9.78417 39.6974 10.4033C39.6974 10.7973 39.5858 11.135 39.3628 11.4165C39.0841 11.7542 38.7495 11.9793 38.3593 12.0919ZM37.1327 9.27759H36.2963V11.5291H36.9096C37.1884 11.5291 37.4672 11.5291 37.6902 11.4728C37.9132 11.4165 38.1362 11.3602 38.2477 11.3039C38.415 11.2476 38.5265 11.135 38.5823 10.9662C38.6938 10.7973 38.6938 10.6285 38.6938 10.4033C38.6938 10.1782 38.638 10.0093 38.5823 9.84046C38.4708 9.6716 38.3592 9.55902 38.2477 9.50274C38.0805 9.39016 37.9132 9.33388 37.7459 9.33388C37.5229 9.33388 37.3557 9.27759 37.1327 9.27759Z" fill="#414042"/>
</svg>
