<svg width="20" height="20" viewBox="0 0 20 20" fill="none" xmlns="http://www.w3.org/2000/svg">
<path d="M11.832 1.521C13.58 1.521 14.8217 1.52246 15.7638 1.64911C16.686 1.7731 17.2174 2.00563 17.6053 2.39357C18.0518 2.84012 18.2462 3.18627 18.3539 3.80335C18.4752 4.49888 18.4779 5.491 18.4779 7.25016C18.4779 7.62986 18.7857 7.93766 19.1654 7.93766C19.5451 7.93766 19.8529 7.62986 19.8529 7.25016L19.8529 7.16187C19.8529 5.51262 19.8529 4.39539 19.7084 3.56699C19.5476 2.64543 19.205 2.0487 18.5776 1.4213C17.8916 0.735304 17.0217 0.430863 15.947 0.28637C14.9027 0.145971 13.5684 0.145982 11.8838 0.145996H11.832C11.4523 0.145996 11.1445 0.453801 11.1445 0.833497C11.1445 1.21319 11.4523 1.521 11.832 1.521Z" fill="#5A5A5A"/>
<path d="M0.832036 12.0627C1.21173 12.0627 1.51954 12.3705 1.51954 12.7502C1.51954 14.5093 1.52218 15.5014 1.64355 16.197C1.75122 16.8141 1.94557 17.1602 2.39211 17.6068C2.78006 17.9947 3.3114 18.2272 4.23365 18.3512C5.17567 18.4779 6.41745 18.4793 8.16537 18.4793C8.54507 18.4793 8.85287 18.7871 8.85287 19.1668C8.85287 19.5465 8.54507 19.8543 8.16537 19.8543H8.11366C6.42904 19.8543 5.09471 19.8544 4.05043 19.714C2.97571 19.5695 2.10584 19.265 1.41984 18.579C0.792442 17.9516 0.44982 17.3549 0.289012 16.4333C0.14446 15.6049 0.144489 14.4877 0.144533 12.8385L0.144536 12.7502C0.144536 12.3705 0.45234 12.0627 0.832036 12.0627Z" fill="#5A5A5A"/>
<path d="M19.1654 12.0627C19.5451 12.0627 19.8529 12.3705 19.8529 12.7502L19.8529 12.8385C19.8529 14.4877 19.8529 15.6049 19.7084 16.4333C19.5476 17.3549 19.205 17.9516 18.5776 18.579C17.8916 19.265 17.0217 19.5695 15.947 19.714C14.9027 19.8544 13.5684 19.8543 11.8837 19.8543H11.832C11.4523 19.8543 11.1445 19.5465 11.1445 19.1668C11.1445 18.7871 11.4523 18.4793 11.832 18.4793C13.58 18.4793 14.8217 18.4779 15.7638 18.3512C16.686 18.2272 17.2174 17.9947 17.6053 17.6068C18.0518 17.1602 18.2462 16.8141 18.3539 16.197C18.4752 15.5014 18.4779 14.5093 18.4779 12.7502C18.4779 12.3705 18.7857 12.0627 19.1654 12.0627Z" fill="#5A5A5A"/>
<path d="M8.11365 0.145996H8.16537C8.54507 0.145996 8.85287 0.453801 8.85287 0.833497C8.85287 1.21319 8.54507 1.521 8.16537 1.521C6.41745 1.521 5.17567 1.52246 4.23365 1.64911C3.3114 1.7731 2.78006 2.00563 2.39211 2.39357C1.94557 2.84012 1.75122 3.18627 1.64355 3.80335C1.52218 4.49888 1.51954 5.491 1.51954 7.25016C1.51954 7.62986 1.21173 7.93766 0.832036 7.93766C0.45234 7.93766 0.144536 7.62986 0.144536 7.25016L0.144533 7.16187C0.144489 5.51265 0.14446 4.39539 0.289012 3.56699C0.44982 2.64543 0.792442 2.0487 1.41984 1.4213C2.10584 0.735304 2.97571 0.430863 4.05043 0.28637C5.09471 0.145971 6.42905 0.145982 8.11365 0.145996Z" fill="#5A5A5A"/>
<path d="M9.9987 8.85433C9.36588 8.85433 8.85287 9.36734 8.85287 10.0002C8.85287 10.633 9.36588 11.146 9.9987 11.146C10.6315 11.146 11.1445 10.633 11.1445 10.0002C11.1445 9.36734 10.6315 8.85433 9.9987 8.85433Z" fill="#5A5A5A"/>
<path fill-rule="evenodd" clip-rule="evenodd" d="M4.40009 11.8883C3.85472 11.2557 3.58204 10.9394 3.58204 10.0002C3.58204 9.06094 3.85472 8.74463 4.40009 8.11202C5.48905 6.84887 7.31533 5.41683 9.9987 5.41683C12.6821 5.41683 14.5084 6.84887 15.5973 8.11202C16.1427 8.74463 16.4154 9.06094 16.4154 10.0002C16.4154 10.9394 16.1427 11.2557 15.5973 11.8883C14.5084 13.1515 12.6821 14.5835 9.9987 14.5835C7.31533 14.5835 5.48905 13.1515 4.40009 11.8883ZM7.47787 10.0002C7.47787 8.60795 8.60649 7.47933 9.9987 7.47933C11.3909 7.47933 12.5195 8.60795 12.5195 10.0002C12.5195 11.3924 11.3909 12.521 9.9987 12.521C8.60649 12.521 7.47787 11.3924 7.47787 10.0002Z" fill="#5A5A5A"/>
</svg>
