<svg width="20" height="20" viewBox="0 0 20 20" fill="none" xmlns="http://www.w3.org/2000/svg">
<path fill-rule="evenodd" clip-rule="evenodd" d="M2.41536 6.65819C2 7.41702 2 8.33239 2 10.1631V11.38C2 14.5007 2 16.061 2.93726 17.0305C3.87452 18 5.38301 18 8.4 18H11.6C14.617 18 16.1255 18 17.0627 17.0305C18 16.061 18 14.5007 18 11.38V10.1631C18 8.33239 18 7.41702 17.5846 6.65819C17.1693 5.89937 16.4104 5.42841 14.8928 4.4865L13.2928 3.4935C11.6885 2.49783 10.8863 2 10 2C9.11365 2 8.31151 2.49783 6.70723 3.4935L5.10723 4.4865C3.58956 5.42841 2.83072 5.89937 2.41536 6.65819ZM7.6 14.2C7.26863 14.2 7 14.4686 7 14.8C7 15.1314 7.26863 15.4 7.6 15.4H12.4C12.7314 15.4 13 15.1314 13 14.8C13 14.4686 12.7314 14.2 12.4 14.2H7.6Z" fill="#5A5A5A"/>
</svg>
