<svg width="34" height="32" viewBox="0 0 34 32" fill="none" xmlns="http://www.w3.org/2000/svg">
<path fill-rule="evenodd" clip-rule="evenodd" d="M16.6563 0.146438C19.0066 0.146438 20.9163 2.05013 20.9163 4.39313C20.9163 6.73614 20.9163 4.83245 20.9163 5.12532C20.7694 6.00395 20.3287 6.88258 19.888 7.61477C19.0066 9.07914 18.4191 10.5435 17.8315 12.0079C17.3908 13.4723 17.2439 15.0831 17.097 16.6939L16.6563 17.2797L16.2156 16.6939C16.2156 15.0831 15.9218 13.4723 15.4812 12.0079C15.0405 10.5435 14.306 9.07914 13.4246 7.61477C13.1308 7.02901 12.837 6.5897 12.6902 6.00395C12.6902 5.71107 12.3964 5.27176 12.3964 4.97888C12.3964 4.68601 12.3964 4.53957 12.3964 4.2467C12.3964 1.90369 14.306 0 16.6563 0V0.146438Z" fill="#E95D0F"/>
<path fill-rule="evenodd" clip-rule="evenodd" d="M33.1087 12.1546C33.8431 14.3512 32.5211 16.8406 30.3176 17.4264C30.0239 17.4264 29.877 17.4264 29.5832 17.5728C28.7018 17.5728 27.8204 17.5728 26.7922 17.4264C25.1763 17.1335 23.5605 16.8406 21.9446 16.8406C20.4757 16.8406 18.8598 17.1335 17.244 17.5728L16.5095 17.2799L16.9502 16.6942C18.566 16.1084 20.035 15.5227 21.2101 14.6441C22.5322 13.7654 23.7074 12.5939 24.8825 11.4224C25.3232 10.9831 25.7639 10.5438 26.0577 10.2509C26.3515 9.95806 26.6453 9.81162 26.939 9.66518C27.0859 9.66518 27.3797 9.51875 27.5266 9.37231C29.7301 8.64012 32.2273 9.95806 32.8149 12.1546H33.1087Z" fill="#E2017A"/>
<path fill-rule="evenodd" clip-rule="evenodd" d="M0.203998 12.1546C-0.530478 14.3512 0.791578 16.8406 2.99501 17.4264C3.2888 17.4264 3.43569 17.4264 3.72948 17.5728C4.61085 17.5728 5.49223 17.5728 6.52049 17.4264C8.13634 17.1335 9.75219 16.8406 11.368 16.8406C12.837 16.8406 14.4528 17.1335 16.0687 17.5728L16.8032 17.2799L16.3625 16.6942C14.7466 16.1084 13.2777 15.5227 12.1025 14.6441C10.7805 13.7654 9.60529 12.5939 8.43013 11.4224C7.98944 10.9831 7.54876 10.5438 7.25497 10.2509C6.96118 9.95806 6.66739 9.81162 6.3736 9.66518C6.2267 9.66518 5.93291 9.51875 5.78602 9.37231C3.58259 8.64012 1.08537 9.95806 0.497788 12.1546H0.203998Z" fill="#059D30"/>
<path fill-rule="evenodd" clip-rule="evenodd" d="M6.52065 31.1909C8.43029 32.5088 11.0744 32.216 12.3965 30.3123C12.3965 30.1658 12.6902 29.8729 12.6902 29.7265C13.1309 28.9943 13.2778 27.9693 13.4247 27.0906C13.5716 25.4798 13.8654 23.869 14.453 22.2582C14.8937 20.7938 15.775 19.4759 16.6564 18.0115V17.2793L15.9219 17.5722C14.8937 18.8901 13.7185 20.0616 12.5434 20.9402C11.2213 21.8189 9.75234 22.6975 8.28339 23.2832C7.69581 23.5761 7.25513 23.869 6.81444 24.1619C6.52065 24.3083 6.22686 24.6012 5.93307 24.7476C5.78617 24.8941 5.63928 25.0405 5.49238 25.3334C4.17033 27.2371 4.46412 29.8729 6.37376 31.1909H6.52065Z" fill="#009EE0"/>
<path fill-rule="evenodd" clip-rule="evenodd" d="M26.9389 31.1909C25.0292 32.5088 22.3851 32.216 21.0631 30.3123C21.0631 30.1658 20.7693 29.8729 20.7693 29.7265C20.3286 28.9943 20.1817 27.9693 20.0348 27.0906C19.8879 25.4798 19.5941 23.869 19.0065 22.2582C18.5658 20.7938 17.6845 19.4759 16.8031 18.0115V17.2793L17.5376 17.5722C18.5658 18.8901 19.741 20.0616 20.9162 20.9402C22.2382 21.8189 23.7072 22.6975 25.1761 23.2832C25.7637 23.5761 26.2044 23.869 26.6451 24.1619C26.9389 24.3083 27.2327 24.6012 27.5265 24.7476C27.6733 24.8941 27.8202 25.0405 27.9671 25.3334C29.2892 27.2371 28.9954 29.8729 27.0858 31.1909H26.9389Z" fill="#803589"/>
</svg>
