<svg width="18" height="18" viewBox="0 0 18 18" fill="none" xmlns="http://www.w3.org/2000/svg">
<path fill-rule="evenodd" clip-rule="evenodd" d="M17.2538 17.254H13.8619V11.4769C13.8619 9.893 13.2601 9.00785 12.0064 9.00785C10.6426 9.00785 9.93 9.92899 9.93 11.4769V17.254H6.66119V6.24874H9.93V7.73115C9.93 7.73115 10.9128 5.91251 13.2482 5.91251C15.5826 5.91251 17.2538 7.33799 17.2538 10.2862V17.254ZM2.76152 4.80769C1.64809 4.80769 0.74585 3.89837 0.74585 2.77689C0.74585 1.65541 1.64809 0.746094 2.76152 0.746094C3.87494 0.746094 4.77664 1.65541 4.77664 2.77689C4.77664 3.89837 3.87494 4.80769 2.76152 4.80769ZM1.07364 17.254H4.48217V6.24874H1.07364V17.254Z" fill="white"/>
</svg>
