<svg width="44" height="26" viewBox="0 0 44 26" fill="none" xmlns="http://www.w3.org/2000/svg">
<path d="M30.3811 5.01556C30.101 5.60972 27.1818 12.0001 27.179 12.2586C28.4134 9.83697 29.5589 7.37402 30.6156 4.86971C30.7243 4.61405 31.1235 3.82397 31.1022 3.58252C30.8489 4.05372 30.6085 4.5314 30.3811 5.01556Z" fill="#CD0037"/>
<path d="M13.747 5.64851C14.5139 7.43535 15.3272 9.20077 16.1871 10.9447C16.2909 11.1601 16.6761 12.0667 16.8223 12.1786C15.7259 9.61638 14.6476 7.04237 13.421 4.53863C13.2919 4.27503 13.0892 3.73989 12.8958 3.54688C13.1402 4.2589 13.4529 4.95566 13.747 5.64851Z" fill="#CD0037"/>
<path d="M12.7128 3.58496C12.3524 4.21758 12.0357 4.88232 11.7246 5.54073C11.4563 6.10867 8.69647 12.1777 8.72259 12.374C10.0316 9.85295 11.207 7.24218 12.313 4.62682C12.388 4.44941 12.736 3.74712 12.7128 3.58496Z" fill="#CD0037"/>
<path d="M31.3243 3.55273C31.4743 4.19799 31.8241 4.89822 32.084 5.51129C32.8862 7.36898 33.7346 9.20535 34.6291 11.0204C34.7599 11.289 35.1031 12.1288 35.291 12.2971C34.4195 10.2579 33.5268 8.2281 32.613 6.20756C32.3475 5.62641 32.0744 5.04886 31.7936 4.47489C31.648 4.17372 31.5109 3.82884 31.3243 3.55273Z" fill="#CD0037"/>
<path d="M23.1262 9.96877C23.1488 9.8876 23.1668 9.81035 23.1801 9.72719C23.2428 9.3891 23.299 9.02172 23.4167 8.69843C22.4903 8.69988 21.5621 8.68855 20.6359 8.70414C20.8298 9.05258 20.8824 9.63049 20.9368 10.027C21.2133 10.0238 22.9973 10.0703 23.1262 9.96877Z" fill="#CD0037"/>
<path d="M20.3484 8.28324C21.464 8.32601 22.5846 8.27687 23.7011 8.28979C23.8189 8.09165 23.9363 7.93667 24.1192 7.79129C24.2828 7.69189 24.4437 7.61007 24.62 7.5354L24.6242 7.13943L19.3571 7.1377L19.3704 7.53782C19.8002 7.67464 20.089 7.9185 20.3484 8.28324Z" fill="#CD0037"/>
<path d="M30.3047 20.0886C28.4582 20.1506 26.7021 20.4217 24.9966 21.1608C24.659 21.307 24.254 21.4691 23.9697 21.7027C27.5465 20.2699 31.6878 20.6335 35.4232 21.1071C36.8764 21.2911 38.3281 21.4857 39.7785 21.6909C40.4261 21.7785 41.0992 21.9136 41.7495 21.9446C40.7694 21.5663 39.4461 21.3023 38.4088 21.0879C35.7613 20.5408 33.0198 20.0006 30.3047 20.0886Z" fill="#CD0037"/>
<path d="M17.9653 21.0615C18.4694 21.1738 18.9923 21.2946 19.4719 21.4868C19.6029 21.5394 19.9736 21.7358 20.0952 21.7207L20.0863 21.7023C20.0739 21.6986 20.061 21.696 20.049 21.6911C19.9314 21.6431 19.8161 21.5492 19.6996 21.4915C19.3242 21.3057 18.9335 21.1249 18.5435 20.9719C16.8807 20.3195 14.5584 19.9621 12.7819 20.0888C10.2675 20.1778 7.83498 20.6083 5.38311 21.1427C4.29802 21.3792 3.19406 21.6107 2.14171 21.9686C4.64772 21.6524 7.14816 21.2404 9.66122 20.9902C12.3779 20.7037 15.2745 20.462 17.9653 21.0615Z" fill="#CD0037"/>
<path d="M30.5574 18.7878C30.5393 18.7893 30.5214 18.7922 30.5033 18.7943C28.1111 18.9848 25.6749 19.6924 23.7806 21.2211C23.5363 21.4182 23.1398 21.7163 22.9573 21.9602C22.9317 21.9946 22.9325 21.9955 22.916 22.0279C23.068 21.9615 23.1965 21.8046 23.3373 21.7113C23.7543 21.4338 24.1868 21.183 24.6348 20.9588C27.1111 19.7369 29.9005 19.3654 32.64 19.5302C35.4507 19.6378 38.6355 20.1382 41.3878 20.7542L41.3962 20.8294L41.4591 20.7747L41.4242 20.7859L41.4101 20.7441C41.2655 20.6199 40.4601 20.4149 40.2318 20.3419C37.8519 19.5808 35.414 19.0384 32.9201 18.8341C32.1468 18.7708 31.3312 18.725 30.5574 18.7878Z" fill="#CD0037"/>
<path d="M41.4689 20.7661L41.459 20.7747L41.4709 20.7709L41.4689 20.7661Z" fill="#CD0037"/>
<path d="M4.06407 20.4602C4.84293 20.3078 5.62471 20.1723 6.4094 20.0536C8.70862 19.7007 10.9764 19.4847 13.3053 19.5104C14.1478 19.5658 14.9884 19.6186 15.8212 19.7663C17.6081 20.0831 19.4926 20.8208 20.9501 21.9087C20.9892 21.9379 21.0093 21.9526 21.0545 21.966C20.8882 21.744 20.6254 21.5491 20.4141 21.367C18.8324 20.0045 16.7215 19.2163 14.6724 18.9209C13.6526 18.7738 12.55 18.6957 11.5233 18.7947C9.19514 18.9421 6.92227 19.4048 4.68609 20.0584C3.95318 20.2726 3.23586 20.538 2.50529 20.7536C2.77761 20.7746 3.72924 20.5241 4.06407 20.4602Z" fill="#CD0037"/>
<path d="M21.257 15.7754C21.2629 15.7505 21.2701 15.726 21.2786 15.7019C21.2871 15.6777 21.2968 15.6541 21.3077 15.631C21.423 15.3847 21.6245 15.2544 21.8628 15.1444C21.8869 13.6136 21.8733 12.0609 21.9751 10.5342L21.0015 10.5312C21.059 11.6063 20.9793 12.605 20.5685 13.6129C20.4548 13.8871 20.3265 14.1543 20.1836 14.4144C20.0407 14.6745 19.884 14.9261 19.7135 15.1692C19.5355 15.4186 19.3195 15.6616 19.1646 15.9249C19.1215 15.9982 19.0864 16.0834 19.0988 16.1695C19.1187 16.3077 20.0352 17.756 20.188 18.0378C20.781 19.1316 21.2243 20.3109 21.606 21.4927C21.7168 21.8256 21.848 22.1626 21.9155 22.5072C21.7671 20.6427 21.8527 18.6093 21.8514 16.7253C21.6045 16.6223 21.3976 16.4833 21.2922 16.2264C21.2825 16.2027 21.274 16.1787 21.2668 16.1541C21.2596 16.1296 21.2537 16.1047 21.2491 16.0796C21.2444 16.0544 21.2411 16.0291 21.2392 16.0037C21.2371 15.9782 21.2365 15.9527 21.2372 15.9271C21.2378 15.9015 21.2398 15.8761 21.2431 15.8507C21.2465 15.8253 21.2511 15.8002 21.257 15.7754Z" fill="#CD0037"/>
<path d="M22.6486 20.7296C23.0729 19.6286 23.5287 18.5678 24.1061 17.5366C24.3466 17.107 24.7067 16.704 24.9089 16.2632C24.9609 16.1499 24.9377 16.0896 24.8924 15.9777C24.7406 15.6035 24.3945 15.2614 24.1703 14.9204C23.2817 13.5684 22.9083 12.1542 23.0566 10.5332L22.0301 10.5357C22.0528 12.077 22.1269 13.6187 22.1279 15.16C22.381 15.2478 22.5979 15.3785 22.7132 15.6323C22.7236 15.655 22.7328 15.6781 22.7408 15.7018C22.7489 15.7254 22.7556 15.7494 22.7612 15.7738C22.7667 15.7982 22.7709 15.8228 22.7739 15.8476C22.7768 15.8723 22.7785 15.8972 22.7789 15.9222C22.7792 15.9472 22.7783 15.9721 22.7761 15.997C22.7738 16.0219 22.7703 16.0466 22.7656 16.0711C22.7607 16.0956 22.7547 16.1198 22.7474 16.1437C22.74 16.1676 22.7315 16.191 22.7218 16.214C22.6138 16.4718 22.3988 16.6265 22.1463 16.7252L22.1425 20.3063C22.1422 20.9753 22.1911 21.6987 22.0971 22.3596C22.2898 21.8187 22.4602 21.2714 22.6486 20.7296Z" fill="#CD0037"/>
<path d="M27.7219 15.3612C28.7493 16.2967 30.1723 16.7078 31.5441 16.6357C32.697 16.575 33.8293 16.1797 34.6971 15.4044C35.3541 14.8329 35.7811 14.089 35.8852 13.2218L26.5922 13.2148C26.6308 14.0388 27.1256 14.8183 27.7219 15.3612Z" fill="#CD0037"/>
<path d="M9.4013 15.4887C10.4923 16.4019 11.9412 16.7468 13.3415 16.6131C14.4086 16.5113 15.3588 16.1211 16.1947 15.4541C16.8494 14.8314 17.318 14.1312 17.4244 13.2163L8.12904 13.2194C8.20461 14.1182 8.72062 14.9188 9.4013 15.4887Z" fill="#CD0037"/>
<path d="M11.8294 3.00885C12.2448 3.37803 12.8654 3.40132 13.3905 3.35897C15.6483 3.17679 18.4756 1.68069 20.4664 3.37835C21.1848 3.991 21.8948 5.28131 21.989 6.21609L22.0091 6.19166C22.283 4.97475 22.7996 3.80772 23.8896 3.11265C24.5026 2.72174 25.2193 2.56018 25.9412 2.568C26.5339 2.57444 27.1325 2.68407 27.7108 2.8091C28.8194 3.04876 32.1759 4.13637 32.5442 2.39905C32.5947 2.1606 32.572 1.83985 32.4277 1.63648C32.2936 1.44749 32.0796 1.31349 31.8495 1.28551C31.7287 1.27083 31.6039 1.27149 31.4823 1.27245C31.6809 1.4091 31.8516 1.5674 31.9048 1.81265C31.9487 2.01536 31.9173 2.26475 31.8013 2.43941C31.6713 2.63515 31.4393 2.7275 31.2157 2.76414C30.8167 2.82948 30.3815 2.7364 29.9961 2.63688C28.0948 2.14603 26.3363 0.943378 24.2972 1.44609C23.7484 1.58135 23.2434 1.81253 22.8129 2.18159C22.9437 1.65699 22.8841 1.226 22.6071 0.764263C22.444 0.492489 22.2339 0.246517 22.0037 0.0292969C21.5448 0.510639 21.0954 1.06329 21.1185 1.76763C21.1231 1.9077 21.1472 2.04736 21.181 2.18309C20.3337 1.45728 19.2752 1.25506 18.1857 1.33515C16.8 1.43696 13.3055 3.38863 12.3107 2.57185C12.1645 2.45182 12.0923 2.2887 12.0765 2.10228C12.0565 1.86528 12.116 1.63941 12.2794 1.46215C12.3389 1.39765 12.4061 1.34037 12.4737 1.28477C12.1756 1.29236 11.905 1.29734 11.6839 1.52731C11.4919 1.727 11.4208 1.97845 11.4354 2.25239C11.451 2.54633 11.6122 2.81576 11.8294 3.00885Z" fill="#CD0037"/>
<path d="M43.9941 22.5225C41.9042 22.5048 39.9591 22.2599 37.8894 22.0049C34.0599 21.5332 29.7301 20.6575 25.934 21.6586C25.1391 21.8683 24.2796 22.1894 23.682 22.7754C23.1747 23.2728 22.7833 23.7968 21.9966 23.8049C21.1707 23.8135 20.78 23.1426 20.2095 22.6775C19.8591 22.3918 19.4916 22.1878 19.0792 22.0086C17.3859 21.2728 14.9272 21.1056 13.1015 21.2335C9.24834 21.4215 5.44863 22.2634 1.59844 22.493C1.06745 22.5247 0.531886 22.5237 0 22.5304L0.00121379 23.1325L12.415 23.1397C14.9176 23.1402 17.426 23.1721 19.928 23.1358C20.1418 24.1523 20.3216 24.9751 21.2442 25.5768C21.4819 25.7318 21.7385 25.8504 21.9946 25.9711C22.7735 25.5956 23.4709 25.1724 23.7731 24.3155C23.9057 23.9392 23.9718 23.5333 24.0293 23.1396C26.2546 23.1169 28.4826 23.1379 30.7083 23.1393L44 23.1332L43.9941 22.5225Z" fill="#CD0037"/>
</svg>
