<svg width="32" height="31" viewBox="0 0 32 31" fill="none" xmlns="http://www.w3.org/2000/svg">
<g clip-path="url(#clip0_533_5126)">
<path d="M22.3204 11.5845H30.5861C31.367 11.5845 32 12.2119 32 12.9859V20.4483C32 23.2929 29.6734 25.5989 26.8034 25.5989H26.7788C23.9088 25.5993 21.5818 23.2936 21.5814 20.449C21.5814 20.4487 21.5814 20.4485 21.5814 20.4482V12.3169C21.5814 11.9124 21.9123 11.5845 22.3204 11.5845Z" fill="#5059C9"/>
<path d="M27.907 10.1091C29.7565 10.1091 31.2558 8.62307 31.2558 6.78992C31.2558 4.95677 29.7565 3.4707 27.907 3.4707C26.0575 3.4707 24.5581 4.95677 24.5581 6.78992C24.5581 8.62307 26.0575 10.1091 27.907 10.1091Z" fill="#5059C9"/>
<path d="M17.4884 10.1094C20.1599 10.1094 22.3256 7.96282 22.3256 5.31494C22.3256 2.66705 20.1599 0.520508 17.4884 0.520508C14.8168 0.520508 12.6512 2.66705 12.6512 5.31494C12.6512 7.96282 14.8168 10.1094 17.4884 10.1094Z" fill="#7B83EB"/>
<path d="M23.9382 11.5845H10.2943C9.52272 11.6034 8.91233 12.2381 8.93023 13.0029V21.5141C8.82248 26.1036 12.4859 29.9123 17.1163 30.0246C21.7467 29.9123 25.4101 26.1036 25.3023 21.5141V13.0029C25.3202 12.2381 24.7098 11.6034 23.9382 11.5845Z" fill="#7B83EB"/>
<path opacity="0.1" d="M17.8605 11.5845V23.5115C17.8568 24.0585 17.5224 24.5498 17.0121 24.7581C16.8496 24.8262 16.675 24.8613 16.4986 24.8613H9.58512C9.48838 24.6179 9.39908 24.3745 9.32465 24.1237C9.06415 23.2774 8.93123 22.3975 8.93022 21.5126V13.0007C8.91233 12.2371 9.52172 11.6034 10.2921 11.5845H17.8605Z" fill="black"/>
<path opacity="0.2" d="M17.1163 11.5845V24.2491C17.1163 24.424 17.0808 24.597 17.0121 24.7581C16.802 25.2638 16.3063 25.5953 15.7544 25.5989H9.93489C9.80837 25.3555 9.68931 25.1121 9.58512 24.8613C9.48093 24.6106 9.39908 24.3745 9.32465 24.1237C9.06415 23.2774 8.93123 22.3975 8.93022 21.5126V13.0007C8.91233 12.2371 9.52172 11.6034 10.2921 11.5845H17.1163Z" fill="black"/>
<path opacity="0.2" d="M17.1163 11.5845V22.7739C17.1106 23.5171 16.5042 24.1181 15.7544 24.1237H9.32465C9.06415 23.2774 8.93123 22.3975 8.93022 21.5126V13.0007C8.91233 12.2371 9.52172 11.6034 10.2921 11.5845H17.1163Z" fill="black"/>
<path opacity="0.2" d="M16.3721 11.5845V22.7739C16.3664 23.5171 15.76 24.1181 15.0102 24.1237H9.32465C9.06415 23.2774 8.93123 22.3975 8.93022 21.5126V13.0007C8.91233 12.2371 9.52172 11.6034 10.2921 11.5845H16.3721Z" fill="black"/>
<path opacity="0.1" d="M17.8605 7.77119V10.0946C17.7339 10.102 17.6149 10.1094 17.4884 10.1094C17.3618 10.1094 17.2428 10.102 17.1163 10.0946C16.8651 10.0781 16.6159 10.0386 16.3721 9.97663C14.8651 9.6229 13.6201 8.57538 13.0232 7.15899C12.9205 6.92113 12.8408 6.67415 12.7851 6.42139H16.4986C17.2495 6.4242 17.8576 7.02687 17.8605 7.77119Z" fill="black"/>
<path opacity="0.2" d="M17.1163 8.50898V10.0948C16.8651 10.0783 16.616 10.0388 16.3721 9.97682C14.8651 9.6231 13.6201 8.57558 13.0233 7.15918H15.7544C16.5054 7.162 17.1134 7.76468 17.1163 8.50898Z" fill="black"/>
<path opacity="0.2" d="M17.1163 8.50898V10.0948C16.8651 10.0783 16.616 10.0388 16.3721 9.97682C14.8651 9.6231 13.6201 8.57558 13.0233 7.15918H15.7544C16.5054 7.162 17.1134 7.76468 17.1163 8.50898Z" fill="black"/>
<path opacity="0.2" d="M16.3721 8.50899V9.97682C14.8651 9.6231 13.6201 8.57558 13.0233 7.15918H15.0102C15.7612 7.16201 16.3692 7.76469 16.3721 8.50899Z" fill="black"/>
<path d="M1.36409 7.15918H15.008C15.7614 7.15918 16.3721 7.76451 16.3721 8.5112V22.0344C16.3721 22.7811 15.7613 23.3864 15.008 23.3864H1.36409C0.610716 23.3864 0 22.7811 0 22.0344V8.5112C0 7.76451 0.61073 7.15918 1.36409 7.15918Z" fill="url(#paint0_linear_533_5126)"/>
<path d="M11.776 12.3059H9.04855V19.6672H7.31089V12.3059H4.5961V10.8779H11.776V12.3059Z" fill="white"/>
</g>
<defs>
<linearGradient id="paint0_linear_533_5126" x1="2.84417" y1="6.10273" x2="13.3862" y2="24.524" gradientUnits="userSpaceOnUse">
<stop stop-color="#5A62C3"/>
<stop offset="0.5" stop-color="#4D55BD"/>
<stop offset="1" stop-color="#3940AB"/>
</linearGradient>
<clipPath id="clip0_533_5126">
<rect width="32" height="29.5041" fill="white" transform="translate(0 0.520508)"/>
</clipPath>
</defs>
</svg>
