<svg width="24" height="24" viewBox="0 0 24 24" fill="none" xmlns="http://www.w3.org/2000/svg">
<path d="M15.5562 13.9062L15.1007 14.359C15.1007 14.359 14.0181 15.4355 11.0631 12.4972C8.10812 9.55901 9.1907 8.48257 9.1907 8.48257L9.47752 8.19738C10.1841 7.49484 10.2507 6.36691 9.63424 5.54348L8.37326 3.85908C7.61028 2.83992 6.13596 2.70529 5.26145 3.57483L3.69185 5.13552C3.25823 5.56668 2.96765 6.12559 3.00289 6.74561C3.09304 8.33182 3.81071 11.7447 7.81536 15.7266C12.0621 19.9492 16.0468 20.117 17.6763 19.9651C18.1917 19.9171 18.6399 19.6546 19.0011 19.2954L20.4217 17.883C21.3806 16.9295 21.1102 15.2949 19.8833 14.628L17.9728 13.5894C17.1672 13.1515 16.1858 13.2801 15.5562 13.9062Z" fill="#1F3B74"/>
</svg>
