<svg width="20" height="20" viewBox="0 0 20 20" fill="none" xmlns="http://www.w3.org/2000/svg">
<path d="M14.1092 2.49072H3.06391C1.996 2.49072 1.13184 3.35864 1.13184 4.42657V10.4681C1.13184 11.0039 1.34693 11.4869 1.69787 11.8379C2.04504 12.1888 2.52807 12.4039 3.06391 12.4039C3.19222 12.4039 3.29034 12.5171 3.27145 12.6492L2.94693 14.7322C2.91298 14.936 3.15447 15.0568 3.29787 14.9134L5.79976 12.4643C5.84126 12.4266 5.89032 12.4039 5.94693 12.4039H14.1092C15.1771 12.4039 16.0451 11.5398 16.0451 10.4681V4.42657C16.0451 3.35864 15.1771 2.49072 14.1092 2.49072ZM5.55449 7.28316L5.01862 7.80391C4.97334 7.8492 4.9507 7.91714 4.96203 7.98128L5.09032 8.71714C5.11674 8.87562 4.94692 9.00016 4.80353 8.92468L4.1394 8.57752C4.08278 8.54732 4.01486 8.54732 3.95825 8.57752L3.29034 8.92468C3.14694 9.00016 2.97712 8.8794 3.00732 8.71714L3.13183 7.98128C3.14316 7.91714 3.12052 7.85297 3.07524 7.80769L2.53938 7.28316C2.4224 7.16618 2.48656 6.96997 2.64882 6.94355L3.38843 6.83788C3.4526 6.83035 3.50919 6.78882 3.53939 6.73223L3.87146 6.05674C3.94316 5.90959 4.15448 5.90959 4.22618 6.05674L4.55448 6.73223C4.58468 6.78882 4.64127 6.83035 4.70543 6.83788L5.44504 6.94355C5.6073 6.96997 5.67147 7.16618 5.55449 7.28316ZM10.0941 7.28316L9.55826 7.80391C9.51298 7.8492 9.49034 7.91714 9.50165 7.98128L9.62996 8.71714C9.65637 8.87562 9.49034 9.00016 9.34316 8.92468L8.67901 8.57752C8.62242 8.54732 8.55447 8.54732 8.49788 8.57752L7.83373 8.92468C7.68655 9.00016 7.52051 8.8794 7.54693 8.71714L7.67146 7.98128C7.68277 7.91714 7.66013 7.85297 7.61485 7.80769L7.07901 7.28316C6.96203 7.16618 7.02617 6.96997 7.18844 6.94355L7.92807 6.83788C7.99221 6.83035 8.04882 6.78882 8.07902 6.73223L8.4111 6.05674C8.48277 5.90959 8.69412 5.90959 8.76579 6.05674L9.09411 6.73223C9.12429 6.78882 9.1809 6.83035 9.24504 6.83788L9.98467 6.94355C10.1469 6.96997 10.2111 7.16618 10.0941 7.28316ZM14.6337 7.28316L14.0979 7.80391C14.0526 7.8492 14.0337 7.91714 14.0451 7.98128L14.1696 8.71714C14.1998 8.87562 14.0299 9.00016 13.8828 8.92468L13.2224 8.57752C13.162 8.54732 13.0941 8.54732 13.0375 8.57752L12.3734 8.92468C12.23 9.00016 12.0601 8.8794 12.0866 8.71714L12.2111 7.98128C12.2224 7.91714 12.1998 7.85297 12.1545 7.80769L11.6186 7.28316C11.5016 7.16618 11.5658 6.96997 11.7281 6.94355L12.4715 6.83788C12.5356 6.83035 12.5884 6.78882 12.6186 6.73223L12.9507 6.05674C13.0262 5.90959 13.2337 5.90959 13.3054 6.05674L13.6375 6.73223C13.6639 6.78882 13.7205 6.83035 13.7847 6.83788L14.5243 6.94355C14.6865 6.96997 14.7507 7.16618 14.6337 7.28316Z" fill="#5A5A5A"/>
<path d="M18.8676 6.9588V13.0041C18.8676 13.5399 18.6487 14.023 18.3015 14.3739C17.9506 14.7211 17.4638 14.9362 16.9317 14.9362C16.8034 14.9362 16.7053 15.0531 16.7279 15.1815L17.0487 17.2645C17.0827 17.4682 16.8411 17.589 16.6977 17.4494L14.1959 14.9965C14.1544 14.9626 14.1053 14.9362 14.0487 14.9362H5.88644C5.45625 14.9362 5.06003 14.7965 4.73926 14.5588L6.16946 13.1588H14.1091C15.5921 13.1588 16.7996 11.9513 16.7996 10.4682V5.02295H16.9317C17.9996 5.02295 18.8676 5.88711 18.8676 6.9588Z" fill="#5A5A5A"/>
</svg>
