<svg width="36" height="33" viewBox="0 0 36 33" fill="none" xmlns="http://www.w3.org/2000/svg">
<mask id="mask0_540_5985" style="mask-type:luminance" maskUnits="userSpaceOnUse" x="0" y="0" width="36" height="33">
<path d="M36 0H0V32.3504H36V0Z" fill="white"/>
</mask>
<g mask="url(#mask0_540_5985)">
<path d="M1.91309 16.1847C1.91309 7.24177 9.05684 0 17.8693 0C26.6818 0 33.8256 7.24177 33.8256 16.1752C33.8256 25.1086 26.6818 32.3504 17.8693 32.3504C9.05684 32.3504 1.91309 25.1181 1.91309 16.1847Z" fill="white"/>
<path fill-rule="evenodd" clip-rule="evenodd" d="M15.8633 32.2274L15.6946 32.2083C7.91333 31.1344 1.91333 24.3298 1.91333 16.1567C1.91333 12.3077 3.20708 8.7819 5.45708 6.00684C5.45708 6.00684 18.8071 8.44927 19.304 12.4218C19.304 12.4883 20.3915 16.2898 11.9633 17.2876C11.9633 17.2876 5.38208 17.6013 8.83208 25.6318C8.83208 25.6318 11.6727 31.7997 15.8633 32.2369" fill="#C3383B"/>
<path d="M17.8797 32.3601C7.60475 24.244 16.1735 20.5946 16.1735 20.5946C28.2297 17.4489 26.6172 12.2219 26.6172 12.2219C23.6922 4.41945 8.1485 3.34554 8.1485 3.34554C10.8391 1.24524 14.2047 0.00976562 17.8704 0.00976562C26.6829 0.00976562 33.8266 7.24203 33.8266 16.1564C33.8266 25.0708 26.6922 32.3601 17.8797 32.3601Z" fill="#C3383B"/>
</g>
</svg>
