<svg width="20" height="20" viewBox="0 0 20 20" fill="none" xmlns="http://www.w3.org/2000/svg">
<path d="M18.109 10.9336C17.3767 10.7457 16.667 10.4788 15.9923 10.1377C15.784 10.0336 15.5923 9.93356 15.4173 9.83772C15.0715 9.64606 14.7965 9.47522 14.6173 9.35856C14.6071 9.35137 14.5959 9.34575 14.584 9.34189C14.4519 9.2649 14.3012 9.22573 14.1483 9.22867C13.9955 9.23161 13.8463 9.27654 13.7173 9.35856C12.6422 10.0616 11.4642 10.593 10.2257 10.9336C10.0433 10.9779 9.88106 11.0819 9.76476 11.2292C9.64847 11.3765 9.58482 11.5584 9.58398 11.7461V12.4586C9.58355 13.4875 9.83741 14.5007 10.323 15.4079C10.8086 16.3151 11.5108 17.0882 12.3673 17.6586L12.7548 17.9169L13.7048 18.5502C13.7801 18.5998 13.8632 18.6364 13.9507 18.6586H13.9548C14.0231 18.6821 14.0951 18.6934 14.1673 18.6919C14.332 18.6905 14.4926 18.6413 14.6298 18.5502L15.9673 17.6586C16.8238 17.0882 17.5261 16.3151 18.0116 15.4079C18.4972 14.5007 18.7511 13.4875 18.7507 12.4586V11.7461C18.7498 11.5584 18.6862 11.3765 18.5699 11.2292C18.4536 11.0819 18.2913 10.9779 18.109 10.9336ZM15.7132 13.2127L14.0465 14.8794C13.9675 14.9569 13.8613 15.0002 13.7507 15.0002C13.64 15.0002 13.5338 14.9569 13.4548 14.8794L12.6215 14.0461C12.543 13.9676 12.4989 13.8612 12.4989 13.7502C12.4989 13.6393 12.543 13.5329 12.6215 13.4544C12.6999 13.3759 12.8064 13.3319 12.9173 13.3319C13.0283 13.3319 13.1347 13.3759 13.2132 13.4544L13.7507 13.9961L15.1215 12.6211C15.1603 12.5822 15.2065 12.5514 15.2572 12.5304C15.308 12.5093 15.3624 12.4985 15.4173 12.4985C15.4723 12.4985 15.5267 12.5093 15.5774 12.5304C15.6282 12.5514 15.6743 12.5822 15.7132 12.6211C15.752 12.6599 15.7828 12.706 15.8038 12.7568C15.8249 12.8075 15.8357 12.8619 15.8357 12.9169C15.8357 12.9718 15.8249 13.0262 15.8038 13.077C15.7828 13.1278 15.752 13.1739 15.7132 13.2127Z" fill="#5A5A5A"/>
<path d="M14.825 5.51672L11.2625 1.87505C11.1346 1.74566 10.9903 1.63359 10.8333 1.54172V4.58339C10.8343 4.9146 10.9663 5.23197 11.2005 5.46618C11.4347 5.70039 11.7521 5.8324 12.0833 5.83339H15.0792C15.004 5.72051 14.9189 5.61453 14.825 5.51672ZM15.3917 6.66672H12.0833C11.5308 6.66672 11.0009 6.44723 10.6102 6.05653C10.2195 5.66583 10 5.13592 10 4.58339V1.26672C9.92559 1.25496 9.85033 1.24938 9.775 1.25005H3.33333C2.7808 1.25005 2.2509 1.46955 1.86019 1.86025C1.46949 2.25095 1.25 2.78085 1.25 3.33339V16.6667C1.25 17.2193 1.46949 17.7492 1.86019 18.1399C2.2509 18.5306 2.7808 18.7501 3.33333 18.7501H12.5042L11.9042 18.3501C10.9333 17.7043 10.1373 16.8284 9.58697 15.8004C9.03664 14.7725 8.74912 13.6244 8.75 12.4584V11.7459C8.75016 11.4882 8.81007 11.2341 8.92502 11.0034C9.03997 10.7728 9.20684 10.572 9.4125 10.4167H4.16667C4.05616 10.4167 3.95018 10.3728 3.87204 10.2947C3.7939 10.2165 3.75 10.1106 3.75 10.0001C3.75 9.88955 3.7939 9.78357 3.87204 9.70543C3.95018 9.62729 4.05616 9.58339 4.16667 9.58339H11.5583C12.1483 9.31733 12.7179 9.00816 13.2625 8.65839C13.5068 8.50318 13.787 8.41359 14.076 8.39826C14.3651 8.38293 14.6532 8.44239 14.9125 8.57089L14.9417 8.58339L15.0667 8.65839C15.1542 8.71672 15.2708 8.78755 15.4167 8.87505V6.97505C15.4168 6.87177 15.4084 6.76864 15.3917 6.66672ZM8.75 15.0001C8.75 15.1106 8.7061 15.2165 8.62796 15.2947C8.54982 15.3728 8.44384 15.4167 8.33333 15.4167H4.16667C4.05616 15.4167 3.95018 15.3728 3.87204 15.2947C3.7939 15.2165 3.75 15.1106 3.75 15.0001C3.75 14.8895 3.7939 14.7836 3.87204 14.7054C3.95018 14.6273 4.05616 14.5834 4.16667 14.5834H8.33333C8.44384 14.5834 8.54982 14.6273 8.62796 14.7054C8.7061 14.7836 8.75 14.8895 8.75 15.0001ZM4.16667 12.0834H7.5C7.61051 12.0834 7.71649 12.1273 7.79463 12.2054C7.87277 12.2836 7.91667 12.3895 7.91667 12.5001C7.91667 12.6106 7.87277 12.7165 7.79463 12.7947C7.71649 12.8728 7.61051 12.9167 7.5 12.9167H4.16667C4.05616 12.9167 3.95018 12.8728 3.87204 12.7947C3.7939 12.7165 3.75 12.6106 3.75 12.5001C3.75 12.3895 3.7939 12.2836 3.87204 12.2054C3.95018 12.1273 4.05616 12.0834 4.16667 12.0834ZM4.16667 4.58339H7.5C7.61051 4.58339 7.71649 4.62729 7.79463 4.70543C7.87277 4.78357 7.91667 4.88955 7.91667 5.00005C7.91667 5.11056 7.87277 5.21654 7.79463 5.29468C7.71649 5.37282 7.61051 5.41672 7.5 5.41672H4.16667C4.05616 5.41672 3.95018 5.37282 3.87204 5.29468C3.7939 5.21654 3.75 5.11056 3.75 5.00005C3.75 4.88955 3.7939 4.78357 3.87204 4.70543C3.95018 4.62729 4.05616 4.58339 4.16667 4.58339ZM10 7.91672H4.16667C4.05616 7.91672 3.95018 7.87282 3.87204 7.79468C3.7939 7.71654 3.75 7.61056 3.75 7.50005C3.75 7.38955 3.7939 7.28357 3.87204 7.20543C3.95018 7.12729 4.05616 7.08339 4.16667 7.08339H10C10.1105 7.08339 10.2165 7.12729 10.2946 7.20543C10.3728 7.28357 10.4167 7.38955 10.4167 7.50005C10.4167 7.61056 10.3728 7.71654 10.2946 7.79468C10.2165 7.87282 10.1105 7.91672 10 7.91672Z" fill="#5A5A5A"/>
</svg>
