<svg width="32" height="32" viewBox="0 0 32 32" fill="none" xmlns="http://www.w3.org/2000/svg">
<path d="M16.004 0.0120395C12.8389 0.0112465 9.74454 0.9432 7.11256 2.69001C4.48058 4.43682 2.4292 6.92 1.21793 9.82539C0.00666729 12.7308 -0.310052 15.9278 0.307838 19.0121C0.925728 22.0964 2.45047 24.9293 4.68916 27.1524C6.92785 29.3755 9.7799 30.889 12.8845 31.5013C15.9891 32.1137 19.2068 31.7974 22.1304 30.5925C25.054 29.3875 27.5523 27.3481 29.3091 24.7323C31.0659 22.1164 32.0024 19.0416 32 15.8968C32.0005 13.8094 31.5872 11.7423 30.7835 9.81364C29.9799 7.88498 28.8017 6.1325 27.3163 4.65629C25.8309 3.18009 24.0673 2.00908 22.1264 1.21015C20.1854 0.411209 18.105 -6.65559e-08 16.004 0M16.004 29.6464C13.2664 29.6488 10.5896 28.8444 8.31224 27.3351C6.03485 25.8257 4.25919 23.6791 3.2099 21.1669C2.16061 18.6547 1.88482 15.8897 2.41743 13.2217C2.95004 10.5538 4.26711 8.1027 6.20204 6.17857C8.13696 4.25444 10.6028 2.94372 13.2876 2.41221C15.9724 1.8807 18.7556 2.15228 21.285 3.19261C23.8145 4.23293 25.9765 5.99525 27.4977 8.25663C29.0189 10.518 29.8308 13.1768 29.8309 15.8968C29.8309 19.5434 28.3728 23.0407 25.7775 25.6193C23.1822 28.1978 19.6622 29.6464 15.9919 29.6464" fill="#DAE6EE"/>
<path d="M18.1975 21.1707L18.9731 23.0288C19.9157 22.6426 20.7723 22.0753 21.4936 21.3593L20.0597 19.9346C19.5269 20.4643 18.894 20.8844 18.1975 21.1707Z" fill="#B3E2F2"/>
<path d="M16.0038 21.6035V23.6101C17.0227 23.6117 18.0319 23.4126 18.9728 23.0242L18.1972 21.166C17.5019 21.4523 16.7565 21.5996 16.0038 21.5994" fill="#DBF6C2"/>
<path d="M20.0595 19.934L21.4935 21.3587C22.2105 20.6407 22.7811 19.7917 23.1739 18.8585L21.2996 18.0879C21.0104 18.7772 20.5892 19.4042 20.0595 19.934Z" fill="#7FD2E5"/>
<path d="M16.004 8.19922C14.9852 8.19848 13.9763 8.3976 13.0351 8.78516L13.8107 10.6474C14.858 10.2163 16.0105 10.1036 17.1224 10.3233C18.2342 10.5431 19.2555 11.0854 20.0571 11.8819C20.8587 12.6783 21.4046 13.693 21.6258 14.7977C21.847 15.9024 21.7335 17.0475 21.2997 18.0881L23.174 18.8586C23.6622 17.6872 23.8521 16.4143 23.727 15.1525C23.6018 13.8908 23.1653 12.6792 22.4563 11.6251C21.7473 10.5709 20.7875 9.70682 19.662 9.10925C18.5366 8.51168 17.2801 8.19911 16.004 8.19922Z" fill="#5AADD9"/>
<path d="M18.9731 23.0289L19.7486 24.8911C20.9355 24.4019 22.0142 23.6861 22.9236 22.7841L21.4896 21.3594C20.7706 22.0763 19.9151 22.6438 18.9731 23.0289Z" fill="#A3D223"/>
<path d="M22.9235 22.7834L24.3574 24.2041C25.4538 23.1149 26.324 21.8222 26.9184 20.3995L25.0482 19.6289C24.5534 20.8078 23.8317 21.8794 22.9235 22.7834Z" fill="#00A350"/>
<path d="M21.4893 21.3587L22.9233 22.7834C23.8315 21.8794 24.5533 20.8079 25.048 19.629L23.1737 18.8584C22.781 19.7926 22.2089 20.6419 21.4893 21.3587Z" fill="#3FC04E"/>
<path d="M26.9184 20.3994C26.3252 21.8228 25.4549 23.1157 24.3575 24.2041L22.9235 22.7834C22.4704 23.2321 21.9738 23.6354 21.441 23.9874C20.9076 24.341 20.3408 24.642 19.7485 24.8863L18.973 23.0242C18.0315 23.4106 17.0227 23.6097 16.004 23.6101V21.6034C15.2504 21.6029 14.5043 21.4548 13.8084 21.1677C13.1124 20.8806 12.4802 20.46 11.9479 19.93C11.4156 19.4 10.9936 18.771 10.7061 18.0789C10.4185 17.3868 10.2711 16.6452 10.2721 15.8965H2.1651C2.16339 19.0789 3.27281 22.1633 5.30419 24.6239C7.33557 27.0844 10.1631 28.7686 13.3046 29.3894C16.4462 30.0101 19.7072 29.529 22.5315 28.0279C25.3559 26.5268 27.5687 24.0988 28.7927 21.1579L26.9184 20.3994Z" fill="#E6D700"/>
<path d="M16.004 2.15939C12.3358 2.15939 8.81766 3.60636 6.22271 6.18232C3.62776 8.75828 2.16831 12.2525 2.1651 15.897H10.2721C10.2719 15.1501 10.4216 14.4106 10.7124 13.7218L5.08961 11.4061C5.64215 9.92547 6.48968 8.57083 7.58147 7.42324C8.67326 6.27566 9.98687 5.35874 11.4437 4.72734C12.9005 4.09595 14.4705 3.76307 16.0598 3.74863C17.6491 3.73419 19.225 4.03849 20.6932 4.64331C22.1614 5.24813 23.4916 6.14104 24.6044 7.26859C25.7171 8.39615 26.5894 9.73518 27.1691 11.2055C27.7488 12.6759 28.024 14.2473 27.9781 15.8257C27.9323 17.4042 27.5664 18.9573 26.9023 20.3919L28.7766 21.1625C29.6454 19.0731 29.9827 16.8033 29.7585 14.5536C29.5343 12.3039 28.7556 10.1438 27.4913 8.26429C26.2269 6.38477 24.5159 4.84377 22.5095 3.77757C20.5031 2.71137 18.2632 2.15284 15.9879 2.15137" fill="#8FA5C0"/>
<path d="M25.0483 19.6291C25.9139 17.5506 26.0276 15.2383 25.3699 13.0859C24.7122 10.9335 23.3239 9.07423 21.4413 7.82474C19.5587 6.57526 17.2983 6.01286 15.0453 6.23334C12.7922 6.45382 10.6857 7.44354 9.08461 9.03392L11.9526 11.8794C11.473 12.4497 11.0572 13.07 10.7125 13.7295L5.08966 11.4138C5.6422 9.9332 6.48973 8.57855 7.58152 7.43097C8.67331 6.28338 9.98692 5.36646 11.4437 4.73506C12.9005 4.10367 14.4706 3.77079 16.0599 3.75635C17.6492 3.74191 19.2251 4.04621 20.6932 4.65103C22.1614 5.25585 23.4917 6.14877 24.6044 7.27633C25.7171 8.40388 26.5895 9.7429 27.1692 11.2132C27.7489 12.6836 28.024 14.255 27.9782 15.8335C27.9323 17.4119 27.5664 18.965 26.9023 20.3997L25.0483 19.6291Z" fill="#275699"/>
<path d="M25.7916 15.8965C25.7911 13.9736 25.2168 12.094 24.1413 10.4954C23.0658 8.89667 21.5374 7.65068 19.7493 6.91488C17.9612 6.17908 15.9937 5.98652 14.0955 6.36152C12.1972 6.73652 10.4535 7.66226 9.08472 9.02171L11.9527 11.8672C12.486 11.3409 13.117 10.9225 13.8108 10.6351L13.0352 8.77288C14.4532 8.18919 16.0135 8.03639 17.5189 8.33383C19.0242 8.63126 20.407 9.36556 21.4923 10.4438C22.5776 11.5221 23.3166 12.896 23.616 14.3916C23.9154 15.8873 23.7616 17.4375 23.1741 18.8463L25.0484 19.6169C25.5393 18.4372 25.7918 17.1731 25.7916 15.8965Z" fill="#278CC5"/>
</svg>
