<svg width="12" height="16" viewBox="0 0 12 16" fill="none" xmlns="http://www.w3.org/2000/svg">
<path d="M10.8 0.799805H5.19999C4.56347 0.799805 3.95302 1.05266 3.50294 1.50275C3.05285 1.95284 2.79999 2.56328 2.79999 3.1998V10.3998H1.19999C0.987821 10.3998 0.784338 10.4841 0.634309 10.6341C0.48428 10.7841 0.399994 10.9876 0.399994 11.1998C0.399994 11.412 0.48428 11.6155 0.634309 11.7655C0.784338 11.9155 0.987821 11.9998 1.19999 11.9998H2.79999V14.3998C2.79999 14.612 2.88428 14.8155 3.03431 14.9655C3.18434 15.1155 3.38782 15.1998 3.59999 15.1998C3.81217 15.1998 4.01565 15.1155 4.16568 14.9655C4.31571 14.8155 4.39999 14.612 4.39999 14.3998V11.9998H7.59999C7.81217 11.9998 8.01565 11.9155 8.16568 11.7655C8.31571 11.6155 8.39999 11.412 8.39999 11.1998C8.39999 10.9876 8.31571 10.7841 8.16568 10.6341C8.01565 10.4841 7.81217 10.3998 7.59999 10.3998H4.39999V7.9998H9.99999C10.2122 7.9998 10.4157 7.91552 10.5657 7.76549C10.7157 7.61546 10.8 7.41198 10.8 7.1998C10.8 6.98763 10.7157 6.78415 10.5657 6.63412C10.4157 6.48409 10.2122 6.3998 9.99999 6.3998H4.39999V3.1998C4.39999 2.98763 4.48428 2.78415 4.63431 2.63412C4.78434 2.48409 4.98782 2.3998 5.19999 2.3998H10.8C11.0122 2.3998 11.2157 2.31552 11.3657 2.16549C11.5157 2.01546 11.6 1.81198 11.6 1.5998C11.6 1.38763 11.5157 1.18415 11.3657 1.03412C11.2157 0.88409 11.0122 0.799805 10.8 0.799805Z" fill="#3B4D9B"/>
</svg>
